{"glyphs":{"0":{"ha":826,"x_min":60,"x_max":793,"o":"m 79 496 q 60 306 60 390 q 125 76 60 157 q 339 -4 190 -4 q 632 128 531 -4 q 775 496 733 260 q 793 683 793 604 q 728 912 793 831 q 514 993 663 993 q 222 862 322 993 q 79 496 121 731 m 650 496 q 598 294 629 375 q 509 164 567 213 q 361 115 451 115 q 225 168 265 115 q 185 319 185 221 q 204 496 185 385 q 256 696 225 615 q 345 824 288 776 q 493 872 403 872 q 629 820 589 872 q 669 669 669 768 q 650 496 669 608 z "},"1":{"ha":399,"x_min":79,"x_max":385,"o":"m 85 861 l 104 979 l 385 979 l 213 0 l 79 0 l 232 861 l 85 861 z "},"2":{"ha":778,"x_min":-24,"x_max":756,"o":"m -8 97 q 427 407 258 256 q 618 686 596 558 q 624 742 624 713 q 585 848 624 808 q 464 888 547 888 q 308 828 368 888 q 228 656 247 768 l 104 656 q 239 910 135 824 q 486 996 343 996 q 684 935 613 996 q 756 763 756 875 q 749 692 756 733 q 639 475 731 585 q 422 272 547 365 q 169 110 297 178 l 667 110 l 649 6 l -24 6 l -8 97 z "},"3":{"ha":775,"x_min":22,"x_max":763,"o":"m 500 1006 q 694 945 626 1006 q 763 786 763 885 q 758 735 763 763 q 678 590 743 649 q 508 519 614 532 l 507 511 q 644 433 593 488 q 696 289 696 379 q 690 232 696 274 q 585 57 672 124 q 354 -10 499 -10 q 107 69 192 -10 q 29 299 22 149 l 154 299 q 201 153 150 207 q 363 99 251 99 q 502 140 449 99 q 567 249 556 182 q 571 292 571 272 q 508 416 571 374 q 326 458 444 458 l 293 458 l 311 564 l 344 564 q 632 726 601 564 q 635 763 635 739 q 594 863 635 826 q 478 899 553 899 q 328 851 396 899 q 242 710 261 803 l 117 710 q 247 927 144 849 q 500 1006 349 1006 z "},"4":{"ha":829,"x_min":-4,"x_max":800,"o":"m -4 225 l 15 331 l 633 986 l 768 986 l 654 335 l 800 335 l 779 225 l 635 225 l 596 0 l 467 0 l 506 225 l -4 225 m 622 832 l 149 335 l 535 335 l 622 832 z "},"5":{"ha":826,"x_min":56,"x_max":811,"o":"m 792 879 l 289 879 l 231 551 q 345 626 275 599 q 493 654 415 654 q 688 583 624 654 q 751 397 751 511 q 744 318 751 363 q 622 83 719 174 q 365 -7 524 -7 q 138 64 219 -7 q 56 257 56 135 q 57 288 56 276 l 182 288 q 234 153 182 201 q 378 106 286 106 q 542 165 481 106 q 621 321 604 224 q 626 379 626 349 q 580 507 626 461 q 446 553 533 553 q 316 521 379 553 q 217 438 253 489 l 94 438 l 192 992 l 811 992 l 792 879 z "},"6":{"ha":833,"x_min":67,"x_max":793,"o":"m 671 718 q 501 901 664 901 q 304 798 379 901 q 197 468 229 694 q 315 601 232 551 q 500 650 399 650 q 694 585 626 650 q 763 400 763 519 q 754 314 763 360 q 632 82 729 174 q 376 -10 535 -10 q 138 76 210 -10 q 67 313 67 161 q 85 492 67 390 q 233 876 129 747 q 521 1004 336 1004 q 730 925 667 1004 q 790 718 793 846 l 671 718 m 188 340 q 182 286 182 304 q 231 152 182 204 q 382 100 281 100 q 548 157 479 100 q 635 315 617 214 q 640 376 640 344 q 591 506 640 461 q 456 550 542 550 q 340 527 397 550 q 242 456 283 504 q 188 340 200 408 z "},"7":{"ha":661,"x_min":53,"x_max":731,"o":"m 713 888 l 186 0 l 53 0 l 583 875 l 68 875 l 88 985 l 731 985 l 713 888 z "},"8":{"ha":853,"x_min":29,"x_max":818,"o":"m 143 763 q 205 888 156 832 q 336 977 254 944 q 525 1010 418 1010 q 742 947 665 1010 q 818 782 818 883 q 814 735 818 760 q 744 603 800 658 q 594 522 689 547 q 721 443 676 499 q 765 307 765 388 q 760 249 765 276 q 625 45 738 118 q 342 -28 513 -28 q 113 38 197 -28 q 29 219 29 103 q 35 283 29 254 q 115 435 50 374 q 282 522 179 496 q 174 594 210 544 q 139 711 139 643 q 143 763 139 736 m 261 701 q 310 594 261 632 q 444 557 360 557 q 621 610 554 557 q 688 760 688 663 q 639 867 688 829 q 507 904 590 904 q 330 851 399 904 q 261 701 261 799 m 158 285 q 154 242 154 263 q 209 121 154 164 q 360 78 264 78 q 543 128 469 78 q 633 267 617 178 q 638 307 638 288 q 580 427 638 386 q 429 468 522 468 q 249 422 325 468 q 158 285 174 375 z "},"9":{"ha":829,"x_min":57,"x_max":789,"o":"m 183 275 q 220 140 181 188 q 344 93 260 93 q 547 197 469 93 q 657 526 625 300 q 538 393 622 443 q 353 343 454 343 q 160 408 228 343 q 92 593 92 474 q 100 681 92 635 q 163 844 115 771 q 293 961 211 918 q 483 1004 375 1004 q 719 922 649 1004 q 789 692 789 839 q 769 503 789 607 q 624 119 725 250 q 331 -11 522 -11 q 123 69 189 -11 q 64 275 57 150 l 183 275 m 667 656 q 671 707 671 681 q 622 842 671 789 q 472 894 574 894 q 306 836 375 894 q 219 674 238 778 q 214 614 214 646 q 263 487 214 531 q 397 443 311 443 q 513 467 456 443 q 613 539 571 490 q 667 656 654 588 z "},"\u0000":{"ha":0,"x_min":0,"x_max":0,"o":""},"\r":{"ha":343,"x_min":0,"x_max":0,"o":""}," ":{"ha":343,"x_min":0,"x_max":0,"o":""},"अ":{"ha":1147,"x_min":68,"x_max":1275,"o":"m 1275 1028 l 1258 931 l 1075 931 l 911 0 l 796 0 l 876 454 l 656 456 q 665 389 665 425 q 661 340 665 365 q 549 147 639 219 q 332 74 460 74 q 140 136 213 74 q 68 301 68 199 q 74 356 68 317 l 182 356 q 179 321 179 343 q 224 215 179 256 q 342 174 268 174 q 483 223 425 174 q 556 351 542 272 q 560 388 560 371 q 543 456 560 425 l 539 456 l 539 463 q 393 528 499 528 l 338 528 l 356 622 l 410 622 q 551 669 496 622 q 617 778 606 715 q 619 811 619 800 q 579 907 619 872 q 475 942 539 942 q 338 898 397 942 q 267 783 279 854 l 160 783 q 273 970 181 900 q 492 1040 365 1040 q 664 987 600 1040 q 728 842 728 933 q 724 794 728 819 q 656 657 710 714 q 517 579 603 600 l 517 576 q 583 551 556 571 l 893 551 l 978 1028 l 1275 1028 z "},"आ":{"ha":1556,"x_min":68,"x_max":1682,"o":"m 1275 1028 l 1258 931 l 1075 931 l 911 0 l 796 0 l 876 454 l 656 456 q 665 389 665 425 q 661 340 665 365 q 549 147 639 219 q 332 74 460 74 q 140 136 213 74 q 68 301 68 199 q 74 356 68 317 l 182 356 q 179 321 179 343 q 224 215 179 256 q 342 174 268 174 q 483 223 425 174 q 556 351 542 272 q 560 388 560 371 q 543 456 560 425 l 539 456 l 539 463 q 393 528 499 528 l 338 528 l 356 622 l 410 622 q 551 669 496 622 q 617 778 606 715 q 619 811 619 800 q 579 907 619 872 q 475 942 539 942 q 338 898 397 942 q 267 783 279 854 l 160 783 q 273 970 181 900 q 492 1040 365 1040 q 664 987 600 1040 q 728 842 728 933 q 724 794 728 819 q 656 657 710 714 q 517 579 603 600 l 517 576 q 583 551 556 571 l 893 551 l 978 1028 l 1275 1028 m 1367 931 l 1183 931 l 1201 1028 l 1682 1028 l 1665 931 l 1482 931 l 1319 0 l 1203 0 l 1367 931 z "},"इ":{"ha":810,"x_min":32,"x_max":956,"o":"m 940 931 l 729 931 l 693 731 l 683 678 l 439 678 q 249 563 268 678 q 246 539 246 546 q 283 470 246 492 q 379 449 319 449 l 440 449 q 618 403 547 449 q 689 258 689 357 q 683 206 689 244 q 592 44 665 106 q 399 -18 518 -18 q 246 23 299 -18 q 179 110 193 64 l 142 -107 l 33 -107 l 94 249 l 199 249 q 239 119 192 169 q 379 69 286 69 q 524 122 472 69 q 576 246 576 174 q 528 336 576 308 q 406 364 481 364 q 332 365 356 364 q 188 408 244 368 q 131 528 131 449 q 133 567 131 553 q 232 717 151 671 q 421 764 313 764 l 586 764 l 617 931 l 32 931 l 49 1028 l 956 1028 l 940 931 z "},"ई":{"ha":806,"x_min":33,"x_max":1121,"o":"m 932 1399 q 1072 1352 1022 1399 q 1121 1225 1121 1306 q 1114 1164 1121 1199 l 1011 1164 q 1015 1201 1015 1185 q 989 1274 1015 1247 q 917 1301 963 1301 q 814 1258 853 1301 q 761 1132 775 1215 l 743 1028 l 957 1028 l 940 931 l 729 931 l 693 731 l 683 678 l 439 678 q 249 563 268 678 q 246 539 246 546 q 283 470 246 492 q 379 449 319 449 l 440 449 q 618 403 547 449 q 689 258 689 357 q 683 206 689 244 q 592 44 665 106 q 399 -18 518 -18 q 246 23 299 -18 q 179 110 193 64 l 142 -107 l 33 -107 l 94 249 l 199 249 q 239 119 192 169 q 379 69 286 69 q 524 122 472 69 q 576 246 576 174 q 528 336 576 308 q 406 364 481 364 q 332 365 356 364 q 188 408 244 368 q 131 528 131 449 q 133 567 131 553 q 232 717 151 671 q 421 764 313 764 l 588 764 l 617 931 l 33 931 l 50 1028 l 636 1028 l 654 1131 q 744 1326 675 1253 q 932 1399 814 1399 z "},"उ":{"ha":799,"x_min":31,"x_max":926,"o":"m 908 929 l 739 929 l 714 786 q 647 644 700 701 q 524 575 593 586 l 522 572 q 636 499 596 557 q 676 358 676 440 q 672 303 676 332 q 608 148 657 215 q 484 42 560 81 q 314 4 408 4 q 108 73 185 4 q 31 254 31 142 q 36 315 31 288 l 147 315 q 143 276 143 294 q 194 156 143 203 q 326 108 246 108 q 483 165 418 108 q 564 313 547 222 q 568 353 568 333 q 525 471 568 424 q 390 518 482 518 l 326 518 l 344 621 l 393 621 q 536 669 481 621 q 604 794 592 717 l 628 929 l 36 929 l 54 1028 l 926 1028 l 908 929 z "},"ऊ":{"ha":1200,"x_min":31,"x_max":1328,"o":"m 714 786 q 647 644 700 701 q 524 575 593 586 l 522 572 l 810 572 q 1014 519 938 572 q 1090 357 1090 467 q 1085 299 1090 326 q 975 105 1061 171 q 768 39 889 39 q 704 43 738 39 l 721 132 q 767 131 736 131 q 902 172 846 131 q 974 303 958 214 q 978 343 978 324 q 927 446 978 413 q 796 479 876 479 l 643 479 q 674 353 674 428 q 669 297 674 326 q 606 146 654 213 q 482 42 557 79 q 314 4 407 4 q 108 73 185 4 q 31 254 31 142 q 36 315 31 288 l 147 315 q 143 276 143 294 q 194 156 143 203 q 326 108 246 108 q 483 165 418 108 q 564 313 547 222 q 568 353 568 333 q 525 471 568 424 q 390 518 482 518 l 326 518 l 344 621 l 393 621 q 536 669 481 621 q 604 794 592 717 l 628 931 l 36 931 l 54 1028 l 1328 1028 l 1310 931 l 739 931 l 714 786 z "},"ऋ":{"ha":1418,"x_min":36,"x_max":1546,"o":"m 874 931 l 817 608 l 1065 608 q 1155 633 1122 608 q 1197 700 1188 657 l 1214 793 l 1315 793 l 1229 303 l 1203 303 q 1064 251 1115 303 q 1013 124 1013 199 q 1051 40 1013 67 q 1153 13 1090 13 q 1235 25 1194 13 l 1218 -68 q 1122 -81 1175 -81 q 959 -35 1021 -81 q 897 100 897 11 q 901 146 897 121 q 981 296 917 235 q 1140 372 1046 357 l 1171 547 q 1032 515 1110 515 l 800 515 l 710 0 l 601 0 l 668 382 l 222 0 l 78 0 l 79 7 l 690 503 l 690 504 q 638 635 689 585 q 497 686 588 686 q 303 616 385 686 q 200 428 221 546 l 85 428 q 160 615 104 535 q 300 740 217 696 q 482 785 383 785 q 630 749 571 785 q 715 650 689 714 l 765 931 l 36 931 l 54 1028 l 1546 1028 l 1529 931 l 874 931 z "},"ॠ":{"ha":1419,"x_min":36,"x_max":1547,"o":"m 872 931 l 815 608 l 1064 608 q 1199 706 1178 608 l 1201 721 l 1208 767 l 1210 767 l 1214 793 l 1315 793 l 1228 300 l 1172 300 q 1075 276 1115 300 q 1024 197 1035 253 q 1022 178 1022 190 q 1055 115 1022 135 q 1143 96 1088 96 l 1207 96 l 1192 8 l 1126 8 q 1025 -16 1068 8 q 972 -97 982 -40 q 971 -118 971 -104 q 1006 -180 971 -160 q 1096 -200 1040 -200 q 1174 -193 1135 -200 q 1236 -178 1214 -186 l 1221 -265 q 1150 -283 1193 -276 q 1065 -290 1107 -290 q 915 -254 974 -290 q 856 -143 856 -218 q 901 -17 856 -68 q 1011 49 946 35 l 1013 53 q 938 93 965 64 q 911 169 911 122 q 914 203 911 181 q 994 326 929 286 q 1140 368 1060 367 l 1171 549 q 1031 515 1111 515 l 799 515 l 708 0 l 601 0 l 669 383 l 222 0 l 76 0 l 78 7 l 690 503 q 638 635 689 583 q 496 686 586 686 q 302 616 383 686 q 200 428 221 546 l 83 428 q 159 615 103 535 q 299 740 215 696 q 482 785 383 785 q 630 749 571 785 q 715 649 689 713 l 765 931 l 36 931 l 54 1028 l 1547 1028 l 1529 931 l 872 931 z "},"ऌ":{"ha":1250,"x_min":32,"x_max":1374,"o":"m 1006 931 l 974 751 q 1099 672 1054 733 q 1143 514 1143 610 q 1136 439 1143 483 q 1089 300 1124 360 l 1079 300 q 928 249 982 300 q 875 122 875 199 q 915 38 875 65 q 1019 11 954 11 q 1101 22 1064 11 l 1083 -71 q 989 -83 1039 -83 q 825 -37 888 -83 q 763 99 763 10 q 767 147 763 122 q 847 294 782 233 q 1001 367 913 354 q 1021 440 1015 407 q 1026 499 1026 467 q 990 613 1026 569 q 883 656 954 656 q 730 586 790 656 q 653 401 669 517 l 649 376 l 550 376 l 554 401 q 560 476 560 436 q 526 608 560 561 q 422 656 493 656 q 273 595 332 656 q 197 438 214 535 q 192 378 192 410 q 238 248 192 294 q 375 201 285 201 q 417 203 400 201 l 399 101 q 350 99 360 99 q 143 169 214 99 q 72 360 72 239 q 79 439 72 393 q 199 672 106 588 q 422 757 292 757 q 571 698 521 757 q 625 556 621 639 l 629 556 q 718 685 660 631 q 863 753 776 739 l 894 931 l 32 931 l 50 1028 l 1374 1028 l 1356 931 l 1006 931 z "},"ॡ":{"ha":1263,"x_min":39,"x_max":1386,"o":"m 1006 931 l 974 751 q 1099 672 1054 733 q 1143 517 1143 611 q 1136 439 1143 474 q 1090 300 1125 368 l 1039 300 q 940 276 981 300 q 889 197 899 253 q 888 178 888 190 q 920 115 888 135 q 1008 96 953 96 l 1072 96 l 1057 8 l 992 8 q 890 -16 933 8 q 838 -97 847 -40 q 836 -117 836 -104 q 872 -180 836 -160 q 963 -200 907 -200 q 1040 -193 1000 -200 q 1101 -178 1079 -186 l 1086 -265 q 1016 -283 1060 -276 q 931 -290 972 -290 q 780 -253 839 -290 q 721 -142 721 -217 q 767 -16 721 -67 q 876 49 813 35 l 878 53 q 803 93 831 64 q 776 171 776 122 q 779 203 776 181 q 858 325 794 285 q 1001 368 922 365 q 1021 440 1015 404 q 1026 499 1026 467 q 990 613 1026 569 q 883 656 954 656 q 729 586 790 656 q 653 401 668 517 l 649 376 l 550 376 l 554 401 q 560 476 560 436 q 526 608 560 561 q 422 656 493 656 q 272 595 332 656 q 196 438 213 535 q 190 379 190 410 q 238 249 190 296 q 375 201 285 201 q 417 203 400 201 l 399 101 q 350 99 360 99 q 143 169 214 99 q 72 360 72 239 q 79 439 72 393 q 199 672 106 588 q 422 757 292 757 q 571 698 521 757 q 625 556 621 639 l 629 556 q 719 685 661 631 q 863 753 776 739 l 894 931 l 39 931 l 56 1028 l 1386 1028 l 1368 931 l 1006 931 z "},"ए":{"ha":904,"x_min":35,"x_max":1031,"o":"m 1014 931 l 858 931 l 831 769 q 737 556 804 625 q 546 486 669 486 q 493 489 529 486 l 513 593 q 542 592 522 592 q 659 635 618 592 q 718 772 700 678 l 746 931 l 328 931 l 231 376 q 224 310 224 338 q 273 174 224 222 q 414 126 322 126 q 572 183 511 126 q 650 344 632 239 l 764 344 q 645 110 739 193 q 404 26 551 26 q 184 98 260 26 q 108 296 108 169 q 117 381 108 338 l 213 931 l 35 931 l 53 1028 l 1031 1028 l 1014 931 z "},"ऐ":{"ha":904,"x_min":35,"x_max":1031,"o":"m 1014 931 l 858 931 l 831 769 q 737 556 804 625 q 546 486 669 486 q 493 489 529 486 l 513 593 q 542 592 522 592 q 659 635 618 592 q 718 772 700 678 l 746 931 l 328 931 l 231 376 q 224 310 224 338 q 273 174 224 222 q 414 126 322 126 q 572 183 511 126 q 650 344 632 239 l 764 344 q 645 110 739 193 q 404 26 551 26 q 184 98 260 26 q 108 296 108 169 q 117 381 108 338 l 213 931 l 35 931 l 53 1028 l 758 1028 q 669 1190 707 1140 q 592 1253 632 1239 q 478 1268 551 1268 l 419 1268 l 436 1363 l 493 1363 q 649 1342 593 1363 q 756 1252 706 1322 q 868 1028 806 1182 l 1031 1028 l 1014 931 z "},"ओ":{"ha":1556,"x_min":68,"x_max":1682,"o":"m 1275 1028 l 1258 931 l 1075 931 l 911 0 l 796 0 l 876 454 l 656 456 q 665 389 665 425 q 661 340 665 365 q 549 147 639 219 q 332 74 460 74 q 140 136 213 74 q 68 301 68 199 q 74 356 68 317 l 182 356 q 179 321 179 343 q 224 215 179 256 q 342 174 268 174 q 483 223 425 174 q 556 351 542 272 q 560 388 560 371 q 543 456 560 425 l 539 456 l 539 463 q 393 528 499 528 l 338 528 l 356 622 l 410 622 q 551 669 496 622 q 617 778 606 715 q 619 811 619 800 q 579 907 619 872 q 475 942 539 942 q 338 898 397 942 q 267 783 279 854 l 160 783 q 273 970 181 900 q 492 1040 365 1040 q 664 987 600 1040 q 728 842 728 933 q 724 794 728 819 q 656 657 710 714 q 517 579 603 600 l 517 576 q 583 551 556 571 l 893 551 l 978 1028 l 1275 1028 m 1367 931 l 1183 931 l 1201 1028 l 1682 1028 l 1665 931 l 1482 931 l 1319 0 l 1203 0 l 1367 931 m 1461 1022 q 1370 1188 1408 1138 q 1292 1253 1332 1239 q 1176 1268 1251 1268 l 1118 1268 l 1135 1363 l 1192 1363 q 1349 1342 1293 1363 q 1456 1250 1406 1321 q 1571 1022 1506 1179 l 1461 1022 z "},"औ":{"ha":1556,"x_min":68,"x_max":1682,"o":"m 1275 1028 l 1258 931 l 1075 931 l 911 0 l 796 0 l 876 454 l 656 456 q 665 389 665 425 q 661 340 665 365 q 549 147 639 219 q 332 74 460 74 q 140 136 213 74 q 68 301 68 199 q 74 356 68 317 l 182 356 q 179 321 179 343 q 224 215 179 256 q 342 174 268 174 q 483 223 425 174 q 556 351 542 272 q 560 388 560 371 q 543 456 560 425 l 539 456 l 539 463 q 393 528 499 528 l 338 528 l 356 622 l 410 622 q 551 669 496 622 q 617 778 606 715 q 619 811 619 800 q 579 907 619 872 q 475 942 539 942 q 338 898 397 942 q 267 783 279 854 l 160 783 q 273 970 181 900 q 492 1040 365 1040 q 664 987 600 1040 q 728 842 728 933 q 724 794 728 819 q 656 657 710 714 q 517 579 603 600 l 517 576 q 583 551 556 571 l 893 551 l 978 1028 l 1275 1028 m 1367 931 l 1183 931 l 1201 1028 l 1682 1028 l 1665 931 l 1482 931 l 1319 0 l 1203 0 l 1367 931 m 1200 1446 q 1354 1423 1303 1446 q 1453 1314 1406 1400 q 1569 1024 1501 1228 l 1469 1024 q 1356 1117 1397 1090 q 1273 1151 1314 1144 q 1150 1158 1232 1158 l 1092 1158 l 1104 1235 l 1161 1235 q 1282 1229 1242 1235 q 1363 1200 1322 1224 q 1460 1121 1403 1176 q 1378 1290 1417 1238 q 1300 1356 1340 1343 q 1189 1369 1260 1369 l 1129 1369 l 1142 1446 l 1200 1446 z "},"ऍ":{"ha":906,"x_min":1,"x_max":997,"o":"m 536 1164 q 352 1219 413 1164 q 292 1363 292 1275 q 296 1408 292 1386 l 396 1408 q 393 1381 393 1389 q 432 1288 393 1325 q 551 1251 471 1251 q 695 1298 640 1251 q 761 1408 750 1344 l 861 1408 q 759 1234 843 1304 q 536 1164 675 1164 m 981 931 l 825 931 l 797 769 q 703 556 771 625 q 513 486 636 486 q 460 489 496 486 l 479 593 q 508 592 489 592 q 626 635 585 592 q 685 772 667 678 l 713 931 l 294 931 l 197 376 q 190 310 190 338 q 240 174 190 222 q 381 126 289 126 q 538 183 478 126 q 617 344 599 239 l 731 344 q 612 110 706 193 q 371 26 518 26 q 151 98 226 26 q 75 296 75 169 q 83 381 75 338 l 179 931 l 1 931 l 19 1028 l 997 1028 l 981 931 z "},"ॲ":{"ha":1147,"x_min":68,"x_max":1479,"o":"m 1275 1028 l 1258 931 l 1075 931 l 911 0 l 796 0 l 876 454 l 656 456 q 665 389 665 425 q 661 340 665 365 q 549 147 639 219 q 332 74 460 74 q 140 136 213 74 q 68 301 68 199 q 74 356 68 317 l 182 356 q 179 321 179 343 q 224 215 179 256 q 342 174 268 174 q 483 223 425 174 q 556 351 542 272 q 560 388 560 371 q 543 456 560 425 l 539 456 l 539 463 q 393 528 499 528 l 338 528 l 356 622 l 410 622 q 551 669 496 622 q 617 778 606 715 q 619 811 619 800 q 579 907 619 872 q 475 942 539 942 q 338 898 397 942 q 267 783 279 854 l 160 783 q 273 970 181 900 q 492 1040 365 1040 q 664 987 600 1040 q 728 842 728 933 q 724 794 728 819 q 656 657 710 714 q 517 579 603 600 l 517 576 q 583 551 556 571 l 893 551 l 978 1028 l 1275 1028 m 1161 1167 q 974 1223 1038 1167 q 910 1367 910 1279 q 914 1411 910 1389 l 1014 1411 q 1011 1382 1011 1392 q 1050 1291 1011 1328 q 1168 1254 1089 1254 q 1313 1301 1257 1254 q 1378 1411 1368 1347 l 1479 1411 q 1379 1237 1460 1307 q 1161 1167 1299 1167 z "},"ऑ":{"ha":1556,"x_min":68,"x_max":1682,"o":"m 1275 1028 l 1258 931 l 1075 931 l 911 0 l 796 0 l 876 454 l 656 456 q 665 389 665 425 q 661 340 665 365 q 549 147 639 219 q 332 74 460 74 q 140 136 213 74 q 68 301 68 199 q 74 356 68 317 l 182 356 q 179 321 179 343 q 224 215 179 256 q 342 174 268 174 q 483 223 425 174 q 556 351 542 272 q 560 388 560 371 q 543 456 560 425 l 539 456 l 539 463 q 393 528 499 528 l 338 528 l 356 622 l 410 622 q 551 669 496 622 q 617 778 606 715 q 619 811 619 800 q 579 907 619 872 q 475 942 539 942 q 338 898 397 942 q 267 783 279 854 l 160 783 q 273 970 181 900 q 492 1040 365 1040 q 664 987 600 1040 q 728 842 728 933 q 724 794 728 819 q 656 657 710 714 q 517 579 603 600 l 517 576 q 583 551 556 571 l 893 551 l 978 1028 l 1275 1028 m 1367 931 l 1183 931 l 1201 1028 l 1682 1028 l 1665 931 l 1482 931 l 1319 0 l 1203 0 l 1367 931 m 1354 1164 q 1167 1220 1231 1164 q 1103 1364 1103 1276 q 1107 1408 1103 1386 l 1207 1408 q 1204 1379 1204 1389 q 1243 1288 1204 1325 q 1361 1251 1282 1251 q 1506 1298 1450 1251 q 1571 1408 1561 1344 l 1672 1408 q 1572 1234 1653 1304 q 1354 1164 1492 1164 z "},"ा":{"ha":408,"x_min":36,"x_max":535,"o":"m 219 931 l 36 931 l 54 1028 l 535 1028 l 518 931 l 335 931 l 172 0 l 56 0 l 219 931 z "},"ि":{"ha":408,"x_min":36,"x_max":1308,"o":"m 832 1383 q 1073 1350 965 1383 q 1244 1249 1181 1317 q 1308 1081 1308 1181 q 1303 1024 1308 1063 l 1299 1000 l 1182 1000 l 1186 1022 q 1190 1064 1190 1043 q 1078 1233 1190 1179 q 815 1288 967 1288 q 509 1230 642 1288 q 351 1028 376 1172 l 535 1028 l 518 931 l 335 931 l 171 0 l 54 0 l 219 931 l 36 931 l 54 1028 l 236 1028 q 436 1297 269 1210 q 832 1383 603 1383 z "},"ी":{"ha":407,"x_min":-178,"x_max":535,"o":"m 535 1028 l 518 931 l 336 931 l 171 0 l 56 0 l 219 931 l 36 931 l 53 1028 l 240 1028 l 250 1086 q 257 1153 257 1124 q 229 1248 257 1211 q 138 1285 201 1285 q -49 1086 -8 1285 l -64 1001 l -178 1001 l -162 1082 q -60 1301 -137 1218 q 154 1383 18 1383 q 319 1326 268 1383 q 371 1171 371 1269 q 363 1082 371 1128 l 353 1028 l 535 1028 z "},"ु":{"ha":0,"x_min":-711,"x_max":-117,"o":"m -433 -417 q -632 -361 -553 -417 q -711 -194 -711 -306 q -704 -125 -711 -157 l -601 -125 q -608 -181 -608 -157 q -558 -288 -608 -253 q -424 -324 -507 -324 q -287 -285 -342 -324 q -219 -179 -232 -247 q -218 -156 -218 -171 q -246 -81 -218 -110 q -328 -51 -274 -51 l -361 -51 l -344 40 l -311 40 q -169 -11 -221 40 q -117 -143 -117 -62 q -119 -182 -117 -168 q -220 -354 -136 -292 q -433 -417 -304 -417 z "},"ू":{"ha":0,"x_min":-596,"x_max":-6,"o":"m -389 -406 q -535 -358 -475 -406 q -596 -229 -596 -311 q -592 -187 -596 -208 q -494 -23 -574 -82 q -297 36 -415 36 q -83 -43 -160 36 q -6 -254 -6 -122 q -15 -349 -6 -301 l -26 -396 l -122 -396 l -111 -339 q -104 -264 -104 -306 q -158 -108 -104 -165 q -306 -51 -211 -51 q -444 -97 -389 -51 q -500 -217 -500 -143 q -465 -292 -500 -264 q -375 -319 -429 -319 q -332 -317 -362 -319 l -347 -403 q -389 -406 -375 -406 z "},"ृ":{"ha":0,"x_min":-583,"x_max":-218,"o":"m -357 -431 q -467 -407 -415 -431 q -551 -338 -518 -383 q -583 -229 -583 -293 q -579 -183 -583 -208 q -482 -22 -562 -82 q -276 38 -401 38 l -231 38 l -244 -44 l -282 -44 q -418 -91 -367 -44 q -469 -211 -469 -137 q -427 -303 -469 -269 q -324 -337 -385 -337 q -218 -321 -275 -337 l -235 -412 q -357 -431 -292 -431 z "},"ॄ":{"ha":0,"x_min":-606,"x_max":-222,"o":"m -394 -621 q -545 -583 -485 -621 q -606 -469 -606 -544 q -560 -346 -606 -396 q -447 -282 -514 -296 l -447 -278 q -522 -237 -494 -267 q -549 -160 -549 -207 q -546 -128 -549 -150 q -464 -3 -531 -43 q -315 38 -397 38 l -231 38 l -242 -29 l -287 -29 q -385 -53 -344 -29 q -435 -133 -425 -78 q -437 -154 -437 -147 q -404 -215 -437 -196 q -317 -235 -371 -235 l -253 -235 l -267 -322 l -332 -322 q -443 -350 -397 -322 q -489 -442 -489 -378 q -453 -508 -489 -486 q -362 -529 -418 -529 q -222 -508 -292 -529 l -239 -596 q -310 -614 -267 -607 q -394 -621 -354 -621 z "},"ॢ":{"ha":0,"x_min":-732,"x_max":54,"o":"m 7 -364 q -101 -399 -62 -364 q -140 -487 -140 -435 q -111 -549 -140 -528 q -37 -569 -82 -569 q 24 -560 -6 -569 l 10 -636 q -61 -643 -22 -643 q -184 -608 -137 -643 q -231 -508 -231 -574 q -181 -378 -231 -433 q -56 -311 -131 -322 q -44 -264 -50 -294 q -40 -221 -40 -242 q -65 -140 -40 -169 q -140 -110 -90 -110 q -246 -158 -206 -110 q -301 -290 -286 -207 l -306 -307 l -383 -307 l -381 -290 q -374 -229 -374 -253 q -399 -142 -374 -174 q -475 -110 -425 -110 q -580 -152 -539 -110 q -633 -264 -621 -194 q -637 -306 -637 -285 q -604 -397 -637 -364 q -507 -431 -571 -431 q -478 -428 -486 -431 l -493 -508 l -526 -511 q -679 -460 -626 -511 q -732 -321 -732 -408 q -726 -264 -732 -303 q -637 -92 -708 -154 q -472 -29 -567 -29 q -365 -72 -400 -29 q -325 -175 -329 -114 l -322 -175 q -242 -71 -294 -112 q -112 -29 -190 -29 q 10 -76 -35 -29 q 54 -206 54 -122 q 49 -264 54 -236 q 15 -364 40 -319 l 7 -364 z "},"ॣ":{"ha":0,"x_min":-732,"x_max":56,"o":"m -24 -364 q -99 -385 -68 -364 q -129 -450 -129 -406 q -106 -494 -129 -479 q -43 -508 -82 -508 l 1 -508 l -10 -579 l -54 -579 q -168 -653 -154 -579 l -169 -665 q -144 -710 -169 -696 q -78 -725 -118 -725 q -22 -720 -50 -725 q 24 -708 6 -715 l 11 -778 q -41 -790 -10 -785 q -103 -796 -72 -796 q -214 -769 -171 -796 q -257 -687 -257 -743 q -224 -593 -257 -631 q -143 -547 -190 -556 l -143 -544 q -197 -513 -176 -536 q -217 -456 -217 -490 q -214 -432 -217 -449 q -158 -342 -203 -372 q -56 -308 -112 -311 q -44 -264 -50 -294 q -40 -219 -40 -242 q -65 -139 -40 -168 q -140 -110 -90 -110 q -244 -158 -204 -110 q -301 -290 -285 -207 l -306 -307 l -383 -307 l -381 -290 q -374 -229 -374 -253 q -399 -142 -374 -174 q -475 -110 -425 -110 q -580 -152 -539 -110 q -633 -264 -621 -194 q -637 -306 -637 -285 q -604 -397 -637 -364 q -507 -431 -571 -431 q -478 -428 -486 -431 l -492 -508 q -526 -511 -514 -511 q -679 -460 -626 -511 q -732 -321 -732 -408 q -726 -264 -732 -303 q -637 -92 -707 -154 q -472 -29 -567 -29 q -365 -72 -400 -29 q -325 -175 -329 -114 l -321 -175 q -242 -72 -294 -114 q -112 -29 -190 -29 q 10 -76 -35 -29 q 56 -207 56 -124 q 50 -264 56 -222 q 15 -364 39 -321 l -24 -364 z "},"े":{"ha":0,"x_min":-508,"x_max":-56,"o":"m -165 1022 q -256 1188 -218 1138 q -335 1253 -294 1239 q -450 1268 -375 1268 l -508 1268 l -492 1363 l -435 1363 q -277 1342 -333 1363 q -171 1250 -221 1321 q -56 1022 -121 1179 l -165 1022 z "},"ै":{"ha":0,"x_min":-539,"x_max":-61,"o":"m -431 1446 q -276 1423 -328 1446 q -177 1314 -225 1400 q -61 1024 -129 1228 l -161 1024 q -275 1117 -233 1090 q -358 1151 -317 1144 q -481 1158 -399 1158 l -539 1158 l -526 1235 l -469 1235 q -349 1229 -389 1235 q -268 1200 -308 1224 q -171 1121 -228 1176 q -252 1290 -214 1238 q -331 1356 -290 1343 q -442 1369 -371 1369 l -501 1369 l -489 1446 l -431 1446 z "},"ो":{"ha":408,"x_min":-100,"x_max":536,"o":"m 536 1028 l 518 931 l 336 931 l 171 0 l 56 0 l 219 931 l 36 931 l 54 1028 l 239 1028 q 150 1189 188 1139 q 72 1253 113 1239 q -43 1268 31 1268 l -100 1268 l -83 1363 l -28 1363 q 129 1342 74 1363 q 235 1252 185 1322 q 349 1028 285 1182 l 536 1028 z "},"ौ":{"ha":408,"x_min":-167,"x_max":499,"o":"m 499 1028 l 481 931 l 299 931 l 135 0 l 19 0 l 182 931 l -1 931 l 17 1028 l 207 1028 q 95 1118 136 1092 q 14 1151 54 1144 q -108 1158 -26 1158 l -167 1158 l -154 1235 l -97 1235 q 23 1229 -18 1235 q 104 1200 64 1224 q 201 1121 144 1176 q 120 1290 158 1238 q 42 1356 82 1343 q -69 1369 1 1369 l -129 1369 l -117 1446 l -58 1446 q 95 1424 44 1446 q 194 1315 146 1401 q 310 1028 242 1229 l 499 1028 z "},"ॅ":{"ha":0,"x_min":-339,"x_max":231,"o":"m -87 1136 q -275 1192 -211 1136 q -339 1336 -339 1249 q -335 1381 -339 1358 l -235 1381 q -237 1351 -237 1361 q -199 1260 -237 1297 q -81 1224 -160 1224 q 64 1270 8 1224 q 129 1381 119 1317 l 231 1381 q 131 1206 211 1276 q -87 1136 50 1136 z "},"ॉ":{"ha":408,"x_min":36,"x_max":640,"o":"m 322 1136 q 135 1192 199 1136 q 71 1336 71 1249 q 75 1381 71 1358 l 175 1381 q 172 1351 172 1361 q 211 1260 172 1297 q 329 1224 250 1224 q 474 1270 418 1224 q 539 1381 529 1317 l 640 1381 q 540 1206 621 1276 q 322 1136 460 1136 m 219 931 l 36 931 l 54 1028 l 535 1028 l 518 931 l 335 931 l 172 0 l 56 0 l 219 931 z "},"क":{"ha":1381,"x_min":36,"x_max":1508,"o":"m 828 931 l 775 635 q 883 738 817 699 q 1036 776 950 776 q 1213 708 1146 776 q 1281 526 1281 639 q 1274 456 1281 497 q 1206 286 1256 357 q 1085 178 1157 215 q 929 142 1013 142 q 844 151 878 142 l 860 243 q 918 238 882 238 q 1072 297 1004 238 q 1158 458 1140 357 q 1163 503 1163 482 q 1115 629 1163 582 q 990 676 1067 676 q 824 608 888 676 q 743 447 760 540 l 664 0 l 553 0 l 601 278 q 490 174 558 213 q 332 135 421 135 q 150 203 219 135 q 81 389 81 272 q 88 461 81 419 q 155 627 104 556 q 280 738 206 699 q 442 776 354 776 q 588 738 532 776 q 664 635 644 699 l 717 931 l 36 931 l 54 1028 l 1508 1028 l 1490 931 l 828 931 m 381 233 q 544 295 479 235 q 629 436 608 356 l 635 463 q 638 500 638 488 q 593 626 638 575 q 457 676 549 676 q 294 617 367 676 q 204 458 221 557 q 200 408 200 432 q 250 280 200 326 q 381 233 300 233 z "},"ख":{"ha":1296,"x_min":36,"x_max":1424,"o":"m 1424 1028 l 1406 931 l 1224 931 l 1061 0 l 944 0 l 997 303 q 902 219 960 250 q 769 189 844 189 q 718 194 740 189 q 572 51 661 106 q 371 -4 482 -4 q 156 65 233 -4 q 78 260 78 135 q 85 338 78 292 l 124 553 l 172 553 q 407 763 371 553 l 436 931 l 36 931 l 54 1028 l 1424 1028 m 1108 931 l 553 931 l 521 749 q 415 536 494 603 q 224 468 335 469 l 199 326 q 193 275 193 290 q 246 144 193 193 q 393 96 299 96 q 531 134 469 96 q 632 232 593 172 q 567 313 590 263 q 543 426 543 363 q 549 488 543 460 q 608 629 563 568 q 718 724 653 690 q 858 757 783 757 q 988 726 938 757 q 1058 643 1038 696 l 1108 931 m 808 279 q 953 334 896 279 q 1026 463 1010 389 l 1029 482 q 1032 513 1032 501 q 992 622 1032 578 q 871 667 951 667 q 728 616 790 667 q 650 478 665 565 q 646 435 646 456 q 691 320 646 361 q 808 279 736 279 z "},"ग":{"ha":1035,"x_min":36,"x_max":1163,"o":"m 1163 1028 l 1144 931 l 963 931 l 799 0 l 683 0 l 846 931 l 600 931 l 533 554 q 449 378 515 446 q 268 311 382 311 q 119 362 172 311 q 67 496 67 413 q 72 549 67 513 q 82 592 78 576 l 193 592 l 185 547 q 182 511 182 522 q 204 439 182 467 q 276 411 226 411 q 374 451 340 411 q 417 550 407 490 l 483 931 l 36 931 l 54 1028 l 1163 1028 z "},"घ":{"ha":986,"x_min":36,"x_max":1114,"o":"m 1096 931 l 915 931 l 751 0 l 635 0 l 689 306 q 546 189 632 231 q 361 147 460 147 q 165 201 239 147 q 90 353 90 254 q 94 400 90 375 q 173 543 110 488 q 317 611 236 599 l 317 615 q 222 663 257 625 q 188 771 188 701 q 193 825 188 786 l 211 931 l 36 931 l 54 1028 l 1114 1028 l 1096 931 m 799 931 l 328 931 l 310 829 q 306 786 306 807 q 344 693 306 724 q 469 663 383 663 l 535 663 l 518 567 l 444 567 q 270 513 329 567 q 211 378 211 460 q 263 277 211 311 q 403 243 315 243 q 547 275 479 243 q 662 366 615 307 q 722 500 708 425 l 799 931 z "},"ङ":{"ha":918,"x_min":39,"x_max":1044,"o":"m 1044 1028 l 1028 931 l 724 931 l 693 763 l 694 763 l 679 678 l 435 678 q 310 653 363 678 q 246 563 257 628 q 243 539 243 546 q 280 470 243 492 q 374 449 317 449 l 436 449 q 613 401 542 449 q 685 260 685 354 q 679 210 685 246 q 576 43 661 106 q 350 -19 490 -19 q 130 42 210 -19 q 50 207 50 104 q 53 249 50 235 l 168 249 q 165 217 165 226 q 215 110 165 150 q 358 69 264 69 q 514 120 456 69 q 572 246 572 171 q 524 336 572 308 q 401 364 476 364 l 346 364 q 192 404 257 364 q 128 529 128 444 q 131 567 128 553 q 228 716 149 669 q 415 763 308 763 l 582 763 l 611 931 l 39 931 l 56 1028 l 1044 1028 m 836 618 q 881 601 864 618 q 897 558 897 585 q 871 500 897 525 q 811 475 844 475 q 767 491 783 475 q 750 533 750 507 q 776 592 750 567 q 836 618 803 618 z "},"च":{"ha":1021,"x_min":36,"x_max":1147,"o":"m 1131 931 l 947 931 l 783 0 l 668 0 l 718 285 q 591 178 668 217 q 425 139 514 139 q 244 199 315 139 q 174 363 174 258 q 179 417 174 378 q 236 549 193 490 q 344 640 279 607 l 90 640 l 107 733 l 611 733 l 594 640 l 546 640 q 378 583 449 640 q 292 435 308 525 q 289 396 289 421 q 340 278 289 321 q 469 236 390 236 q 599 269 539 236 q 700 358 660 301 q 753 482 740 414 l 832 931 l 36 931 l 54 1028 l 1147 1028 l 1131 931 z "},"छ":{"ha":1132,"x_min":33,"x_max":1258,"o":"m 939 931 l 908 760 q 1024 692 981 746 q 1067 549 1067 638 q 1060 474 1067 518 q 954 242 1036 340 q 746 90 872 143 q 465 38 619 38 q 258 68 349 38 q 115 158 167 99 q 64 297 64 217 q 69 349 64 313 q 150 499 86 442 q 301 572 214 556 l 301 575 q 208 623 243 585 q 172 731 172 661 q 178 785 172 746 l 204 931 l 33 931 l 50 1028 l 1258 1028 l 1242 931 l 939 931 m 831 931 l 321 931 l 294 789 q 290 744 290 767 q 328 652 290 683 q 447 621 365 621 l 479 621 l 463 528 l 433 528 q 297 499 353 528 q 213 422 242 469 q 185 318 185 374 q 265 184 185 231 q 483 138 344 138 q 706 178 606 138 q 873 296 807 219 q 957 478 939 372 q 963 532 963 504 q 927 639 963 601 q 839 676 892 676 q 730 637 781 676 q 665 517 679 597 q 660 457 660 493 q 665 388 660 419 l 568 388 q 563 457 563 432 q 569 528 563 489 q 651 689 588 632 q 800 761 714 746 l 831 931 z "},"ज":{"ha":1167,"x_min":36,"x_max":1294,"o":"m 1276 931 l 1096 931 l 931 0 l 815 0 l 919 593 l 656 593 l 633 463 q 528 259 611 336 q 319 182 444 182 q 152 243 214 182 q 90 406 90 304 q 96 465 90 438 l 136 693 l 253 693 l 213 464 q 208 417 208 439 q 241 319 208 354 q 332 283 274 283 q 455 333 404 283 q 519 464 506 382 l 561 693 l 938 693 l 979 931 l 36 931 l 54 1028 l 1294 1028 l 1276 931 z "},"झ":{"ha":1189,"x_min":39,"x_max":1317,"o":"m 1299 931 l 1117 931 l 951 0 l 839 0 l 903 360 l 638 361 q 683 243 683 315 q 679 200 683 224 q 590 49 661 107 q 404 -10 519 -10 q 257 28 310 -10 q 188 107 204 67 l 150 -107 l 39 -107 l 101 238 l 204 238 q 248 123 201 168 q 388 78 294 78 q 528 126 479 78 q 576 243 576 174 q 533 333 576 301 q 406 364 489 364 q 332 365 356 364 q 187 409 244 368 q 129 529 129 450 q 133 569 129 549 q 231 718 150 672 q 421 764 313 764 l 586 764 l 617 931 l 46 931 l 64 1028 l 1317 1028 l 1299 931 m 1003 931 l 729 931 l 693 731 l 683 678 l 439 678 q 314 653 368 678 q 249 563 260 628 q 246 539 246 546 q 283 470 246 492 q 379 449 319 449 l 440 449 l 918 449 l 1003 931 z "},"ञ":{"ha":1125,"x_min":36,"x_max":1251,"o":"m 1235 931 l 1053 931 l 889 0 l 772 0 l 844 407 l 696 407 q 566 203 661 282 q 336 124 471 124 q 188 156 249 124 q 97 244 126 189 q 71 365 68 300 l 181 365 q 229 265 186 306 q 353 224 272 224 q 519 289 453 224 q 601 453 585 354 q 607 506 607 489 q 563 629 607 581 q 433 678 518 678 q 294 635 353 678 q 210 535 236 593 l 100 535 q 225 708 132 639 q 450 778 318 778 q 651 701 583 778 q 713 506 719 625 l 861 506 l 936 931 l 36 931 l 54 1028 l 1251 1028 l 1235 931 z "},"ट":{"ha":899,"x_min":32,"x_max":1025,"o":"m 526 671 q 306 603 399 671 q 189 410 213 536 q 185 361 185 385 q 247 215 185 271 q 408 160 308 160 q 606 232 524 160 q 707 419 688 304 l 818 419 q 742 231 800 313 q 595 103 685 149 q 394 58 506 58 q 224 94 299 58 q 109 196 150 131 q 68 347 68 261 q 74 414 68 385 q 230 678 104 586 q 538 769 356 769 l 571 769 l 600 931 l 32 931 l 49 1028 l 1025 1028 l 1008 931 l 714 931 l 667 671 l 526 671 z "},"ठ":{"ha":933,"x_min":31,"x_max":1061,"o":"m 593 931 l 563 760 q 751 667 679 743 q 824 474 824 590 q 818 407 824 439 q 738 226 800 304 q 585 107 676 149 q 389 65 493 65 q 224 101 297 65 q 110 204 151 138 q 69 357 69 271 q 75 422 69 393 q 203 655 100 565 q 449 761 307 744 l 479 931 l 31 931 l 49 1028 l 1061 1028 l 1043 931 l 593 931 m 703 411 q 707 463 707 439 q 648 609 707 553 q 490 665 589 665 q 354 634 418 665 q 247 547 290 603 q 190 418 203 490 q 186 368 186 393 q 245 221 186 278 q 401 164 304 164 q 538 195 474 164 q 647 283 603 226 q 703 411 690 339 z "},"ड":{"ha":800,"x_min":39,"x_max":926,"o":"m 435 678 q 310 653 363 678 q 246 563 257 628 q 243 539 243 546 q 280 470 243 492 q 374 449 317 449 l 436 449 q 613 401 542 449 q 685 260 685 354 q 679 210 685 246 q 576 43 661 106 q 350 -19 490 -19 q 130 42 210 -19 q 50 207 50 104 q 53 249 50 235 l 168 249 q 165 217 165 226 q 215 110 165 150 q 358 69 264 69 q 514 120 456 69 q 572 246 572 171 q 524 336 572 308 q 401 364 476 364 l 346 364 q 192 404 257 364 q 128 529 128 444 q 131 567 128 553 q 228 716 149 669 q 415 763 308 763 l 574 763 l 604 931 l 39 931 l 56 1028 l 926 1028 l 910 931 l 717 931 l 672 678 l 435 678 z "},"ढ":{"ha":889,"x_min":35,"x_max":1017,"o":"m 569 692 q 319 614 425 692 q 188 390 213 536 q 182 331 182 363 q 251 161 182 225 q 443 97 321 97 q 619 149 544 97 q 707 282 693 200 q 710 311 710 301 q 678 394 710 363 q 594 425 646 425 q 498 392 539 425 q 447 304 457 360 q 444 276 444 288 l 360 276 q 363 318 360 293 q 447 459 378 408 q 614 510 515 510 q 756 458 701 510 q 811 324 811 407 q 807 279 811 303 q 683 85 785 158 q 431 11 582 11 q 243 51 325 11 q 115 162 161 90 q 69 328 69 233 q 76 399 69 357 q 166 607 97 522 q 334 733 235 692 q 551 775 433 775 l 607 775 l 635 931 l 35 931 l 53 1028 l 1017 1028 l 999 931 l 743 931 l 701 692 l 569 692 z "},"ण":{"ha":1189,"x_min":36,"x_max":1315,"o":"m 1299 931 l 1115 931 l 953 0 l 836 0 l 1000 931 l 729 931 l 658 532 q 558 331 636 407 q 357 254 479 254 q 187 314 250 254 q 124 474 124 374 q 129 532 124 504 l 200 931 l 36 931 l 54 1028 l 1315 1028 l 1299 931 m 615 931 l 314 931 l 242 522 q 238 481 238 501 q 271 388 238 422 q 363 353 304 353 q 482 399 433 353 q 543 522 531 446 l 615 931 z "},"त":{"ha":964,"x_min":36,"x_max":1090,"o":"m 1074 931 l 892 931 l 726 0 l 611 0 l 715 592 l 513 592 q 292 529 379 592 q 183 344 206 467 q 178 286 178 303 q 235 144 178 194 q 400 94 292 94 l 429 94 l 414 3 l 378 3 q 147 74 235 3 q 60 276 60 144 q 67 349 60 307 q 219 607 97 522 q 524 692 342 692 l 733 692 l 775 931 l 36 931 l 54 1028 l 1090 1028 l 1074 931 z "},"थ":{"ha":1063,"x_min":100,"x_max":1190,"o":"m 1190 1028 l 1174 931 l 990 931 l 826 0 l 710 0 l 767 318 q 635 192 726 246 q 429 138 544 138 q 188 217 276 138 q 100 435 100 297 q 108 517 100 474 q 126 589 117 558 l 263 589 q 583 786 547 589 q 586 819 586 808 q 553 907 586 874 q 461 940 521 940 q 322 878 372 940 q 274 719 272 815 l 168 719 q 208 883 169 810 q 315 998 246 956 q 478 1040 385 1040 q 638 985 579 1040 q 697 838 697 929 q 692 783 697 810 q 559 574 668 644 q 289 504 450 504 l 219 504 q 214 443 214 476 q 278 291 214 347 q 460 235 342 235 q 613 271 540 235 q 737 373 686 307 q 803 526 788 439 l 890 1028 l 1190 1028 z "},"द":{"ha":849,"x_min":38,"x_max":975,"o":"m 508 678 q 310 619 394 678 q 207 451 226 561 q 203 404 203 426 q 252 278 203 325 q 386 231 301 231 q 483 251 435 231 q 568 315 532 272 q 615 419 604 357 l 722 419 l 644 -22 l 532 -22 l 579 246 q 478 167 542 196 q 340 138 414 138 q 154 206 225 138 q 83 392 83 274 q 89 460 83 428 q 234 698 117 618 q 514 778 351 778 l 615 778 l 642 931 l 38 931 l 56 1028 l 975 1028 l 957 931 l 758 931 l 714 678 l 508 678 z "},"ध":{"ha":992,"x_min":93,"x_max":1119,"o":"m 1103 931 l 922 931 l 758 0 l 642 0 l 696 304 q 551 181 640 225 q 356 136 463 136 q 167 190 240 136 q 93 338 93 243 q 97 381 93 358 q 172 517 113 467 q 303 579 232 568 l 303 583 q 200 644 240 599 q 160 764 160 690 q 165 814 160 778 q 256 978 182 915 q 436 1040 331 1040 q 583 992 531 1040 q 636 861 636 944 q 624 774 636 822 l 535 774 q 543 832 543 806 q 513 913 543 883 q 426 942 483 942 q 308 888 356 942 q 260 761 260 835 q 304 666 260 700 q 431 632 349 632 l 524 632 l 507 536 l 433 536 q 272 488 331 536 q 214 364 214 440 q 265 267 214 301 q 399 232 317 232 q 544 265 475 232 q 661 356 613 297 q 728 489 710 414 l 810 951 l 822 1028 l 1119 1028 l 1103 931 z "},"न":{"ha":1097,"x_min":36,"x_max":1224,"o":"m 1207 931 l 1024 931 l 860 0 l 744 0 l 851 603 l 579 603 q 626 467 626 549 q 622 418 626 443 q 564 283 608 340 q 453 194 519 225 q 314 163 388 163 q 136 224 204 163 q 68 386 68 286 q 72 436 68 411 q 187 631 94 561 q 411 700 279 700 l 868 700 l 908 931 l 36 931 l 54 1028 l 1224 1028 l 1207 931 m 533 467 q 494 565 533 528 q 388 603 454 603 q 281 576 329 603 q 205 501 233 549 q 176 396 176 454 q 217 298 176 335 q 326 261 257 261 q 430 289 382 261 q 506 364 478 317 q 533 467 533 411 z "},"प":{"ha":910,"x_min":36,"x_max":1036,"o":"m 1019 931 l 838 931 l 674 0 l 558 0 l 626 389 q 522 304 583 335 q 382 274 460 274 q 193 343 260 274 q 126 533 126 413 q 135 618 126 572 l 190 931 l 36 931 l 54 1028 l 1036 1028 l 1019 931 m 721 931 l 307 931 l 251 618 q 244 550 244 576 q 289 419 244 465 q 421 372 333 372 q 579 433 515 372 q 660 583 643 493 l 721 931 z "},"फ":{"ha":1368,"x_min":36,"x_max":1496,"o":"m 811 931 l 758 632 q 870 737 801 697 q 1029 776 939 776 q 1205 710 1139 776 q 1271 532 1271 643 q 1264 464 1271 503 q 1196 291 1246 364 q 1073 180 1146 218 q 917 142 1000 142 q 829 153 867 142 l 844 243 q 906 236 875 236 q 1061 296 994 236 q 1146 458 1128 356 q 1150 504 1150 483 q 1103 630 1150 583 q 979 676 1056 676 q 808 606 874 676 q 725 438 742 535 l 725 439 l 647 0 l 532 0 l 600 388 q 499 303 558 333 q 367 274 439 274 q 188 339 250 274 q 126 521 126 404 q 135 613 126 563 l 190 931 l 36 931 l 54 1028 l 1496 1028 l 1478 931 l 811 931 m 696 931 l 307 931 l 251 613 q 243 536 243 571 q 284 415 243 458 q 407 372 325 372 q 559 433 499 372 q 635 586 619 494 l 696 931 z "},"ब":{"ha":957,"x_min":36,"x_max":1083,"o":"m 1083 1028 l 1067 931 l 883 931 l 721 0 l 608 0 l 657 275 q 538 167 613 208 q 368 126 463 126 q 222 160 286 126 q 120 255 157 193 q 83 397 83 317 q 89 463 83 433 q 161 636 106 563 q 299 750 217 710 q 476 790 381 790 q 634 749 571 790 q 722 640 697 707 l 772 931 l 36 931 l 54 1028 l 1083 1028 m 696 460 q 700 507 700 483 q 646 652 700 593 q 488 711 592 711 q 303 649 385 711 l 626 314 q 696 460 682 381 m 190 458 q 186 408 186 432 q 247 264 186 317 q 403 211 307 211 q 585 274 506 211 l 261 608 q 190 458 204 544 z "},"भ":{"ha":1103,"x_min":78,"x_max":1231,"o":"m 1231 1028 l 1214 931 l 1031 931 l 865 0 l 750 0 l 844 535 l 617 535 l 597 428 q 496 215 574 289 q 299 140 418 140 q 138 194 197 140 q 78 338 78 247 q 82 386 78 361 q 189 566 103 501 q 394 631 275 631 l 525 631 l 547 761 q 553 824 553 790 q 451 940 553 940 q 353 901 394 940 q 299 794 311 863 q 296 742 294 767 l 179 742 q 183 799 179 772 q 277 974 203 908 q 463 1040 351 1040 q 613 986 564 1040 q 663 835 663 932 q 653 743 663 799 l 633 631 l 861 631 l 931 1028 l 1231 1028 m 507 535 l 381 535 q 256 494 308 535 q 190 386 203 454 q 188 354 188 364 q 222 270 188 301 q 313 239 256 239 q 426 287 381 239 q 488 421 472 335 l 507 535 z "},"म":{"ha":1092,"x_min":36,"x_max":1219,"o":"m 1201 931 l 1018 931 l 856 0 l 739 0 l 833 535 l 579 535 l 560 428 q 458 215 536 289 q 260 140 381 140 q 99 193 158 140 q 40 336 40 246 q 44 386 40 361 q 151 565 64 500 q 356 631 238 631 l 488 631 l 540 931 l 36 931 l 54 1028 l 1219 1028 l 1201 931 m 903 931 l 649 931 l 596 631 l 850 631 l 903 931 m 469 535 l 342 535 q 217 494 269 535 q 153 386 165 454 q 150 356 150 364 q 184 271 150 303 q 274 239 218 239 q 388 287 342 239 q 450 421 435 335 l 469 535 z "},"य":{"ha":1024,"x_min":36,"x_max":1151,"o":"m 1133 931 l 951 931 l 788 0 l 672 0 l 725 301 q 595 194 675 235 q 413 154 515 154 q 178 236 264 154 q 93 457 93 318 q 101 546 93 500 q 117 611 107 572 l 138 611 q 331 663 258 611 q 425 835 403 715 l 442 931 l 36 931 l 54 1028 l 1151 1028 l 1133 931 m 836 931 l 556 931 l 536 817 q 215 546 490 557 l 214 536 q 207 469 207 497 q 270 310 207 368 q 446 253 333 253 q 591 286 524 253 q 704 379 658 319 q 763 517 750 439 l 763 515 l 836 931 z "},"र":{"ha":744,"x_min":38,"x_max":872,"o":"m 854 931 l 689 931 l 667 799 q 544 556 638 640 q 293 471 451 471 l 222 471 l 190 281 q 185 226 185 254 q 219 125 185 163 q 321 88 254 88 q 441 136 393 88 q 503 267 489 185 l 507 293 l 619 293 l 615 269 q 515 63 594 139 q 313 -12 436 -12 q 132 50 196 -12 q 68 217 68 113 q 75 286 68 247 l 124 565 l 271 565 q 550 799 508 565 l 574 931 l 38 931 l 56 1028 l 872 1028 l 854 931 z "},"ल":{"ha":1247,"x_min":28,"x_max":1375,"o":"m 1015 931 l 982 744 q 1101 662 1058 725 q 1143 506 1143 599 q 1136 429 1143 474 q 1010 188 1110 279 q 754 96 911 96 l 699 99 l 717 200 q 757 197 742 197 q 931 263 861 197 q 1019 435 1000 328 q 1025 490 1025 474 q 988 607 1025 563 q 878 651 950 651 q 727 583 786 651 q 647 397 668 514 l 644 376 l 546 376 l 550 397 q 558 481 558 442 q 522 606 558 560 q 414 651 486 651 q 267 592 325 651 q 192 435 210 532 q 186 378 186 396 q 233 246 186 294 q 372 197 281 197 q 411 200 383 197 l 393 99 q 351 96 360 96 q 142 169 215 96 q 69 361 69 242 q 76 440 69 406 q 193 672 103 589 q 413 754 283 754 q 567 695 515 754 q 624 553 618 636 l 628 553 q 720 685 660 629 q 869 751 781 740 l 901 931 l 28 931 l 46 1028 l 1375 1028 l 1357 931 l 1015 931 z "},"व":{"ha":936,"x_min":36,"x_max":1064,"o":"m 1064 1028 l 1046 931 l 864 931 l 700 0 l 588 0 l 636 276 q 517 171 589 210 q 354 132 446 132 q 157 201 231 132 q 83 392 83 271 q 90 469 83 435 q 158 635 107 564 q 287 744 210 706 q 454 782 364 782 q 610 744 549 782 q 700 642 671 706 l 750 931 l 36 931 l 54 1028 l 1064 1028 m 393 226 q 529 260 471 226 q 622 347 588 294 q 667 456 656 400 q 671 501 671 479 q 622 634 671 581 q 474 688 574 688 q 297 625 374 688 q 201 460 219 563 q 197 411 197 435 q 251 276 197 325 q 393 226 304 226 z "},"श":{"ha":1131,"x_min":79,"x_max":1258,"o":"m 508 1040 q 690 978 621 1040 q 758 807 758 915 q 753 744 758 774 q 617 521 726 597 q 354 444 507 444 l 229 444 l 203 292 q 197 235 197 265 q 233 128 197 167 q 343 89 269 89 q 476 144 422 89 q 544 293 529 199 l 658 293 q 556 72 639 154 q 336 -11 474 -11 q 147 53 214 -11 q 79 226 79 117 q 86 299 79 257 l 129 543 l 333 543 q 533 597 449 543 q 638 754 618 650 q 642 794 642 775 q 602 900 642 861 q 497 939 563 939 q 345 869 403 939 q 288 694 288 799 l 172 694 q 219 876 175 797 q 338 997 263 954 q 508 1040 413 1040 m 1258 1028 l 1240 931 l 1058 931 l 894 0 l 776 0 l 958 1028 l 1258 1028 z "},"ष":{"ha":919,"x_min":36,"x_max":1046,"o":"m 1029 931 l 846 931 l 682 0 l 568 0 l 636 386 q 529 298 593 329 q 385 267 465 267 q 195 339 264 267 q 126 533 126 411 q 135 618 126 575 l 190 931 l 36 931 l 54 1028 l 1046 1028 l 1029 931 m 732 931 l 304 931 l 671 585 l 671 588 l 732 931 m 422 365 q 554 403 497 365 q 643 504 611 440 l 288 840 l 247 615 q 242 550 242 583 q 289 415 242 464 q 422 365 336 365 z "},"स":{"ha":1139,"x_min":36,"x_max":1265,"o":"m 1247 931 l 1065 931 l 901 0 l 786 0 l 871 486 l 225 486 l 189 282 q 185 231 185 256 q 219 126 185 164 q 324 88 254 88 q 449 141 401 88 q 510 283 497 194 l 622 283 q 524 69 606 150 q 313 -12 443 -12 q 134 52 197 -12 q 71 225 71 117 q 76 293 71 261 l 125 571 l 254 571 q 442 633 371 571 q 532 804 513 696 l 554 931 l 36 931 l 54 1028 l 1265 1028 l 1247 931 m 950 931 l 669 931 l 647 804 q 522 581 622 661 l 888 581 l 950 931 z "},"ह":{"ha":826,"x_min":50,"x_max":954,"o":"m 954 1028 l 938 931 l 740 931 l 713 768 l 697 683 l 442 683 q 331 657 378 683 q 275 572 285 631 q 272 550 272 556 q 293 492 272 515 q 351 457 314 469 q 429 464 393 464 q 581 430 519 464 q 670 344 642 396 q 697 235 699 292 l 586 235 q 538 329 582 288 q 413 371 494 371 q 251 310 318 371 q 168 161 185 249 q 164 115 164 139 q 209 -3 164 42 q 339 -47 254 -47 q 476 -8 418 -47 q 560 85 535 32 l 671 85 q 605 -28 651 24 q 488 -112 558 -81 q 331 -144 417 -144 q 125 -74 199 -144 q 51 108 51 -4 q 57 168 51 140 q 123 321 72 254 q 250 425 174 388 q 185 478 210 444 q 161 560 161 513 q 164 593 161 571 q 249 724 179 679 q 421 768 318 768 l 601 768 l 629 931 l 50 931 l 67 1028 l 954 1028 z "},"ळ":{"ha":1375,"x_min":25,"x_max":1501,"o":"m 1111 931 l 1079 754 q 1218 670 1167 735 q 1269 510 1269 606 q 1264 444 1269 474 q 1196 282 1249 353 q 1066 172 1143 211 q 901 132 989 132 q 730 187 797 132 q 650 326 663 242 l 646 326 q 521 186 604 240 q 333 132 438 132 q 142 201 215 132 q 68 382 68 269 q 74 444 68 415 q 143 611 90 539 q 273 723 196 683 q 438 763 350 763 q 606 710 542 763 q 689 571 669 658 l 693 571 q 807 701 738 650 q 968 761 876 751 l 999 931 l 25 931 l 43 1028 l 1501 1028 l 1483 931 l 1111 931 m 611 444 q 615 490 615 469 q 567 615 615 568 q 438 663 519 663 q 274 602 344 663 q 186 443 204 542 q 182 401 182 421 q 231 278 182 325 q 363 232 281 232 q 525 291 456 232 q 611 444 594 350 m 1151 443 q 1156 489 1156 467 q 1107 615 1156 568 q 976 663 1058 663 q 812 601 881 663 q 726 444 743 540 q 722 400 722 422 q 769 278 722 324 q 900 232 817 232 q 1064 291 993 232 q 1151 443 1135 350 z "},"क़":{"ha":1381,"x_min":36,"x_max":1508,"o":"m 828 931 l 775 635 q 883 738 817 699 q 1036 776 950 776 q 1213 708 1146 776 q 1281 526 1281 639 q 1274 456 1281 497 q 1206 286 1256 357 q 1085 178 1157 215 q 929 142 1013 142 q 844 151 878 142 l 860 243 q 918 238 882 238 q 1072 297 1004 238 q 1158 458 1140 357 q 1163 503 1163 482 q 1115 629 1163 582 q 990 676 1067 676 q 824 608 888 676 q 743 447 760 540 l 664 0 l 553 0 l 601 278 q 490 174 558 213 q 332 135 421 135 q 150 203 219 135 q 81 389 81 272 q 88 461 81 419 q 155 627 104 556 q 280 738 206 699 q 442 776 354 776 q 588 738 532 776 q 664 635 644 699 l 717 931 l 36 931 l 54 1028 l 1508 1028 l 1490 931 l 828 931 m 381 233 q 544 295 479 235 q 629 436 608 356 l 635 463 q 638 500 638 488 q 593 626 638 575 q 457 676 549 676 q 294 617 367 676 q 204 458 221 557 q 200 408 200 432 q 250 280 200 326 q 381 233 300 233 m 260 -131 q 213 -112 231 -131 q 194 -67 194 -94 q 222 -2 194 -29 q 288 25 250 25 q 335 6 317 25 q 353 -40 353 -12 q 325 -104 353 -78 q 260 -131 297 -131 z "},"ख़":{"ha":1296,"x_min":36,"x_max":1424,"o":"m 1424 1028 l 1406 931 l 1224 931 l 1061 0 l 944 0 l 997 303 q 902 219 960 250 q 769 189 844 189 q 718 194 740 189 q 572 51 661 106 q 371 -4 482 -4 q 156 65 233 -4 q 78 260 78 135 q 85 338 78 292 l 124 553 l 172 553 q 407 763 371 553 l 436 931 l 36 931 l 54 1028 l 1424 1028 m 1108 931 l 553 931 l 521 749 q 415 536 494 603 q 224 468 335 469 l 199 326 q 193 275 193 290 q 246 144 193 193 q 393 96 299 96 q 531 134 469 96 q 632 232 593 172 q 567 313 590 263 q 543 426 543 363 q 549 488 543 460 q 608 629 563 568 q 718 724 653 690 q 858 757 783 757 q 988 726 938 757 q 1058 643 1038 696 l 1108 931 m 808 279 q 953 334 896 279 q 1026 463 1010 389 l 1029 482 q 1032 513 1032 501 q 992 622 1032 578 q 871 667 951 667 q 728 616 790 667 q 650 478 665 565 q 646 435 646 456 q 691 320 646 361 q 808 279 736 279 m 300 -268 q 253 -250 271 -268 q 235 -204 235 -232 q 263 -140 235 -167 q 328 -112 290 -112 q 375 -131 357 -112 q 393 -178 393 -150 q 365 -242 393 -215 q 300 -268 338 -268 z "},"ग़":{"ha":1035,"x_min":36,"x_max":1163,"o":"m 1163 1028 l 1144 931 l 963 931 l 799 0 l 683 0 l 846 931 l 600 931 l 533 554 q 449 378 515 446 q 268 311 382 311 q 119 362 172 311 q 67 496 67 413 q 72 549 67 513 q 82 592 78 576 l 193 592 l 185 547 q 182 511 182 522 q 204 439 182 467 q 276 411 226 411 q 374 451 340 411 q 417 550 407 490 l 483 931 l 36 931 l 54 1028 l 1163 1028 m 221 39 q 174 57 192 39 q 156 103 156 75 q 183 167 156 140 q 249 194 211 194 q 296 176 278 194 q 314 129 314 157 q 286 65 314 92 q 221 39 258 39 z "},"ज़":{"ha":1167,"x_min":36,"x_max":1294,"o":"m 1276 931 l 1096 931 l 931 0 l 815 0 l 919 593 l 656 593 l 633 463 q 528 259 611 336 q 319 182 444 182 q 152 243 214 182 q 90 406 90 304 q 96 465 90 438 l 136 693 l 253 693 l 213 464 q 208 417 208 439 q 241 319 208 354 q 332 283 274 283 q 455 333 404 283 q 519 464 506 382 l 561 693 l 938 693 l 979 931 l 36 931 l 54 1028 l 1294 1028 l 1276 931 m 272 -83 q 225 -65 243 -83 q 207 -19 207 -47 q 235 45 207 18 q 300 72 263 72 q 347 53 329 72 q 365 7 365 35 q 338 -57 365 -31 q 272 -83 310 -83 z "},"ड़":{"ha":800,"x_min":39,"x_max":926,"o":"m 435 678 q 310 653 363 678 q 246 563 257 628 q 243 539 243 546 q 280 470 243 492 q 374 449 317 449 l 436 449 q 613 401 542 449 q 685 260 685 354 q 679 210 685 246 q 576 43 661 106 q 350 -19 490 -19 q 130 42 210 -19 q 50 207 50 104 q 53 249 50 235 l 168 249 q 165 217 165 226 q 215 110 165 150 q 358 69 264 69 q 514 120 456 69 q 572 246 572 171 q 524 336 572 308 q 401 364 476 364 l 346 364 q 192 404 257 364 q 128 529 128 444 q 131 567 128 553 q 228 716 149 669 q 415 763 308 763 l 574 763 l 604 931 l 39 931 l 56 1028 l 926 1028 l 910 931 l 717 931 l 672 678 l 435 678 m 292 -285 q 244 -267 263 -285 q 226 -221 226 -249 q 254 -156 226 -183 q 319 -129 282 -129 q 367 -148 349 -129 q 385 -194 385 -167 q 357 -258 385 -232 q 292 -285 329 -285 z "},"ढ़":{"ha":889,"x_min":35,"x_max":1017,"o":"m 569 692 q 319 614 425 692 q 188 390 213 536 q 182 331 182 363 q 251 161 182 225 q 443 97 321 97 q 619 149 544 97 q 707 282 693 200 q 710 311 710 301 q 678 394 710 363 q 594 425 646 425 q 498 392 539 425 q 447 304 457 360 q 444 276 444 288 l 360 276 q 363 318 360 293 q 447 459 378 408 q 614 510 515 510 q 756 458 701 510 q 811 324 811 407 q 807 279 811 303 q 683 85 785 158 q 431 11 582 11 q 243 51 325 11 q 115 162 161 90 q 69 328 69 233 q 76 399 69 357 q 166 607 97 522 q 334 733 235 692 q 551 775 433 775 l 607 775 l 635 931 l 35 931 l 53 1028 l 1017 1028 l 999 931 l 743 931 l 701 692 l 569 692 m 344 -254 q 297 -236 315 -254 q 279 -190 279 -218 q 307 -126 279 -153 q 372 -99 335 -99 q 419 -117 401 -99 q 438 -164 438 -136 q 410 -228 438 -201 q 344 -254 382 -254 z "},"फ़":{"ha":1368,"x_min":36,"x_max":1496,"o":"m 811 931 l 758 632 q 870 737 801 697 q 1029 776 939 776 q 1205 710 1139 776 q 1271 532 1271 643 q 1264 464 1271 503 q 1196 291 1246 364 q 1073 180 1146 218 q 917 142 1000 142 q 829 153 867 142 l 844 243 q 906 236 875 236 q 1061 296 994 236 q 1146 458 1128 356 q 1150 504 1150 483 q 1103 630 1150 583 q 979 676 1056 676 q 808 606 874 676 q 725 438 742 535 l 725 439 l 647 0 l 532 0 l 600 388 q 499 303 558 333 q 367 274 439 274 q 188 339 250 274 q 126 521 126 404 q 135 613 126 563 l 190 931 l 36 931 l 54 1028 l 1496 1028 l 1478 931 l 811 931 m 696 931 l 307 931 l 251 613 q 243 536 243 571 q 284 415 243 458 q 407 372 325 372 q 559 433 499 372 q 635 586 619 494 l 696 931 m 272 11 q 225 29 243 11 q 207 75 207 47 q 235 140 207 113 q 300 167 263 167 q 347 148 329 167 q 365 101 365 129 q 338 38 365 64 q 272 11 310 11 z "},"ऱ":{"ha":744,"x_min":-26,"x_max":872,"o":"m 854 931 l 689 931 l 667 799 q 544 556 638 640 q 293 471 451 471 l 222 471 l 190 281 q 185 226 185 254 q 219 125 185 163 q 321 88 254 88 q 441 136 393 88 q 503 267 489 185 l 507 293 l 619 293 l 615 269 q 515 63 594 139 q 313 -12 436 -12 q 132 50 196 -12 q 68 217 68 113 q 75 286 68 247 l 124 565 l 271 565 q 550 799 508 565 l 574 931 l 38 931 l 56 1028 l 872 1028 l 854 931 m 39 -222 q -8 -204 10 -222 q -26 -158 -26 -186 q 1 -94 -26 -121 q 67 -67 29 -67 q 114 -85 96 -67 q 132 -132 132 -104 q 104 -196 132 -169 q 39 -222 76 -222 z "},"ं":{"ha":0,"x_min":-157,"x_max":3,"o":"m -90 1160 q -139 1178 -121 1160 q -157 1225 -157 1197 q -129 1288 -157 1261 q -65 1315 -101 1315 q -16 1297 -35 1315 q 3 1250 3 1279 q -26 1187 3 1214 q -90 1160 -54 1160 z "},"ँ":{"ha":0,"x_min":-339,"x_max":231,"o":"m -56 1364 q -91 1377 -78 1364 q -104 1410 -104 1390 q -83 1459 -104 1439 q -35 1479 -62 1479 q 1 1466 -12 1479 q 14 1433 14 1453 q -7 1385 14 1406 q -56 1364 -28 1364 m -87 1136 q -272 1193 -206 1136 q -339 1338 -339 1250 q -335 1381 -339 1360 l -242 1381 q -243 1356 -243 1372 q -202 1260 -243 1299 q -81 1221 -161 1221 q 67 1269 8 1221 q 135 1381 125 1317 l 231 1381 q 129 1206 211 1275 q -87 1136 47 1136 z "},"ः":{"ha":322,"x_min":44,"x_max":278,"o":"m 186 606 q 138 624 157 606 q 119 669 119 642 q 147 733 119 706 q 213 761 175 761 q 260 742 242 761 q 278 696 278 724 q 250 633 278 660 q 186 606 222 606 m 111 185 q 63 203 81 185 q 44 249 44 221 q 72 313 44 286 q 138 339 100 339 q 184 321 165 339 q 203 276 203 303 q 175 212 203 239 q 111 185 147 185 z "},"ऽ":{"ha":800,"x_min":31,"x_max":753,"o":"m 47 183 l 381 183 q 472 214 439 183 q 504 289 504 244 q 475 368 504 329 q 385 467 446 407 q 268 599 308 542 q 228 728 228 657 q 232 767 228 746 q 313 893 247 853 q 471 933 378 933 l 753 933 l 736 835 l 482 835 q 386 812 426 835 q 346 732 346 789 q 376 649 346 689 q 467 550 406 610 q 548 464 518 499 q 599 385 578 429 q 621 293 621 342 q 594 189 621 236 q 515 114 567 142 q 390 86 463 86 l 31 86 l 47 183 z "},"्":{"ha":0,"x_min":-361,"x_max":-122,"o":"m -361 -85 l -246 -85 l -122 -361 l -242 -361 l -361 -85 z "},"़":{"ha":0,"x_min":-578,"x_max":-419,"o":"m -512 -206 q -560 -187 -542 -206 q -578 -142 -578 -169 q -550 -77 -578 -104 q -485 -50 -522 -50 q -437 -69 -456 -50 q -419 -115 -419 -87 q -447 -179 -419 -153 q -512 -206 -475 -206 z "},"०":{"ha":826,"x_min":60,"x_max":793,"o":"m 79 496 q 60 306 60 390 q 125 76 60 157 q 339 -4 190 -4 q 632 128 531 -4 q 775 496 733 260 q 793 683 793 604 q 728 912 793 831 q 514 993 663 993 q 222 862 322 993 q 79 496 121 731 m 650 496 q 598 294 629 375 q 509 164 567 213 q 361 115 451 115 q 225 168 265 115 q 185 319 185 221 q 204 496 185 385 q 256 696 225 615 q 345 824 288 776 q 493 872 403 872 q 629 820 589 872 q 669 669 669 768 q 650 496 669 608 z "},"१":{"ha":399,"x_min":79,"x_max":385,"o":"m 85 861 l 104 979 l 385 979 l 213 0 l 79 0 l 232 861 l 85 861 z "},"२":{"ha":778,"x_min":-24,"x_max":756,"o":"m -8 97 q 427 407 258 256 q 618 686 596 558 q 624 742 624 713 q 585 848 624 808 q 464 888 547 888 q 308 828 368 888 q 228 656 247 768 l 104 656 q 239 910 135 824 q 486 996 343 996 q 684 935 613 996 q 756 763 756 875 q 749 692 756 733 q 639 475 731 585 q 422 272 547 365 q 169 110 297 178 l 667 110 l 649 6 l -24 6 l -8 97 z "},"३":{"ha":775,"x_min":22,"x_max":763,"o":"m 500 1006 q 694 945 626 1006 q 763 786 763 885 q 758 735 763 763 q 678 590 743 649 q 508 519 614 532 l 507 511 q 644 433 593 488 q 696 289 696 379 q 690 232 696 274 q 585 57 672 124 q 354 -10 499 -10 q 107 69 192 -10 q 29 299 22 149 l 154 299 q 201 153 150 207 q 363 99 251 99 q 502 140 449 99 q 567 249 556 182 q 571 292 571 272 q 508 416 571 374 q 326 458 444 458 l 293 458 l 311 564 l 344 564 q 632 726 601 564 q 635 763 635 739 q 594 863 635 826 q 478 899 553 899 q 328 851 396 899 q 242 710 261 803 l 117 710 q 247 927 144 849 q 500 1006 349 1006 z "},"४":{"ha":829,"x_min":-4,"x_max":800,"o":"m -4 225 l 15 331 l 633 986 l 768 986 l 654 335 l 800 335 l 779 225 l 635 225 l 596 0 l 467 0 l 506 225 l -4 225 m 622 832 l 149 335 l 535 335 l 622 832 z "},"५":{"ha":826,"x_min":56,"x_max":811,"o":"m 792 879 l 289 879 l 231 551 q 345 626 275 599 q 493 654 415 654 q 688 583 624 654 q 751 397 751 511 q 744 318 751 363 q 622 83 719 174 q 365 -7 524 -7 q 138 64 219 -7 q 56 257 56 135 q 57 288 56 276 l 182 288 q 234 153 182 201 q 378 106 286 106 q 542 165 481 106 q 621 321 604 224 q 626 379 626 349 q 580 507 626 461 q 446 553 533 553 q 316 521 379 553 q 217 438 253 489 l 94 438 l 192 992 l 811 992 l 792 879 z "},"६":{"ha":833,"x_min":67,"x_max":793,"o":"m 671 718 q 501 901 664 901 q 304 798 379 901 q 197 468 229 694 q 315 601 232 551 q 500 650 399 650 q 694 585 626 650 q 763 400 763 519 q 754 314 763 360 q 632 82 729 174 q 376 -10 535 -10 q 138 76 210 -10 q 67 313 67 161 q 85 492 67 390 q 233 876 129 747 q 521 1004 336 1004 q 730 925 667 1004 q 790 718 793 846 l 671 718 m 188 340 q 182 286 182 304 q 231 152 182 204 q 382 100 281 100 q 548 157 479 100 q 635 315 617 214 q 640 376 640 344 q 591 506 640 461 q 456 550 542 550 q 340 527 397 550 q 242 456 283 504 q 188 340 200 408 z "},"७":{"ha":661,"x_min":53,"x_max":731,"o":"m 713 888 l 186 0 l 53 0 l 583 875 l 68 875 l 88 985 l 731 985 l 713 888 z "},"८":{"ha":853,"x_min":29,"x_max":818,"o":"m 143 763 q 205 888 156 832 q 336 977 254 944 q 525 1010 418 1010 q 742 947 665 1010 q 818 782 818 883 q 814 735 818 760 q 744 603 800 658 q 594 522 689 547 q 721 443 676 499 q 765 307 765 388 q 760 249 765 276 q 625 45 738 118 q 342 -28 513 -28 q 113 38 197 -28 q 29 219 29 103 q 35 283 29 254 q 115 435 50 374 q 282 522 179 496 q 174 594 210 544 q 139 711 139 643 q 143 763 139 736 m 261 701 q 310 594 261 632 q 444 557 360 557 q 621 610 554 557 q 688 760 688 663 q 639 867 688 829 q 507 904 590 904 q 330 851 399 904 q 261 701 261 799 m 158 285 q 154 242 154 263 q 209 121 154 164 q 360 78 264 78 q 543 128 469 78 q 633 267 617 178 q 638 307 638 288 q 580 427 638 386 q 429 468 522 468 q 249 422 325 468 q 158 285 174 375 z "},"९":{"ha":829,"x_min":57,"x_max":789,"o":"m 183 275 q 220 140 181 188 q 344 93 260 93 q 547 197 469 93 q 657 526 625 300 q 538 393 622 443 q 353 343 454 343 q 160 408 228 343 q 92 593 92 474 q 100 681 92 635 q 163 844 115 771 q 293 961 211 918 q 483 1004 375 1004 q 719 922 649 1004 q 789 692 789 839 q 769 503 789 607 q 624 119 725 250 q 331 -11 522 -11 q 123 69 189 -11 q 64 275 57 150 l 183 275 m 667 656 q 671 707 671 681 q 622 842 671 789 q 472 894 574 894 q 306 836 375 894 q 219 674 238 778 q 214 614 214 646 q 263 487 214 531 q 397 443 311 443 q 513 467 456 443 q 613 539 571 490 q 667 656 654 588 z "},"ॐ":{"ha":1467,"x_min":36,"x_max":1343,"o":"m 899 1261 q 863 1274 876 1261 q 850 1308 850 1288 q 871 1356 850 1336 q 919 1376 892 1376 q 955 1363 942 1376 q 968 1329 968 1350 q 947 1281 968 1301 q 899 1261 926 1261 m 872 1033 q 682 1091 749 1033 q 615 1236 615 1149 q 619 1279 615 1258 l 714 1279 q 711 1251 711 1260 q 754 1158 711 1196 q 879 1119 797 1119 q 1025 1167 971 1119 q 1090 1279 1079 1214 l 1185 1279 q 1089 1102 1168 1171 q 872 1033 1010 1033 m 1122 953 q 1343 726 1343 953 q 1332 610 1343 676 l 1299 419 q 1163 131 1264 228 q 878 35 1061 35 q 743 49 813 35 l 760 146 q 876 133 838 133 q 1090 207 1019 133 q 1186 424 1161 281 l 1222 624 q 1231 711 1231 672 q 1201 817 1231 781 q 1104 854 1171 854 q 979 806 1024 854 q 919 678 935 758 q 826 483 896 542 q 624 425 756 425 l 622 425 q 635 346 635 390 q 631 293 635 321 q 517 92 608 168 q 299 17 426 17 q 107 78 178 17 q 36 244 36 140 q 40 299 36 272 l 150 299 q 147 263 147 286 q 192 157 147 197 q 310 117 236 117 q 451 168 393 117 q 525 303 510 219 q 528 339 528 328 q 488 443 528 401 q 361 485 447 485 l 307 485 l 325 583 l 379 583 q 494 613 446 583 q 567 688 542 642 q 592 782 592 733 q 551 883 592 846 q 444 919 510 919 q 312 876 369 919 q 240 761 254 833 l 132 761 q 246 948 154 878 q 464 1018 338 1018 q 637 963 572 1018 q 701 814 701 908 q 697 763 701 790 q 628 618 682 678 q 489 539 575 558 l 489 536 q 543 517 518 531 l 625 517 q 749 553 701 517 q 811 679 796 589 q 908 881 835 810 q 1122 953 982 953 z "},"॰":{"ha":685,"x_min":108,"x_max":578,"o":"m 574 482 q 482 322 556 385 q 308 260 408 260 q 163 310 218 260 q 108 442 108 360 q 113 485 108 463 q 206 646 131 583 q 383 708 281 708 q 525 658 472 708 q 578 525 578 607 q 574 482 578 506 m 185 456 q 222 367 185 400 q 319 333 258 333 q 435 375 386 333 q 497 482 485 417 q 500 513 500 504 q 465 602 500 568 q 372 636 431 636 q 240 585 294 636 q 185 456 185 533 z "},"।":{"ha":392,"x_min":126,"x_max":422,"o":"m 242 0 l 126 0 l 307 1029 l 422 1029 l 242 0 z "},"॥":{"ha":685,"x_min":126,"x_max":715,"o":"m 242 0 l 126 0 l 307 1029 l 422 1029 l 242 0 m 535 0 l 419 0 l 600 1029 l 715 1029 l 535 0 z "},"₨":{"ha":1493,"x_min":15,"x_max":1432,"o":"m 511 979 q 727 918 656 979 q 799 750 799 857 q 793 688 799 717 q 692 496 772 569 q 483 404 613 422 l 679 0 l 536 0 l 350 400 l 214 400 l 143 0 l 15 0 l 189 979 l 511 979 m 664 681 q 668 726 668 706 q 481 869 668 869 l 296 869 l 229 492 l 414 492 q 664 681 626 492 m 1304 524 q 1266 633 1307 590 q 1144 675 1225 675 q 1028 642 1075 675 q 972 554 982 608 q 971 536 971 547 q 1015 466 971 489 q 1149 424 1060 443 q 1271 388 1224 406 q 1351 336 1318 371 q 1383 243 1383 301 q 1345 115 1383 172 q 1239 24 1307 57 q 1085 -10 1171 -10 q 872 56 947 -10 q 800 238 796 121 l 925 238 q 967 128 921 171 q 1100 86 1013 86 q 1211 120 1168 86 q 1264 207 1254 154 q 1265 226 1265 214 q 1220 301 1265 278 q 1083 344 1175 324 q 963 379 1008 363 q 886 430 918 396 q 854 519 854 464 q 893 649 854 592 q 1002 740 932 707 q 1163 772 1072 772 q 1364 705 1296 772 q 1429 524 1432 638 l 1304 524 z "},"₹":{"ha":889,"x_min":89,"x_max":913,"o":"m 719 892 l 689 728 l 868 728 l 856 651 l 672 651 q 597 506 647 560 q 461 426 547 451 q 238 400 375 400 l 214 275 q 208 218 208 247 q 346 83 208 83 q 535 269 503 83 l 654 269 q 544 60 628 135 q 333 -14 461 -14 q 151 42 213 -14 q 89 206 89 99 q 97 288 89 244 l 133 486 q 376 499 294 486 q 496 545 457 511 q 554 651 535 579 l 113 651 l 126 728 l 569 728 l 600 892 l 156 892 l 171 979 l 913 979 l 897 892 l 719 892 z "},"‌":{"ha":0,"x_min":-32,"x_max":33,"o":"m -32 1126 l 33 1126 l 33 -319 l -32 -319 l -32 1126 z "},"‍":{"ha":0,"x_min":-178,"x_max":178,"o":"m 32 882 l 32 -319 l -33 -319 l -33 882 l -129 781 l -175 826 l -46 956 l -178 1088 l -132 1133 l 0 1001 l 133 1133 l 178 1089 l 44 956 l 178 824 l 132 778 l 32 882 z "},"◌":{"ha":904,"x_min":69,"x_max":835,"o":"m 418 633 q 375 649 392 633 q 358 692 358 665 q 375 734 358 718 q 418 750 392 750 q 461 734 444 750 q 478 692 478 718 q 461 649 478 665 q 418 633 444 633 m 586 613 q 543 628 560 613 q 526 671 526 644 q 543 713 526 697 q 586 729 560 729 q 629 713 613 729 q 646 671 646 697 q 629 628 646 644 q 586 613 613 613 m 256 575 q 213 591 229 575 q 196 633 196 607 q 213 676 196 660 q 256 692 229 692 q 299 676 282 692 q 315 633 315 660 q 299 591 315 607 q 256 575 282 575 m 714 510 q 671 526 688 510 q 654 568 654 542 q 671 610 654 594 q 714 626 688 626 q 757 610 740 626 q 774 568 774 594 q 757 526 774 542 q 714 510 740 510 m 150 438 q 107 453 124 438 q 90 496 90 469 q 107 538 90 522 q 150 554 124 554 q 193 538 176 554 q 210 496 210 522 q 193 453 210 469 q 150 438 176 438 m 775 351 q 732 367 749 351 q 715 410 715 383 q 732 452 715 436 q 775 468 749 468 q 818 452 801 468 q 835 410 835 436 q 818 367 835 383 q 775 351 801 351 m 129 269 q 86 285 103 269 q 69 328 69 301 q 86 370 69 354 q 129 386 103 386 q 172 370 156 386 q 189 328 189 354 q 172 285 189 301 q 129 269 156 269 m 761 185 q 718 201 735 185 q 701 243 701 217 q 718 285 701 269 q 761 301 735 301 q 804 285 788 301 q 821 243 821 269 q 804 201 821 217 q 761 185 788 185 m 192 113 q 149 128 165 113 q 132 171 132 144 q 149 213 132 197 q 192 229 165 229 q 235 213 218 229 q 251 171 251 197 q 235 128 251 144 q 192 113 218 113 m 660 51 q 617 67 633 51 q 600 110 600 83 q 617 152 600 136 q 660 168 633 168 q 703 152 686 168 q 719 110 719 136 q 703 67 719 83 q 660 51 686 51 m 328 7 q 285 23 301 7 q 268 65 268 39 q 285 108 268 92 q 328 124 301 124 q 371 108 354 124 q 388 65 388 92 q 371 23 388 39 q 328 7 354 7 m 500 -12 q 457 3 474 -12 q 440 46 440 19 q 457 88 440 72 q 500 104 474 104 q 543 88 526 104 q 560 46 560 72 q 543 3 560 19 q 500 -12 526 -12 z "},"!":{"ha":415,"x_min":49,"x_max":371,"o":"m 371 1003 l 226 288 l 121 288 l 229 1003 l 371 1003 m 228 149 l 201 0 l 49 0 l 75 149 l 228 149 z "},"\"":{"ha":417,"x_min":47,"x_max":383,"o":"m 197 1107 l 135 831 l 47 831 l 83 1107 l 197 1107 m 383 1107 l 322 831 l 235 831 l 269 1107 l 383 1107 z "},"#":{"ha":1125,"x_min":0,"x_max":1125,"o":"m 881 624 l 793 399 l 986 399 l 965 283 l 747 283 l 638 0 l 518 0 l 628 283 l 335 283 l 225 0 l 106 0 l 215 283 l 0 283 l 21 399 l 261 399 l 349 624 l 139 624 l 160 740 l 393 740 l 506 1028 l 625 1028 l 513 740 l 806 740 l 918 1028 l 1038 1028 l 925 740 l 1125 740 l 1104 624 l 881 624 m 761 624 l 468 624 l 381 399 l 674 399 l 761 624 z "},"$":{"ha":808,"x_min":31,"x_max":767,"o":"m 628 743 q 593 838 626 796 q 493 890 560 879 l 433 549 q 578 496 528 518 q 666 428 628 474 q 704 310 704 383 q 699 254 704 281 q 641 125 686 185 q 519 28 596 65 q 339 -10 442 -10 l 335 -10 l 315 -121 l 272 -121 l 292 -7 q 101 70 172 3 q 31 238 31 138 q 32 264 31 256 l 165 264 q 197 154 161 204 q 310 92 233 104 l 372 447 q 230 499 279 478 q 143 565 181 521 q 106 681 106 608 q 111 735 106 696 q 173 868 124 810 q 299 959 222 926 q 468 992 375 992 l 489 1111 l 532 1111 l 511 990 q 703 912 639 981 q 764 743 767 843 l 628 743 m 247 740 q 244 710 244 718 q 283 620 244 653 q 393 563 321 588 l 450 893 q 315 853 369 893 q 247 740 260 814 m 565 283 q 526 375 565 342 q 413 433 486 408 l 353 89 l 354 89 q 466 115 418 89 q 540 186 514 142 q 565 283 565 231 z "},"%":{"ha":915,"x_min":26,"x_max":889,"o":"m 336 993 q 461 949 414 993 q 508 831 508 906 q 504 788 508 811 q 419 639 486 694 q 265 583 353 583 q 141 626 188 583 q 94 743 94 669 q 99 788 94 765 q 182 937 115 881 q 336 993 249 993 m 889 981 l 153 0 l 26 0 l 763 981 l 889 981 m 188 788 q 185 760 185 768 q 210 689 185 715 q 278 663 235 663 q 367 697 329 663 q 415 788 404 732 q 418 815 418 807 q 392 886 418 860 q 322 913 367 913 q 235 878 272 913 q 188 788 197 843 m 651 397 q 775 355 729 397 q 821 238 821 313 q 817 193 821 217 q 734 44 800 100 q 581 -12 668 -12 q 456 31 503 -12 q 408 150 408 75 q 413 193 408 171 q 496 342 429 286 q 651 397 563 397 m 501 193 q 499 165 499 174 q 524 94 499 121 q 593 68 549 68 q 690 112 650 68 q 731 222 731 156 q 706 292 731 267 q 638 318 681 318 q 549 283 586 318 q 501 193 513 249 z "},"&":{"ha":947,"x_min":6,"x_max":851,"o":"m 722 0 l 547 242 q 524 176 544 217 q 422 42 496 94 q 254 -10 347 -10 q 73 53 140 -10 q 6 222 6 117 q 11 282 6 254 q 72 431 26 368 q 180 527 117 494 q 311 560 243 560 q 344 557 322 560 q 326 586 338 567 q 289 657 301 625 q 276 728 276 689 q 281 772 276 747 q 328 878 290 829 q 427 958 365 928 q 568 989 489 989 q 740 929 688 989 q 789 779 793 869 q 781 696 792 736 l 661 696 q 668 738 668 721 q 671 771 671 763 q 640 853 671 824 q 551 883 608 883 q 448 847 489 883 q 399 760 407 811 q 394 725 394 742 q 405 672 394 696 q 439 614 415 649 l 851 0 l 722 0 m 482 304 q 434 417 482 372 q 319 461 386 461 q 193 415 247 461 q 122 285 139 369 q 119 247 119 272 q 163 138 119 178 q 275 99 207 99 q 378 126 331 99 q 453 200 425 153 q 482 304 482 247 z "},"'":{"ha":238,"x_min":51,"x_max":204,"o":"m 204 1107 l 139 831 l 51 831 l 83 1107 l 204 1107 z "},"(":{"ha":532,"x_min":42,"x_max":694,"o":"m 61 560 q 246 1036 108 826 q 571 1374 383 1246 l 694 1374 l 692 1361 q 353 1008 481 1210 q 183 560 226 806 q 164 350 164 447 q 410 -243 164 -10 l 407 -256 l 283 -256 q 106 -1 171 -154 q 42 346 42 151 q 61 560 42 454 z "},")":{"ha":533,"x_min":-162,"x_max":492,"o":"m 472 560 q 288 83 425 292 q -39 -256 150 -126 l -162 -256 l -160 -243 q 349 560 261 57 q 368 769 368 672 q 122 1361 368 1128 l 125 1374 l 249 1374 q 426 1119 361 1274 q 492 772 492 965 q 472 560 492 665 z "},"*":{"ha":661,"x_min":64,"x_max":601,"o":"m 564 935 l 601 835 l 390 760 l 576 685 l 501 585 l 358 711 l 349 500 l 235 500 l 297 711 l 106 581 l 64 685 l 275 760 l 92 835 l 167 936 l 314 808 l 325 1019 l 439 1019 l 375 808 l 564 935 z "},"+":{"ha":800,"x_min":35,"x_max":764,"o":"m 743 450 l 451 450 l 399 154 l 275 154 l 328 450 l 35 450 l 57 565 l 347 565 l 400 863 l 524 863 l 471 565 l 764 565 l 743 450 z "},",":{"ha":243,"x_min":0,"x_max":176,"o":"m 172 93 q 176 38 176 67 q 131 -118 176 -56 q 0 -181 86 -181 l 10 -126 q 63 -108 44 -126 q 88 -49 82 -89 l 90 -36 l 21 -36 l 42 93 l 172 93 z "},"-":{"ha":682,"x_min":79,"x_max":656,"o":"m 656 563 l 636 456 l 79 456 l 99 563 l 656 563 z "},".":{"ha":238,"x_min":29,"x_max":208,"o":"m 208 149 l 182 0 l 29 0 l 54 149 l 208 149 z "},"/":{"ha":518,"x_min":-128,"x_max":649,"o":"m 649 1308 l -4 -237 l -128 -237 l 525 1308 l 649 1308 z "},":":{"ha":265,"x_min":-7,"x_max":278,"o":"m 278 749 l 251 600 l 99 600 l 124 749 l 278 749 m 171 149 l 146 0 l -7 0 l 18 149 l 171 149 z "},";":{"ha":339,"x_min":17,"x_max":326,"o":"m 326 744 l 300 596 l 147 596 l 172 744 l 326 744 m 189 93 q 193 38 193 67 q 148 -118 193 -56 q 17 -181 103 -181 l 26 -126 q 80 -108 61 -126 q 104 -49 99 -89 l 107 -36 l 38 -36 l 58 93 l 189 93 z "},"<":{"ha":586,"x_min":46,"x_max":597,"o":"m 325 190 l 46 508 l 438 828 l 597 828 l 204 508 l 485 190 l 325 190 z "},"=":{"ha":814,"x_min":10,"x_max":804,"o":"m 804 714 l 785 599 l 61 599 l 82 714 l 804 714 m 753 418 l 732 303 l 10 303 l 29 418 l 753 418 z "},">":{"ha":586,"x_min":-11,"x_max":540,"o":"m 101 828 l 261 828 l 540 508 l 149 190 l -11 190 l 382 508 l 101 828 z "},"?":{"ha":697,"x_min":76,"x_max":697,"o":"m 435 1018 q 627 956 557 1018 q 697 785 697 894 q 692 722 697 751 q 561 513 667 581 q 300 442 456 444 l 271 278 l 150 278 l 194 528 l 250 528 q 460 569 374 528 q 567 721 547 610 q 571 765 571 744 q 529 875 571 836 q 413 914 488 914 q 272 867 325 914 q 197 738 219 819 l 76 738 q 197 942 104 867 q 435 1018 289 1018 m 265 149 l 239 0 l 86 0 l 113 149 l 265 149 z "},"@":{"ha":1585,"x_min":42,"x_max":1560,"o":"m 990 1096 q 1301 1036 1174 1096 q 1494 867 1429 976 q 1560 606 1560 757 q 1547 468 1560 542 q 1456 223 1522 333 q 1299 49 1389 113 q 1117 -14 1208 -14 q 1007 15 1047 -14 q 967 108 967 44 q 975 172 967 138 q 643 -14 839 -14 q 465 56 531 -14 q 399 242 399 125 q 411 347 399 292 q 510 567 438 469 q 685 720 583 665 q 899 775 788 775 q 1103 708 1032 775 q 1174 529 1174 642 q 1150 396 1174 469 l 1088 211 q 1075 153 1075 176 q 1144 97 1075 97 q 1255 141 1200 97 q 1353 268 1310 185 q 1417 464 1397 351 q 1428 586 1428 533 q 1309 883 1428 775 q 956 990 1190 990 q 588 902 751 990 q 319 662 424 814 q 182 321 215 510 q 169 183 169 249 q 301 -138 169 -29 q 682 -250 433 -247 l 640 -354 q 197 -219 351 -350 q 42 161 42 -87 q 57 321 42 232 q 227 717 96 540 q 558 995 358 894 q 990 1096 757 1096 m 1035 421 q 1043 496 1043 461 q 997 619 1043 575 q 858 663 951 663 q 715 624 783 663 q 600 513 647 585 q 535 349 553 442 q 526 278 526 311 q 574 146 526 194 q 703 97 621 97 q 845 136 776 97 q 965 249 914 175 q 1035 421 1015 322 z "},"A":{"ha":919,"x_min":-57,"x_max":808,"o":"m 631 226 l 200 226 l 78 0 l -57 0 l 472 961 l 617 961 l 808 0 l 672 0 l 631 226 m 613 325 l 521 821 l 253 325 l 613 325 z "},"B":{"ha":839,"x_min":15,"x_max":807,"o":"m 803 735 q 725 582 786 640 q 582 507 664 524 q 702 438 658 490 q 746 311 746 386 q 742 264 746 289 q 627 72 721 144 q 379 0 533 0 l 15 0 l 188 979 l 546 979 q 741 928 675 979 q 807 786 807 876 q 803 735 807 763 m 669 714 q 672 750 672 726 q 631 842 672 808 q 501 875 589 875 l 296 875 l 239 550 l 450 550 q 599 593 543 550 q 669 714 656 636 m 615 281 q 618 317 618 293 q 570 419 618 382 q 433 456 522 456 l 222 456 l 160 106 l 372 106 q 538 151 474 106 q 615 281 601 197 z "},"C":{"ha":1060,"x_min":58,"x_max":1021,"o":"m 622 989 q 903 901 801 989 q 1021 660 1004 813 l 888 660 q 794 815 868 757 q 600 872 721 872 q 421 826 506 872 q 278 692 336 779 q 199 489 219 606 q 190 399 190 442 q 266 186 190 264 q 465 108 342 108 q 681 166 588 108 q 828 321 775 224 l 961 321 q 758 80 890 168 q 447 -8 626 -8 q 240 40 328 -8 q 106 176 153 89 q 58 381 58 264 q 68 489 58 436 q 172 749 93 635 q 368 926 251 863 q 622 989 485 989 z "},"D":{"ha":996,"x_min":15,"x_max":936,"o":"m 926 490 q 821 231 900 342 q 615 60 742 121 q 326 0 489 0 l 15 0 l 188 979 l 499 979 q 824 880 711 979 q 936 603 936 781 q 926 490 936 544 m 336 114 q 648 213 529 114 q 797 490 767 313 q 806 582 806 539 q 720 794 806 719 q 469 868 635 868 l 294 868 l 161 114 l 336 114 z "},"E":{"ha":703,"x_min":15,"x_max":728,"o":"m 296 876 l 238 542 l 610 542 l 592 444 l 219 444 l 160 103 l 574 103 l 556 0 l 15 0 l 188 979 l 728 979 l 710 876 l 296 876 z "},"F":{"ha":704,"x_min":15,"x_max":742,"o":"m 742 979 l 724 876 l 296 876 l 238 538 l 599 538 l 581 439 l 219 439 l 142 0 l 15 0 l 188 979 l 742 979 z "},"G":{"ha":1081,"x_min":58,"x_max":1021,"o":"m 633 989 q 903 903 803 989 q 1021 674 1003 817 l 888 674 q 798 817 869 763 q 614 871 726 871 q 427 824 514 871 q 280 692 340 778 q 199 489 219 606 q 190 397 190 442 q 272 181 190 258 q 490 103 353 103 q 663 142 581 103 q 805 255 744 181 q 893 429 865 329 l 508 429 l 525 524 l 1018 524 l 997 407 q 888 191 964 285 q 702 44 813 97 q 460 -10 592 -10 q 246 40 336 -10 q 107 178 156 89 q 58 386 58 268 q 68 494 58 442 q 174 751 93 639 q 374 926 254 863 q 633 989 493 989 z "},"H":{"ha":954,"x_min":15,"x_max":939,"o":"m 939 979 l 767 0 l 639 0 l 718 453 l 221 453 l 142 0 l 15 0 l 188 979 l 314 979 l 239 556 l 736 556 l 811 979 l 939 979 z "},"I":{"ha":329,"x_min":15,"x_max":314,"o":"m 314 979 l 142 0 l 15 0 l 188 979 l 314 979 z "},"J":{"ha":672,"x_min":-10,"x_max":665,"o":"m 665 979 l 538 251 q 433 60 515 131 q 229 -10 351 -10 q 53 49 115 -10 q -10 214 -10 107 q -3 289 -10 244 l 124 289 q 118 233 118 263 q 149 140 118 174 q 244 106 179 106 q 358 147 318 106 q 410 251 399 189 l 539 979 l 665 979 z "},"K":{"ha":815,"x_min":15,"x_max":878,"o":"m 346 494 l 706 0 l 550 0 l 222 458 l 142 0 l 15 0 l 188 979 l 314 979 l 233 525 l 724 979 l 878 979 l 346 494 z "},"L":{"ha":603,"x_min":15,"x_max":507,"o":"m 160 99 l 507 99 l 489 0 l 15 0 l 188 979 l 314 979 l 160 99 z "},"M":{"ha":1183,"x_min":17,"x_max":1167,"o":"m 1167 963 l 997 0 l 871 0 l 1004 764 l 564 0 l 451 0 l 278 764 l 144 0 l 17 0 l 185 963 l 338 963 l 538 156 l 1015 963 l 1167 963 z "},"N":{"ha":964,"x_min":15,"x_max":949,"o":"m 776 0 l 650 0 l 278 774 l 142 0 l 15 0 l 188 979 l 314 979 l 686 204 l 822 979 l 949 979 l 776 0 z "},"O":{"ha":1090,"x_min":60,"x_max":1031,"o":"m 619 992 q 838 941 744 992 q 981 798 931 890 q 1031 583 1031 706 q 1021 471 1031 525 q 919 221 996 331 q 726 50 842 111 q 472 -11 610 -11 q 251 40 344 -11 q 109 183 158 90 q 60 396 60 275 q 69 510 60 456 q 172 760 94 650 q 365 931 249 869 q 619 992 482 992 m 608 874 q 422 828 508 874 q 275 696 335 782 q 194 496 215 610 q 186 407 186 450 q 267 188 186 268 q 483 107 347 107 q 669 153 582 107 q 816 286 756 200 q 896 486 876 372 q 904 575 904 532 q 824 794 904 714 q 608 874 743 874 z "},"P":{"ha":793,"x_min":15,"x_max":788,"o":"m 211 394 l 142 0 l 15 0 l 188 979 l 499 979 q 716 919 644 979 q 788 753 788 860 q 782 686 788 718 q 658 472 757 549 q 396 394 558 394 l 211 394 m 403 500 q 653 686 621 500 q 657 736 657 714 q 613 838 657 803 q 469 874 568 874 l 296 874 l 231 500 l 403 500 z "},"Q":{"ha":1090,"x_min":61,"x_max":1032,"o":"m 1022 471 q 918 217 997 328 q 721 46 839 106 l 926 -190 l 765 -190 l 607 4 q 474 -11 539 -11 q 253 40 346 -11 q 110 183 160 90 q 61 396 61 275 q 71 510 61 456 q 173 760 96 650 q 367 931 250 869 q 621 992 483 992 q 839 941 746 992 q 982 798 932 890 q 1032 583 1032 706 q 1022 471 1032 525 m 485 107 q 670 153 583 107 q 817 286 757 200 q 897 486 878 372 q 906 575 906 532 q 825 794 906 714 q 610 874 744 874 q 423 828 510 874 q 276 696 336 782 q 196 496 217 610 q 188 407 188 450 q 268 188 188 268 q 485 107 349 107 z "},"R":{"ha":810,"x_min":15,"x_max":797,"o":"m 510 979 q 726 918 654 979 q 797 751 797 857 q 792 688 797 717 q 692 496 772 569 q 482 404 611 422 l 678 0 l 535 0 l 349 400 l 213 400 l 142 0 l 15 0 l 188 979 l 510 979 m 663 681 q 667 726 667 706 q 481 869 667 869 l 296 869 l 229 492 l 414 492 q 663 681 628 492 z "},"S":{"ha":786,"x_min":29,"x_max":743,"o":"m 678 231 q 626 113 668 168 q 514 24 585 58 q 349 -10 443 -10 q 175 27 247 -10 q 66 126 103 64 q 31 264 29 188 l 165 264 q 181 183 163 222 q 242 117 200 143 q 351 92 285 92 q 494 146 442 92 q 546 279 546 200 q 519 366 546 332 q 452 420 492 400 q 343 467 413 440 q 217 521 264 496 q 138 591 171 546 q 106 708 106 636 q 111 772 106 740 q 216 931 128 871 q 436 992 304 992 q 662 920 585 992 q 743 743 739 849 l 608 743 q 564 846 607 801 q 432 890 521 890 q 297 847 349 890 q 244 722 244 804 q 270 642 244 674 q 334 591 296 610 q 440 547 372 572 q 568 492 519 518 q 651 419 617 467 q 685 297 685 372 q 678 231 685 269 z "},"T":{"ha":725,"x_min":92,"x_max":788,"o":"m 788 979 l 769 876 l 493 876 l 339 0 l 213 0 l 367 876 l 92 876 l 108 979 l 788 979 z "},"U":{"ha":918,"x_min":68,"x_max":911,"o":"m 308 979 l 206 392 q 197 304 197 344 q 249 158 197 206 q 394 110 300 110 q 580 178 506 110 q 681 392 654 247 l 785 979 l 911 979 l 808 392 q 655 91 772 192 q 371 -10 538 -10 q 149 64 229 -10 q 68 283 68 138 q 78 392 68 338 l 182 979 l 308 979 z "},"V":{"ha":931,"x_min":113,"x_max":990,"o":"m 251 979 l 403 140 l 853 979 l 990 979 l 458 0 l 299 0 l 113 979 l 251 979 z "},"W":{"ha":1353,"x_min":132,"x_max":1392,"o":"m 1392 979 l 971 0 l 817 0 l 732 800 l 364 0 l 210 0 l 132 979 l 272 979 l 314 150 l 692 979 l 832 979 l 919 150 l 1253 979 l 1392 979 z "},"X":{"ha":825,"x_min":-54,"x_max":875,"o":"m 488 489 l 711 0 l 561 0 l 383 388 l 92 0 l -54 0 l 332 499 l 113 979 l 264 979 l 438 599 l 729 979 l 875 979 l 488 489 z "},"Y":{"ha":824,"x_min":113,"x_max":883,"o":"m 883 979 l 456 371 l 390 0 l 263 0 l 328 371 l 113 979 l 260 979 l 415 506 l 739 979 l 883 979 z "},"Z":{"ha":747,"x_min":-31,"x_max":768,"o":"m 129 104 l 622 104 l 604 0 l -31 0 l -12 100 l 608 875 l 136 875 l 154 979 l 768 979 l 751 879 l 129 104 z "},"[":{"ha":458,"x_min":-14,"x_max":532,"o":"m 532 1308 l 514 1204 l 361 1204 l 125 -133 l 278 -133 l 260 -237 l -14 -237 l 260 1308 l 532 1308 z "},"\\":{"ha":857,"x_min":261,"x_max":549,"o":"m 425 -237 l 261 1308 l 388 1308 l 549 -237 l 425 -237 z "},"]":{"ha":457,"x_min":-74,"x_max":471,"o":"m -74 -237 l -56 -133 l 97 -133 l 333 1204 l 181 1204 l 199 1308 l 471 1308 l 199 -237 l -74 -237 z "},"^":{"ha":868,"x_min":-15,"x_max":756,"o":"m 111 236 l -15 236 l 439 963 l 558 963 l 756 236 l 629 236 l 474 811 l 111 236 z "},"_":{"ha":839,"x_min":19,"x_max":781,"o":"m 781 -47 l 758 -171 l 19 -171 l 42 -47 l 781 -47 z "},"`":{"ha":399,"x_min":129,"x_max":413,"o":"m 413 913 l 396 822 l 129 985 l 149 1088 l 413 913 z "},"a":{"ha":938,"x_min":56,"x_max":904,"o":"m 479 772 q 661 716 592 772 q 744 568 731 660 l 779 763 l 904 763 l 769 0 l 643 0 l 678 194 q 546 47 633 103 q 347 -10 458 -10 q 134 70 213 -10 q 56 290 56 150 q 65 390 56 342 q 146 594 86 507 q 292 726 206 681 q 479 772 379 772 m 501 660 q 300 585 383 660 q 194 381 217 511 q 188 313 188 342 q 244 157 188 213 q 403 101 301 101 q 542 136 476 101 q 651 234 607 171 q 711 381 696 297 q 717 443 717 410 q 658 601 717 543 q 501 660 599 660 z "},"b":{"ha":938,"x_min":18,"x_max":865,"o":"m 18 0 l 200 1028 l 326 1028 l 244 568 q 378 717 290 661 q 576 772 465 772 q 787 693 708 772 q 865 475 865 614 q 857 381 865 431 q 776 173 836 261 q 627 38 715 85 q 438 -10 539 -10 q 260 46 328 -10 q 179 194 193 101 l 144 0 l 18 0 m 421 101 q 623 176 539 101 q 729 381 707 250 q 735 449 735 413 q 678 604 735 549 q 521 660 621 660 q 381 626 446 660 q 271 528 315 592 q 211 381 226 464 q 206 318 206 351 q 265 160 206 218 q 421 101 324 101 z "},"c":{"ha":867,"x_min":57,"x_max":819,"o":"m 504 772 q 736 694 653 772 q 818 486 819 617 l 685 486 q 631 615 685 568 q 486 661 578 661 q 300 590 382 661 q 193 381 218 518 q 186 308 186 336 q 242 153 186 206 q 388 100 299 100 q 549 147 479 100 q 649 276 619 194 l 782 276 q 627 67 736 144 q 371 -10 518 -10 q 142 72 228 -10 q 57 296 57 153 q 65 390 57 340 q 149 594 86 507 q 303 726 211 681 q 504 772 396 772 z "},"d":{"ha":935,"x_min":40,"x_max":936,"o":"m 936 1028 l 754 0 l 628 0 l 663 194 q 529 46 617 101 q 331 -10 442 -10 q 119 71 199 -10 q 40 293 40 151 q 50 390 40 329 q 131 594 71 507 q 277 726 190 681 q 464 772 364 772 q 645 717 576 772 q 728 568 714 661 l 810 1028 l 936 1028 m 486 660 q 284 585 368 660 q 178 381 200 511 q 172 313 172 349 q 229 157 172 213 q 386 101 286 101 q 526 136 461 101 q 636 234 592 171 q 696 381 681 297 q 701 442 701 410 q 643 601 701 542 q 486 660 585 660 z "},"e":{"ha":867,"x_min":56,"x_max":815,"o":"m 507 772 q 675 735 606 772 q 780 635 744 699 q 815 492 815 572 q 810 424 815 456 q 790 354 801 381 l 183 354 q 178 294 178 313 q 235 144 178 194 q 382 93 293 93 q 543 140 472 93 q 642 264 614 186 l 776 264 q 624 66 732 142 q 369 -10 515 -10 q 140 71 225 -10 q 56 294 56 151 q 64 386 56 339 q 149 592 85 504 q 306 726 213 679 q 507 772 399 772 m 682 415 q 690 485 690 453 q 633 622 690 575 q 489 669 575 669 q 303 605 386 669 q 193 415 219 540 l 682 415 z "},"f":{"ha":475,"x_min":39,"x_max":531,"o":"m 178 793 q 531 1054 225 1067 l 511 943 q 365 908 411 944 q 304 783 319 871 l 300 763 l 479 763 l 460 651 l 281 651 l 165 0 l 39 0 l 153 651 l 44 651 l 64 763 l 172 763 l 178 793 z "},"g":{"ha":936,"x_min":22,"x_max":907,"o":"m 350 -11 q 138 70 217 -11 q 58 293 58 151 q 68 390 58 329 q 149 594 89 507 q 295 726 208 681 q 483 772 382 772 q 665 717 596 772 q 747 568 733 661 l 782 763 l 907 763 l 769 -12 q 693 -200 751 -118 q 547 -328 635 -282 q 356 -374 460 -374 q 117 -299 203 -374 q 22 -99 32 -225 l 147 -99 q 213 -219 158 -175 q 363 -262 267 -262 q 546 -197 467 -262 q 644 -12 625 -132 l 682 194 q 548 45 636 101 q 350 -11 460 -11 m 504 661 q 303 586 386 661 q 197 381 219 511 q 190 313 190 342 q 248 158 190 214 q 406 103 306 103 q 544 137 479 103 q 655 234 610 171 q 715 381 700 297 q 721 442 721 408 q 662 601 721 542 q 504 661 603 661 z "},"h":{"ha":893,"x_min":36,"x_max":819,"o":"m 575 775 q 753 713 688 775 q 819 532 819 651 q 811 443 819 492 l 735 0 l 608 0 l 685 432 q 690 493 690 461 q 643 623 690 578 q 510 668 596 668 q 341 610 413 668 q 242 440 269 553 l 164 0 l 36 0 l 217 1028 l 344 1028 l 267 586 q 395 726 313 678 q 575 775 478 775 z "},"i":{"ha":328,"x_min":32,"x_max":357,"o":"m 182 971 q 211 1038 182 1011 q 283 1064 240 1064 q 338 1047 318 1064 q 357 1001 357 1029 q 328 935 357 961 q 256 908 299 908 q 201 926 221 908 q 182 971 182 943 m 293 763 l 158 0 l 32 0 l 167 763 l 293 763 z "},"j":{"ha":338,"x_min":-172,"x_max":367,"o":"m 265 908 q 211 926 231 908 q 192 971 192 943 q 221 1038 192 1011 q 293 1064 250 1064 q 347 1047 326 1064 q 367 1000 367 1029 q 338 935 367 961 q 265 908 308 908 m -151 -250 l -99 -250 q -22 -228 -49 -250 q 14 -151 4 -206 l 175 763 l 303 763 l 140 -156 q -103 -361 104 -361 l -172 -361 l -151 -250 z "},"k":{"ha":688,"x_min":18,"x_max":721,"o":"m 313 389 l 590 0 l 438 0 l 207 347 l 146 0 l 18 0 l 199 1028 l 326 1028 l 222 436 l 567 763 l 721 763 l 313 389 z "},"l":{"ha":326,"x_min":36,"x_max":344,"o":"m 344 1028 l 164 0 l 36 0 l 217 1028 l 344 1028 z "},"m":{"ha":1429,"x_min":32,"x_max":1353,"o":"m 1108 775 q 1288 713 1222 775 q 1353 531 1353 650 q 1344 443 1353 492 l 1267 0 l 1140 0 l 1217 432 q 1222 493 1222 461 q 1177 620 1222 576 q 1051 664 1132 664 q 878 598 950 664 q 785 404 807 532 l 713 0 l 588 0 l 664 432 q 669 493 669 461 q 624 620 669 576 q 499 664 579 664 q 326 598 397 664 q 232 404 254 532 l 232 411 l 160 0 l 32 0 l 167 763 l 294 763 l 264 589 q 387 727 307 679 q 560 775 467 775 q 719 725 657 775 q 796 579 782 675 q 928 724 844 672 q 1108 775 1013 775 z "},"n":{"ha":893,"x_min":32,"x_max":817,"o":"m 572 775 q 751 712 685 775 q 817 528 817 649 q 810 443 817 482 l 731 0 l 604 0 l 681 432 q 686 494 686 461 q 639 624 686 579 q 506 668 592 668 q 328 601 401 668 q 232 404 254 533 l 232 410 l 160 0 l 32 0 l 167 763 l 294 763 l 263 583 q 392 726 308 676 q 572 775 475 775 z "},"o":{"ha":894,"x_min":56,"x_max":839,"o":"m 514 772 q 683 735 610 772 q 798 627 757 697 q 839 460 839 557 q 831 371 839 417 q 745 168 810 254 q 586 36 681 82 q 383 -10 492 -10 q 145 74 235 -10 q 56 303 56 157 q 64 390 56 344 q 150 594 85 507 q 310 726 215 681 q 514 772 406 772 m 497 661 q 366 631 429 661 q 256 537 303 600 q 193 381 210 474 q 186 311 186 339 q 246 155 186 208 q 399 101 306 101 q 529 132 467 101 q 638 226 592 163 q 701 381 685 289 q 708 450 708 422 q 649 608 708 554 q 497 661 589 661 z "},"p":{"ha":938,"x_min":-29,"x_max":882,"o":"m 593 772 q 803 693 725 772 q 882 475 882 614 q 874 381 882 431 q 792 173 853 261 q 644 38 732 85 q 454 -10 556 -10 q 276 46 343 -10 q 196 194 208 101 l 97 -361 l -29 -361 l 169 763 l 296 763 l 261 568 q 394 717 307 661 q 593 772 482 772 m 438 101 q 639 176 556 101 q 746 381 722 250 q 751 449 751 413 q 694 604 751 549 q 536 660 638 660 q 397 626 461 660 q 288 528 332 592 q 228 381 243 464 q 222 318 222 351 q 281 160 222 218 q 438 101 340 101 z "},"q":{"ha":933,"x_min":49,"x_max":896,"o":"m 896 763 l 699 -361 l 572 -361 l 669 186 q 535 43 619 96 q 347 -10 451 -10 q 128 72 208 -10 q 49 294 49 153 q 57 389 49 339 q 139 593 78 507 q 289 724 200 679 q 481 769 378 769 q 654 719 588 769 q 739 582 721 669 l 771 763 l 896 763 m 493 660 q 294 585 379 660 q 186 379 208 510 q 179 311 179 340 q 238 156 179 211 q 396 101 296 101 q 532 135 467 101 q 642 233 597 169 q 703 381 688 296 q 708 443 708 410 q 649 602 708 544 q 493 660 589 660 z "},"r":{"ha":533,"x_min":32,"x_max":579,"o":"m 267 608 q 399 731 318 686 q 579 775 479 775 l 554 638 l 515 638 q 333 585 411 638 q 232 410 256 532 l 160 0 l 32 0 l 167 763 l 294 763 l 267 608 z "},"s":{"ha":700,"x_min":28,"x_max":664,"o":"m 369 772 q 588 705 513 772 q 664 524 663 638 l 539 524 q 495 636 542 593 q 358 679 449 679 q 247 645 289 679 q 204 556 204 611 q 228 497 204 519 q 286 459 251 474 q 381 428 321 444 q 505 386 457 407 q 586 325 553 365 q 619 219 619 285 q 614 168 619 204 q 527 40 599 89 q 340 -10 456 -10 q 112 56 196 -10 q 29 238 28 122 l 154 238 q 201 125 149 168 q 353 82 253 82 q 461 117 422 82 q 500 206 500 151 q 475 274 500 247 q 414 315 450 300 q 314 347 378 329 q 197 387 242 368 q 120 443 151 406 q 89 542 89 481 q 93 589 89 564 q 180 722 107 671 q 369 772 253 772 z "},"t":{"ha":518,"x_min":57,"x_max":514,"o":"m 224 239 q 219 192 219 213 q 244 129 219 147 q 324 111 268 111 l 401 111 l 381 0 l 286 0 q 140 39 189 0 q 90 167 90 78 q 97 242 90 207 l 171 653 l 57 653 l 75 763 l 190 763 l 224 953 l 350 953 l 317 763 l 514 763 l 494 653 l 297 653 l 224 239 z "},"u":{"ha":875,"x_min":58,"x_max":843,"o":"m 843 763 l 708 0 l 581 0 l 611 176 q 483 36 567 85 q 303 -12 400 -12 q 124 51 190 -12 q 58 233 58 114 q 65 318 58 281 l 144 763 l 271 763 l 194 331 q 189 268 189 301 q 236 138 189 183 q 369 93 283 93 q 540 153 468 93 q 639 331 611 214 l 715 763 l 843 763 z "},"v":{"ha":778,"x_min":75,"x_max":822,"o":"m 339 135 l 686 763 l 822 763 l 389 0 l 239 0 l 75 763 l 211 763 l 339 135 z "},"w":{"ha":1154,"x_min":75,"x_max":1206,"o":"m 1206 763 l 853 0 l 715 0 l 615 622 l 294 0 l 158 0 l 75 763 l 203 763 l 254 124 l 576 763 l 710 763 l 810 124 l 1085 763 l 1206 763 z "},"x":{"ha":692,"x_min":-54,"x_max":733,"o":"m 417 379 l 607 0 l 463 0 l 317 290 l 85 0 l -54 0 l 265 393 l 79 763 l 224 763 l 367 478 l 593 763 l 733 763 l 417 379 z "},"y":{"ha":779,"x_min":29,"x_max":824,"o":"m 207 763 l 349 163 l 683 763 l 824 763 l 172 -361 l 29 -361 l 254 13 l 65 763 l 207 763 z "},"z":{"ha":619,"x_min":-31,"x_max":638,"o":"m 128 107 l 536 107 l 515 0 l -31 0 l -12 101 l 472 656 l 94 656 l 115 763 l 638 763 l 618 660 l 128 107 z "},"{":{"ha":515,"x_min":50,"x_max":617,"o":"m 168 515 q 265 460 233 501 q 297 357 297 418 q 292 306 297 342 q 256 182 285 258 q 237 128 253 174 q 211 26 221 82 q 204 -46 204 -15 q 240 -197 204 -133 q 329 -290 276 -260 l 328 -301 l 197 -301 q 116 -215 156 -278 q 76 -50 76 -151 q 85 33 76 -12 q 101 105 92 72 q 129 186 111 138 q 165 308 158 265 q 169 353 169 329 q 50 488 169 460 l 58 546 q 190 614 151 565 q 239 725 228 663 q 246 822 246 767 l 246 878 q 254 1000 246 944 q 315 1166 271 1096 q 404 1276 358 1236 q 486 1335 450 1317 l 617 1335 l 614 1324 q 469 1204 536 1286 q 383 1007 403 1122 q 374 881 374 949 l 374 825 q 367 728 374 771 q 303 591 353 647 q 168 518 253 535 l 168 515 z "},"|":{"ha":300,"x_min":-25,"x_max":324,"o":"m 103 -149 l -25 -149 l 196 1106 l 324 1106 l 103 -149 z "},"}":{"ha":513,"x_min":-90,"x_max":475,"o":"m 357 518 q 258 573 290 532 q 226 674 226 614 q 231 718 226 696 q 267 836 240 769 q 313 997 301 932 q 319 1071 319 1039 q 283 1226 319 1158 q 196 1324 247 1294 l 199 1335 l 328 1335 q 409 1248 369 1311 q 449 1083 449 1185 q 440 1000 449 1046 q 424 928 433 961 q 396 847 414 896 q 360 725 367 768 q 356 681 356 704 q 475 546 356 571 l 467 488 q 286 308 313 460 q 279 211 279 267 l 279 156 q 271 33 279 89 q 210 -133 253 -62 q 120 -243 167 -203 q 39 -301 74 -283 l -90 -301 l -89 -290 q 55 -165 -14 -253 q 143 36 124 -78 q 154 169 154 96 l 154 222 q 161 315 154 274 q 223 445 174 392 q 357 515 272 499 l 357 518 z "},"~":{"ha":719,"x_min":28,"x_max":693,"o":"m 260 549 q 326 535 297 549 q 390 497 356 522 q 440 466 418 476 q 488 456 463 456 q 551 481 524 456 q 593 549 578 506 l 693 549 q 597 393 657 446 q 460 340 538 340 q 394 353 422 340 q 329 392 367 367 q 278 424 297 414 q 232 433 258 433 q 169 408 196 433 q 126 339 142 382 l 28 339 q 123 495 63 442 q 260 549 183 549 z "}," ":{"ha":343,"x_min":0,"x_max":0,"o":""},"¡":{"ha":429,"x_min":32,"x_max":374,"o":"m 32 -226 l 185 489 l 297 489 l 182 -226 l 32 -226 m 184 628 l 212 776 l 373 776 l 346 628 l 184 628 z "},"¢":{"ha":813,"x_min":57,"x_max":769,"o":"m 461 613 q 285 549 361 613 q 188 367 208 486 q 182 306 182 338 q 235 168 182 215 q 375 121 289 121 q 524 167 457 121 q 618 292 590 213 l 736 292 q 604 98 701 172 q 379 17 507 24 l 354 -124 l 292 -124 l 317 18 q 126 99 196 29 q 57 289 57 169 q 64 367 57 321 q 193 612 92 519 q 439 715 294 704 l 463 849 l 525 849 l 503 717 q 699 636 628 710 q 763 442 769 563 l 644 442 q 594 567 643 522 q 461 613 544 613 z "},"£":{"ha":808,"x_min":46,"x_max":810,"o":"m 689 729 q 653 861 696 810 q 529 913 610 913 q 394 865 453 913 q 319 726 335 817 q 314 667 314 699 q 322 574 314 622 q 332 517 331 526 l 589 517 l 572 429 l 344 429 q 340 338 347 374 q 192 99 317 206 l 693 99 l 674 -3 l 50 -3 l 46 65 q 164 191 122 132 q 219 333 206 250 q 224 381 224 358 q 221 429 224 396 l 56 429 l 72 517 l 207 517 q 192 653 192 593 q 200 740 192 694 q 314 940 221 864 q 543 1017 407 1017 q 742 946 674 1017 q 810 760 810 875 q 808 729 810 740 l 689 729 z "},"¤":{"ha":746,"x_min":53,"x_max":692,"o":"m 596 682 q 626 572 626 636 q 622 525 626 550 q 543 368 607 436 l 608 290 l 547 239 l 481 319 q 329 279 413 279 q 192 321 246 279 l 96 239 l 53 290 l 149 369 q 122 472 122 413 q 126 525 122 499 q 204 681 143 617 l 136 763 l 197 814 l 267 729 q 417 768 336 768 q 550 729 496 768 l 649 814 l 692 763 l 596 682 m 228 524 q 224 483 224 503 q 257 390 224 424 q 344 357 290 357 q 455 402 404 357 q 519 524 506 447 q 524 563 524 544 q 489 656 524 622 q 403 690 454 690 q 291 646 340 690 q 228 524 242 601 z "},"¥":{"ha":864,"x_min":51,"x_max":906,"o":"m 592 533 l 783 533 l 768 446 l 531 446 l 478 371 l 472 339 l 750 339 l 735 250 l 457 250 l 413 0 l 286 0 l 329 250 l 51 250 l 67 339 l 344 339 l 350 371 l 324 446 l 86 446 l 101 533 l 293 533 l 135 979 l 282 979 l 435 488 l 761 979 l 906 979 l 592 533 z "},"¦":{"ha":383,"x_min":18,"x_max":365,"o":"m 239 1106 l 365 1106 l 272 579 l 146 579 l 239 1106 m 144 -149 l 18 -149 l 111 379 l 238 379 l 144 -149 z "},"§":{"ha":800,"x_min":36,"x_max":764,"o":"m 631 774 l 632 793 q 592 892 632 853 q 467 932 551 932 q 350 900 394 932 q 306 806 306 868 q 351 719 306 756 q 504 646 397 682 q 680 559 619 607 q 740 429 740 511 q 676 267 740 340 q 493 168 613 194 q 625 -10 625 103 q 622 -46 625 -33 q 526 -192 606 -136 q 317 -247 447 -247 q 108 -180 181 -247 q 43 4 36 -112 l 169 4 q 203 -110 165 -67 q 335 -154 242 -154 q 450 -122 406 -154 q 494 -25 494 -89 q 449 61 494 26 q 297 133 404 96 q 122 219 183 171 q 60 350 60 268 q 88 461 60 407 q 174 555 117 515 q 313 610 231 594 q 176 788 176 679 q 179 824 176 811 q 275 970 196 915 q 485 1025 354 1025 q 692 958 621 1025 q 757 774 764 890 l 631 774 m 606 417 q 559 512 606 476 q 426 547 513 547 q 304 522 357 547 q 224 453 251 496 q 196 361 196 410 q 242 266 196 301 q 375 231 289 231 q 497 256 444 231 q 578 325 550 282 q 606 417 606 368 z "},"¨":{"ha":492,"x_min":143,"x_max":515,"o":"m 143 924 q 168 981 143 957 q 225 1006 193 1006 q 268 989 251 1006 q 285 949 285 972 q 259 892 285 917 q 201 868 233 868 q 159 884 175 868 q 143 924 143 900 m 374 924 q 399 981 374 957 q 457 1006 424 1006 q 499 990 483 1006 q 515 949 515 974 q 514 936 515 940 q 484 888 507 907 q 432 868 461 868 q 390 884 406 868 q 374 924 374 900 z "},"©":{"ha":1100,"x_min":58,"x_max":1040,"o":"m 638 983 q 374 921 494 983 q 174 747 254 858 q 68 492 93 635 q 58 390 58 431 q 108 185 58 274 q 249 47 157 96 q 464 -1 340 -1 q 727 61 607 -1 q 926 236 847 124 q 1031 492 1006 349 q 1040 596 1040 542 q 992 799 1040 711 q 852 935 943 886 q 638 983 761 983 m 629 936 q 893 842 799 936 q 988 590 988 749 q 979 492 988 544 q 886 262 957 363 q 708 104 815 161 q 471 47 600 47 q 278 90 358 47 q 155 212 197 133 q 113 394 113 290 q 121 492 113 442 q 214 722 143 621 q 392 880 285 824 q 629 936 500 936 m 613 814 q 784 753 715 814 q 858 586 853 693 l 749 586 q 697 688 740 651 q 590 724 653 724 q 441 663 508 724 q 354 490 374 603 q 349 432 349 463 q 394 303 349 349 q 510 258 440 258 q 628 295 572 258 q 715 397 683 332 l 825 397 q 692 230 782 290 q 499 169 601 169 q 315 235 385 169 q 244 418 244 300 q 251 492 244 447 q 323 665 269 592 q 452 776 376 738 q 613 814 528 814 z "},"ª":{"ha":615,"x_min":40,"x_max":603,"o":"m 317 986 q 430 953 388 986 q 483 863 472 921 l 504 979 l 603 979 l 517 492 l 418 492 l 439 608 q 353 516 407 549 q 228 483 300 483 q 91 535 142 483 q 40 675 40 586 q 46 735 40 707 q 141 918 67 850 q 317 986 215 986 m 331 906 q 213 859 264 906 q 147 733 161 813 q 143 692 143 713 q 178 598 143 632 q 271 564 213 564 q 394 610 342 564 q 461 735 447 657 q 464 774 464 749 q 428 870 464 835 q 331 906 392 906 z "},"«":{"ha":640,"x_min":63,"x_max":618,"o":"m 153 167 l 63 410 l 239 653 l 363 653 l 183 410 l 276 167 l 153 167 m 408 167 l 318 410 l 494 653 l 618 653 l 439 410 l 532 167 l 408 167 z "},"¬":{"ha":1026,"x_min":72,"x_max":979,"o":"m 979 601 l 928 306 l 801 306 l 836 501 l 72 501 l 89 601 l 979 601 z "},"­":{"ha":682,"x_min":79,"x_max":656,"o":"m 656 563 l 636 456 l 79 456 l 99 563 l 656 563 z "},"®":{"ha":1108,"x_min":60,"x_max":1050,"o":"m 642 985 q 859 938 767 985 q 1001 803 951 890 q 1050 600 1050 717 q 1040 493 1050 546 q 935 238 1015 350 q 733 62 854 125 q 468 -1 611 -1 q 251 48 343 -1 q 109 186 158 97 q 60 392 60 275 q 68 493 60 442 q 175 751 94 639 q 377 924 256 863 q 642 985 499 985 m 989 493 q 999 593 999 554 q 903 844 999 753 q 635 936 807 936 q 394 881 503 936 q 215 726 286 826 q 121 493 144 626 q 113 396 113 443 q 208 146 113 238 q 478 54 304 54 q 717 109 610 54 q 895 263 825 164 q 989 493 965 363 m 640 817 q 781 779 735 817 q 826 678 826 742 q 824 642 826 654 q 760 524 811 569 q 622 468 708 478 l 749 201 l 656 201 l 532 465 l 444 465 l 399 201 l 314 201 l 422 817 l 640 817 m 736 632 q 739 660 739 651 q 710 720 739 700 q 619 740 682 740 l 493 740 l 456 522 l 582 522 q 736 632 715 522 z "},"¯":{"ha":571,"x_min":115,"x_max":622,"o":"m 622 986 l 606 897 l 115 897 l 132 986 l 622 986 z "},"°":{"ha":564,"x_min":35,"x_max":531,"o":"m 325 972 q 476 921 421 972 q 531 782 531 869 q 525 728 531 767 q 428 549 506 617 q 242 482 351 482 q 90 534 146 482 q 35 675 35 586 q 39 728 35 701 q 136 906 58 839 q 325 972 214 972 m 313 899 q 201 853 249 899 q 139 726 154 808 q 135 682 135 704 q 167 589 135 622 q 254 556 200 556 q 363 600 317 556 q 424 726 410 644 q 428 774 428 751 q 397 866 428 833 q 313 899 365 899 z "},"±":{"ha":800,"x_min":-15,"x_max":782,"o":"m 468 519 l 419 244 l 713 244 l 693 129 l -15 129 l 4 244 l 297 244 l 346 519 l 54 519 l 74 635 l 365 635 l 408 879 l 532 879 l 489 635 l 782 635 l 761 519 l 468 519 z "},"²":{"ha":478,"x_min":15,"x_max":443,"o":"m 440 847 q 387 745 431 790 q 258 649 343 700 l 128 567 l 397 567 l 385 489 l 15 489 l 28 558 l 221 693 q 308 773 278 736 q 338 858 338 810 q 320 901 338 888 q 275 914 303 914 q 208 889 235 914 q 168 817 181 864 l 69 817 q 149 939 89 890 q 299 988 208 988 q 406 956 368 988 q 443 875 443 925 q 440 847 443 867 z "},"³":{"ha":469,"x_min":19,"x_max":442,"o":"m 286 988 q 400 957 358 988 q 442 874 442 926 q 411 784 442 819 q 322 738 381 749 l 322 733 q 406 643 406 713 q 403 617 406 636 q 339 521 394 558 q 197 483 283 483 q 60 522 101 483 q 25 635 19 560 l 128 635 q 201 554 121 554 q 276 580 249 554 q 304 649 304 606 q 282 697 304 681 q 221 713 260 713 l 151 713 l 158 756 l 226 756 q 298 776 269 756 q 333 838 326 797 q 335 853 335 843 q 316 897 335 881 q 264 914 297 914 q 160 839 183 914 l 65 839 q 138 946 83 904 q 286 988 193 988 z "},"´":{"ha":376,"x_min":100,"x_max":443,"o":"m 425 985 l 100 822 l 117 913 l 443 1088 l 425 985 z "},"µ":{"ha":900,"x_min":-11,"x_max":886,"o":"m 886 763 l 751 0 l 625 0 l 656 172 q 533 35 611 83 q 363 -12 454 -12 q 259 11 304 -12 q 194 88 214 35 l 115 -361 l -11 -361 l 188 763 l 314 763 l 243 367 q 236 293 236 322 q 286 148 236 197 q 424 99 336 99 q 594 165 524 99 q 688 358 665 231 l 688 357 l 758 763 l 886 763 z "},"¶":{"ha":822,"x_min":58,"x_max":793,"o":"m 624 0 l 519 0 l 671 864 l 546 864 l 393 0 l 289 0 l 358 397 l 342 397 q 129 458 200 397 q 58 621 58 519 q 64 679 58 653 q 183 883 86 804 q 442 963 281 963 l 793 963 l 624 0 z "},"·":{"ha":253,"x_min":71,"x_max":250,"o":"m 250 544 l 224 396 l 71 396 l 96 544 l 250 544 z "},"¸":{"ha":392,"x_min":8,"x_max":346,"o":"m 189 -93 q 302 -118 258 -90 q 346 -204 346 -146 q 291 -322 346 -282 q 151 -361 236 -361 l 8 -361 l 21 -287 l 149 -287 q 228 -268 203 -287 q 254 -215 254 -249 q 234 -174 254 -190 q 172 -158 214 -158 l 97 -158 l 126 10 l 207 10 l 189 -93 z "},"¹":{"ha":279,"x_min":75,"x_max":268,"o":"m 75 899 l 89 978 l 268 978 l 182 489 l 83 489 l 156 899 l 75 899 z "},"º":{"ha":590,"x_min":42,"x_max":561,"o":"m 346 985 q 503 930 444 985 q 561 783 561 875 q 557 732 561 760 q 501 601 544 658 q 395 510 458 543 q 257 478 332 478 q 99 533 157 478 q 42 681 42 589 q 46 732 42 706 q 149 915 65 844 q 346 985 232 985 m 332 906 q 213 860 265 906 q 146 732 161 814 q 142 689 142 710 q 177 592 142 626 q 271 558 213 558 q 390 604 338 558 q 457 732 442 650 q 461 775 461 756 q 426 872 461 838 q 332 906 390 906 z "},"»":{"ha":640,"x_min":26,"x_max":582,"o":"m 207 410 l 113 653 l 238 653 l 326 410 l 151 167 l 26 167 l 207 410 m 463 410 l 368 653 l 493 653 l 582 410 l 407 167 l 282 167 l 463 410 z "},"¼":{"ha":919,"x_min":32,"x_max":832,"o":"m 832 979 l 157 0 l 32 0 l 707 979 l 832 979 m 104 899 l 118 978 l 297 978 l 211 489 l 113 489 l 185 899 l 104 899 m 803 97 l 736 97 l 719 0 l 621 0 l 638 97 l 383 97 l 394 154 l 682 492 l 807 492 l 749 158 l 815 158 l 803 97 m 696 400 l 492 161 l 654 161 l 696 400 z "},"½":{"ha":989,"x_min":29,"x_max":904,"o":"m 835 981 l 154 0 l 29 0 l 711 981 l 835 981 m 211 899 l 131 899 l 144 978 l 324 978 l 238 489 l 139 489 l 211 899 m 901 357 q 848 255 892 300 q 719 158 804 210 l 589 76 l 858 76 l 846 -1 l 476 -1 l 489 68 l 682 203 q 769 283 739 246 q 799 368 799 319 q 781 410 799 397 q 736 424 764 424 q 669 399 696 424 q 629 326 642 374 l 531 326 q 610 449 550 400 q 760 497 669 497 q 867 466 829 497 q 904 385 904 435 q 901 357 904 376 z "},"¾":{"ha":982,"x_min":51,"x_max":924,"o":"m 318 988 q 432 957 390 988 q 474 874 474 926 q 443 784 474 819 q 354 738 413 749 l 354 733 q 438 643 438 713 q 435 617 438 636 q 371 521 426 558 q 229 483 315 483 q 92 522 133 483 q 57 635 51 560 l 160 635 q 233 554 153 554 q 308 580 281 554 q 336 649 336 606 q 314 697 336 681 q 253 713 292 713 l 183 713 l 190 756 l 258 756 q 330 776 301 756 q 365 838 358 797 q 367 853 367 843 q 348 897 367 881 q 296 914 329 914 q 192 839 215 914 l 97 839 q 170 946 115 904 q 318 988 225 988 m 924 981 l 257 0 l 132 0 l 799 981 l 924 981 m 886 97 l 819 97 l 803 0 l 704 0 l 721 97 l 467 97 l 476 154 l 754 492 l 889 492 l 831 158 l 897 158 l 886 97 m 781 410 l 575 158 l 736 158 l 781 410 z "},"¿":{"ha":679,"x_min":-7,"x_max":614,"o":"m 256 -254 q 63 -192 133 -254 q -7 -21 -7 -131 q -1 42 -7 13 q 129 251 24 183 q 390 322 235 319 l 419 486 l 540 486 l 496 236 l 440 236 q 230 195 317 236 q 124 43 143 154 q 119 -1 119 19 q 161 -111 119 -72 q 278 -150 203 -150 q 418 -103 365 -150 q 493 26 471 -56 l 614 26 q 494 -178 586 -103 q 256 -254 401 -254 m 425 615 l 451 764 l 604 764 l 578 615 l 425 615 z "},"À":{"ha":919,"x_min":-57,"x_max":808,"o":"m 631 226 l 200 226 l 78 0 l -57 0 l 472 961 l 617 961 l 808 0 l 672 0 l 631 226 m 613 325 l 521 821 l 253 325 l 613 325 m 633 1131 l 617 1040 l 350 1203 l 369 1306 l 633 1131 z "},"Á":{"ha":919,"x_min":-56,"x_max":835,"o":"m 632 226 l 201 226 l 79 0 l -56 0 l 474 961 l 618 961 l 810 0 l 674 0 l 632 226 m 614 325 l 522 821 l 254 325 l 614 325 m 817 1203 l 492 1040 l 508 1131 l 835 1306 l 817 1203 z "},"Â":{"ha":919,"x_min":-53,"x_max":813,"o":"m 635 226 l 204 226 l 82 0 l -53 0 l 476 961 l 621 961 l 813 0 l 676 0 l 635 226 m 617 325 l 525 821 l 257 325 l 617 325 m 589 1182 l 375 1065 l 392 1154 l 604 1269 l 776 1154 l 760 1065 l 589 1182 z "},"Ã":{"ha":919,"x_min":-47,"x_max":819,"o":"m 640 226 l 210 226 l 88 0 l -47 0 l 482 961 l 626 961 l 818 0 l 682 0 l 640 226 m 622 325 l 531 821 l 263 325 l 622 325 m 521 1207 q 565 1198 547 1207 q 607 1171 582 1189 q 642 1147 628 1154 q 676 1139 657 1139 q 719 1156 700 1139 q 749 1204 739 1172 l 819 1204 q 756 1097 799 1135 q 658 1060 713 1060 q 611 1069 631 1060 q 568 1097 592 1079 q 535 1119 550 1111 q 503 1126 521 1126 q 431 1061 453 1126 l 361 1061 q 521 1207 410 1207 z "},"Ä":{"ha":919,"x_min":-49,"x_max":817,"o":"m 639 226 l 208 226 l 86 0 l -49 0 l 481 961 l 625 961 l 817 0 l 681 0 l 639 226 m 621 325 l 529 821 l 261 325 l 621 325 m 403 1142 q 428 1199 403 1175 q 485 1224 453 1224 q 528 1207 511 1224 q 544 1167 544 1190 q 519 1110 544 1135 q 461 1086 493 1086 q 419 1102 435 1086 q 403 1142 403 1118 m 633 1142 q 658 1199 633 1175 q 717 1224 683 1224 q 759 1208 743 1224 q 775 1167 775 1192 q 774 1154 775 1158 q 744 1106 767 1125 q 692 1086 721 1086 q 649 1102 665 1086 q 633 1142 633 1118 z "},"Å":{"ha":919,"x_min":-60,"x_max":806,"o":"m 628 226 l 197 226 l 75 0 l -60 0 l 469 961 l 614 961 l 806 0 l 669 0 l 628 226 m 610 325 l 518 821 l 250 325 l 610 325 m 604 1353 q 692 1322 657 1353 q 726 1238 726 1290 q 702 1145 726 1185 q 638 1083 678 1106 q 553 1061 597 1061 q 463 1093 497 1061 q 429 1178 429 1125 q 432 1207 429 1188 q 493 1313 444 1274 q 604 1353 542 1353 m 593 1294 q 522 1265 551 1294 q 492 1188 492 1235 q 511 1138 492 1156 q 563 1119 531 1119 q 635 1149 604 1119 q 665 1226 665 1179 q 646 1276 665 1258 q 593 1294 626 1294 z "},"Æ":{"ha":1236,"x_min":-78,"x_max":1261,"o":"m 833 876 l 775 544 l 1143 544 l 1125 446 l 757 446 l 697 103 l 1107 103 l 1089 0 l 553 0 l 592 222 l 228 222 l 63 0 l -78 0 l 650 979 l 1261 979 l 1243 876 l 833 876 m 704 863 l 300 319 l 608 319 l 704 863 z "},"Ç":{"ha":1060,"x_min":72,"x_max":1035,"o":"m 636 989 q 917 901 815 989 q 1035 660 1018 813 l 901 660 q 808 815 882 757 q 614 872 735 872 q 435 826 519 872 q 292 692 350 779 q 213 489 233 606 q 204 399 204 442 q 280 186 204 264 q 479 108 356 108 q 695 166 601 108 q 842 321 789 224 l 975 321 q 772 80 904 168 q 461 -8 640 -8 q 254 40 342 -8 q 119 176 167 89 q 72 381 72 264 q 82 489 72 436 q 186 749 107 635 q 382 926 265 863 q 636 989 499 989 m 513 -93 q 626 -118 582 -90 q 669 -204 669 -146 q 615 -322 669 -282 q 475 -361 560 -361 l 332 -361 l 344 -287 l 472 -287 q 552 -268 526 -287 q 578 -215 578 -249 q 558 -174 578 -190 q 496 -158 538 -158 l 421 -158 l 450 10 l 531 10 l 513 -93 z "},"È":{"ha":703,"x_min":11,"x_max":724,"o":"m 292 876 l 233 542 l 606 542 l 588 444 l 215 444 l 156 103 l 569 103 l 551 0 l 11 0 l 183 979 l 724 979 l 706 876 l 292 876 m 542 1131 l 525 1040 l 258 1203 l 278 1306 l 542 1131 z "},"É":{"ha":703,"x_min":11,"x_max":742,"o":"m 292 876 l 233 542 l 606 542 l 588 444 l 215 444 l 156 103 l 569 103 l 551 0 l 11 0 l 183 979 l 724 979 l 706 876 l 292 876 m 724 1203 l 399 1040 l 415 1131 l 742 1306 l 724 1203 z "},"Ê":{"ha":703,"x_min":14,"x_max":726,"o":"m 294 876 l 236 542 l 608 542 l 590 444 l 218 444 l 158 103 l 572 103 l 554 0 l 14 0 l 186 979 l 726 979 l 708 876 l 294 876 m 496 1182 l 282 1065 l 299 1154 l 511 1269 l 683 1154 l 667 1065 l 496 1182 z "},"Ë":{"ha":703,"x_min":18,"x_max":731,"o":"m 299 876 l 240 542 l 613 542 l 594 444 l 222 444 l 163 103 l 576 103 l 558 0 l 18 0 l 190 979 l 731 979 l 713 876 l 299 876 m 311 1142 q 336 1199 311 1175 q 393 1224 361 1224 q 436 1207 419 1224 q 453 1167 453 1190 q 427 1110 453 1135 q 369 1086 401 1086 q 327 1102 343 1086 q 311 1142 311 1118 m 542 1142 q 567 1199 542 1175 q 625 1224 592 1224 q 667 1208 651 1224 q 683 1167 683 1192 q 682 1154 683 1158 q 652 1106 675 1125 q 600 1086 629 1086 q 558 1102 574 1086 q 542 1142 542 1118 z "},"Ì":{"ha":329,"x_min":17,"x_max":339,"o":"m 315 979 l 143 0 l 17 0 l 189 979 l 315 979 m 339 1131 l 322 1040 l 56 1203 l 75 1306 l 339 1131 z "},"Í":{"ha":329,"x_min":17,"x_max":539,"o":"m 315 979 l 143 0 l 17 0 l 189 979 l 315 979 m 521 1203 l 196 1040 l 213 1131 l 539 1306 l 521 1203 z "},"Î":{"ha":329,"x_min":19,"x_max":482,"o":"m 318 979 l 146 0 l 19 0 l 192 979 l 318 979 m 294 1182 l 81 1065 l 97 1154 l 310 1269 l 482 1154 l 465 1065 l 294 1182 z "},"Ï":{"ha":329,"x_min":24,"x_max":482,"o":"m 322 979 l 150 0 l 24 0 l 196 979 l 322 979 m 110 1142 q 135 1199 110 1175 q 192 1224 160 1224 q 235 1207 218 1224 q 251 1167 251 1190 q 226 1110 251 1135 q 168 1086 200 1086 q 126 1102 142 1086 q 110 1142 110 1118 m 340 1142 q 365 1199 340 1175 q 424 1224 390 1224 q 466 1208 450 1224 q 482 1167 482 1192 q 481 1154 482 1158 q 451 1106 474 1125 q 399 1086 428 1086 q 356 1102 372 1086 q 340 1142 340 1118 z "},"Ð":{"ha":1031,"x_min":0,"x_max":972,"o":"m 533 979 q 860 880 747 979 q 972 603 972 781 q 963 490 972 544 q 857 231 936 342 q 651 60 778 121 q 361 0 525 0 l 50 0 l 128 439 l 0 439 l 18 542 l 146 542 l 222 979 l 533 979 m 833 490 q 842 582 842 539 q 756 794 842 719 q 504 868 669 868 l 331 868 l 272 542 l 546 542 l 528 439 l 254 439 l 197 114 l 371 114 q 683 213 564 114 q 833 490 803 313 z "},"Ñ":{"ha":964,"x_min":19,"x_max":953,"o":"m 781 0 l 654 0 l 282 774 l 146 0 l 19 0 l 192 979 l 318 979 l 690 204 l 826 979 l 953 979 l 781 0 m 538 1207 q 581 1198 564 1207 q 624 1171 599 1189 q 659 1147 644 1154 q 693 1139 674 1139 q 736 1156 717 1139 q 765 1204 756 1172 l 836 1204 q 772 1097 815 1135 q 675 1060 729 1060 q 628 1069 647 1060 q 585 1097 608 1079 q 552 1119 567 1111 q 519 1126 538 1126 q 447 1061 469 1126 l 378 1061 q 538 1207 426 1207 z "},"Ò":{"ha":1090,"x_min":57,"x_max":1028,"o":"m 617 992 q 835 941 742 992 q 978 798 928 890 q 1028 583 1028 706 q 1018 471 1028 525 q 916 221 993 331 q 723 50 839 111 q 469 -11 607 -11 q 249 40 342 -11 q 106 183 156 90 q 57 396 57 275 q 67 510 57 456 q 169 760 92 650 q 363 931 246 869 q 617 992 479 992 m 606 874 q 419 828 506 874 q 272 696 332 782 q 192 496 213 610 q 183 407 183 450 q 264 188 183 268 q 481 107 344 107 q 666 153 579 107 q 813 286 753 200 q 893 486 874 372 q 901 575 901 532 q 821 794 901 714 q 606 874 740 874 m 719 1131 l 703 1040 l 436 1203 l 456 1306 l 719 1131 z "},"Ó":{"ha":1090,"x_min":53,"x_max":1024,"o":"m 613 992 q 831 941 738 992 q 974 798 924 890 q 1024 583 1024 706 q 1014 471 1024 525 q 912 221 989 331 q 719 50 835 111 q 465 -11 603 -11 q 244 40 338 -11 q 102 183 151 90 q 53 396 53 275 q 63 510 53 456 q 165 760 88 650 q 358 931 242 869 q 613 992 475 992 m 601 874 q 415 828 501 874 q 268 696 328 782 q 188 496 208 610 q 179 407 179 450 q 260 188 179 268 q 476 107 340 107 q 662 153 575 107 q 809 286 749 200 q 889 486 869 372 q 897 575 897 532 q 817 794 897 714 q 601 874 736 874 m 899 1203 l 574 1040 l 590 1131 l 917 1306 l 899 1203 z "},"Ô":{"ha":1090,"x_min":56,"x_max":1026,"o":"m 615 992 q 833 941 740 992 q 976 798 926 890 q 1026 583 1026 706 q 1017 471 1026 525 q 915 221 992 331 q 722 50 838 111 q 468 -11 606 -11 q 247 40 340 -11 q 105 183 154 90 q 56 396 56 275 q 65 510 56 456 q 167 760 90 650 q 361 931 244 869 q 615 992 478 992 m 604 874 q 417 828 504 874 q 271 696 331 782 q 190 496 211 610 q 182 407 182 450 q 263 188 182 268 q 479 107 343 107 q 665 153 578 107 q 812 286 751 200 q 892 486 872 372 q 900 575 900 532 q 819 794 900 714 q 604 874 739 874 m 671 1182 l 457 1065 l 474 1154 l 686 1269 l 858 1154 l 842 1065 l 671 1182 z "},"Õ":{"ha":1090,"x_min":61,"x_max":1032,"o":"m 621 992 q 839 941 746 992 q 982 798 932 890 q 1032 583 1032 706 q 1022 471 1032 525 q 920 221 997 331 q 727 50 843 111 q 474 -11 611 -11 q 253 40 346 -11 q 110 183 160 90 q 61 396 61 275 q 71 510 61 456 q 173 760 96 650 q 367 931 250 869 q 621 992 483 992 m 610 874 q 423 828 510 874 q 276 696 336 782 q 196 496 217 610 q 188 407 188 450 q 268 188 188 268 q 485 107 349 107 q 670 153 583 107 q 817 286 757 200 q 897 486 878 372 q 906 575 906 532 q 825 794 906 714 q 610 874 744 874 m 603 1207 q 647 1198 629 1207 q 689 1171 664 1189 q 724 1147 710 1154 q 758 1139 739 1139 q 801 1156 782 1139 q 831 1204 821 1172 l 901 1204 q 838 1097 881 1135 q 740 1060 794 1060 q 693 1069 713 1060 q 650 1097 674 1079 q 617 1119 632 1111 q 585 1126 603 1126 q 513 1061 535 1126 l 443 1061 q 603 1207 492 1207 z "},"Ö":{"ha":1090,"x_min":60,"x_max":1031,"o":"m 619 992 q 838 941 744 992 q 981 798 931 890 q 1031 583 1031 706 q 1021 471 1031 525 q 919 221 996 331 q 726 50 842 111 q 472 -11 610 -11 q 251 40 344 -11 q 109 183 158 90 q 60 396 60 275 q 69 510 60 456 q 172 760 94 650 q 365 931 249 869 q 619 992 482 992 m 608 874 q 422 828 508 874 q 275 696 335 782 q 194 496 215 610 q 186 407 186 450 q 267 188 186 268 q 483 107 347 107 q 669 153 582 107 q 816 286 756 200 q 896 486 876 372 q 904 575 904 532 q 824 794 904 714 q 608 874 743 874 m 486 1142 q 511 1199 486 1175 q 568 1224 536 1224 q 611 1207 594 1224 q 628 1167 628 1190 q 602 1110 628 1135 q 544 1086 576 1086 q 502 1102 518 1086 q 486 1142 486 1118 m 717 1142 q 742 1199 717 1175 q 800 1224 767 1224 q 842 1208 826 1224 q 858 1167 858 1192 q 857 1154 858 1158 q 827 1106 850 1125 q 775 1086 804 1086 q 733 1102 749 1086 q 717 1142 717 1118 z "},"×":{"ha":707,"x_min":13,"x_max":699,"o":"m 442 514 l 626 289 l 528 204 l 342 429 l 81 206 l 13 288 l 274 511 l 92 732 l 192 815 l 374 596 l 631 815 l 699 733 l 442 514 z "},"Ø":{"ha":1099,"x_min":-24,"x_max":1121,"o":"m 960 833 q 1031 583 1031 731 q 1021 471 1031 525 q 919 221 996 331 q 726 50 842 111 q 472 -11 610 -11 q 299 18 376 -11 q 168 103 222 47 l 57 0 l -24 0 l 133 144 q 60 397 60 246 q 69 510 60 456 q 172 760 94 650 q 365 931 249 869 q 619 992 482 992 q 793 961 715 992 q 926 874 871 931 l 1043 982 l 1121 982 l 960 833 m 194 496 q 186 407 186 450 q 231 233 186 306 l 831 786 q 735 851 792 829 q 608 874 678 874 q 422 828 508 874 q 275 696 335 782 q 194 496 215 610 m 896 486 q 904 574 904 532 q 863 743 904 671 l 264 190 q 359 128 303 150 q 483 107 415 107 q 669 153 582 107 q 816 286 756 200 q 896 486 876 372 z "},"Ù":{"ha":918,"x_min":65,"x_max":908,"o":"m 306 979 l 203 392 q 194 304 194 344 q 246 158 194 206 q 392 110 297 110 q 577 178 503 110 q 678 392 651 247 l 782 979 l 908 979 l 806 392 q 652 91 769 192 q 368 -10 535 -10 q 146 64 226 -10 q 65 283 65 138 q 75 392 65 338 l 179 979 l 306 979 m 629 1131 l 613 1040 l 346 1203 l 365 1306 l 629 1131 z "},"Ú":{"ha":918,"x_min":65,"x_max":908,"o":"m 306 979 l 203 392 q 194 304 194 344 q 246 158 194 206 q 392 110 297 110 q 577 178 503 110 q 678 392 651 247 l 782 979 l 908 979 l 806 392 q 652 91 769 192 q 368 -10 535 -10 q 146 64 226 -10 q 65 283 65 138 q 75 392 65 338 l 179 979 l 306 979 m 811 1203 l 486 1040 l 503 1131 l 829 1306 l 811 1203 z "},"Û":{"ha":918,"x_min":68,"x_max":911,"o":"m 308 979 l 206 392 q 197 304 197 344 q 249 158 197 206 q 394 110 300 110 q 580 178 506 110 q 681 392 654 247 l 785 979 l 911 979 l 808 392 q 655 91 772 192 q 371 -10 538 -10 q 149 64 229 -10 q 68 283 68 138 q 78 392 68 338 l 182 979 l 308 979 m 583 1182 l 369 1065 l 386 1154 l 599 1269 l 771 1154 l 754 1065 l 583 1182 z "},"Ü":{"ha":918,"x_min":72,"x_max":915,"o":"m 313 979 l 210 392 q 201 304 201 344 q 253 158 201 206 q 399 110 304 110 q 584 178 510 110 q 685 392 658 247 l 789 979 l 915 979 l 813 392 q 659 91 776 192 q 375 -10 542 -10 q 153 64 233 -10 q 72 283 72 138 q 82 392 72 338 l 186 979 l 313 979 m 399 1142 q 424 1199 399 1175 q 481 1224 449 1224 q 524 1207 507 1224 q 540 1167 540 1190 q 515 1110 540 1135 q 457 1086 489 1086 q 415 1102 431 1086 q 399 1142 399 1118 m 629 1142 q 654 1199 629 1175 q 713 1224 679 1224 q 755 1208 739 1224 q 771 1167 771 1192 q 769 1154 771 1158 q 740 1106 763 1125 q 688 1086 717 1086 q 645 1102 661 1086 q 629 1142 629 1118 z "},"Ý":{"ha":824,"x_min":108,"x_max":879,"o":"m 879 979 l 451 371 l 386 0 l 258 0 l 324 371 l 108 979 l 256 979 l 411 506 l 735 979 l 879 979 m 764 1203 l 439 1040 l 456 1131 l 782 1306 l 764 1203 z "},"Þ":{"ha":793,"x_min":15,"x_max":753,"o":"m 178 204 l 142 0 l 15 0 l 188 979 l 314 979 l 278 779 l 464 779 q 681 720 610 779 q 753 556 753 661 q 747 490 753 519 q 624 279 724 354 q 363 204 525 204 l 178 204 m 368 304 q 618 490 586 304 q 622 540 622 518 q 578 642 622 607 q 435 678 533 678 l 263 678 l 196 304 l 368 304 z "},"ß":{"ha":903,"x_min":10,"x_max":824,"o":"m 674 514 q 788 405 751 463 q 824 274 824 347 q 818 211 824 240 q 721 49 800 113 q 525 -14 642 -14 q 347 44 411 -14 q 282 204 282 101 q 286 253 282 228 l 393 253 q 390 219 390 231 q 424 131 390 164 q 521 97 457 97 q 638 138 593 97 q 694 233 683 178 q 697 269 697 246 q 675 347 697 311 q 601 421 653 382 l 407 564 l 417 615 l 468 639 q 544 694 517 661 q 579 775 571 728 q 582 807 582 797 q 548 892 582 860 q 454 924 514 924 q 333 881 382 924 q 271 761 285 838 l 138 0 l 10 0 l 146 765 q 257 969 169 897 q 483 1042 344 1042 q 657 990 593 1042 q 721 851 721 938 q 674 715 721 775 q 536 619 626 656 l 529 617 l 674 514 z "},"à":{"ha":938,"x_min":57,"x_max":906,"o":"m 481 772 q 663 716 593 772 q 746 568 732 660 l 781 763 l 906 763 l 771 0 l 644 0 l 679 194 q 547 47 635 103 q 349 -10 460 -10 q 135 70 214 -10 q 57 290 57 150 q 67 390 57 342 q 147 594 88 507 q 294 726 207 681 q 481 772 381 772 m 503 660 q 301 585 385 660 q 196 381 218 511 q 189 313 189 342 q 246 157 189 213 q 404 101 303 101 q 543 136 478 101 q 653 234 608 171 q 713 381 697 297 q 718 443 718 410 q 659 601 718 543 q 503 660 600 660 m 586 913 l 569 822 l 303 985 l 322 1088 l 586 913 z "},"á":{"ha":938,"x_min":57,"x_max":906,"o":"m 481 772 q 663 716 593 772 q 746 568 732 660 l 781 763 l 906 763 l 771 0 l 644 0 l 679 194 q 547 47 635 103 q 349 -10 460 -10 q 135 70 214 -10 q 57 290 57 150 q 67 390 57 342 q 147 594 88 507 q 294 726 207 681 q 481 772 381 772 m 503 660 q 301 585 385 660 q 196 381 218 511 q 189 313 189 342 q 246 157 189 213 q 404 101 303 101 q 543 136 478 101 q 653 234 608 171 q 713 381 697 297 q 718 443 718 410 q 659 601 718 543 q 503 660 600 660 m 769 985 l 444 822 l 461 913 l 788 1088 l 769 985 z "},"â":{"ha":938,"x_min":51,"x_max":900,"o":"m 475 772 q 657 716 588 772 q 740 568 726 660 l 775 763 l 900 763 l 765 0 l 639 0 l 674 194 q 542 47 629 103 q 343 -10 454 -10 q 130 70 208 -10 q 51 290 51 150 q 61 390 51 342 q 142 594 82 507 q 288 726 201 681 q 475 772 375 772 m 497 660 q 296 585 379 660 q 190 381 213 511 q 183 313 183 342 q 240 157 183 213 q 399 101 297 101 q 538 136 472 101 q 647 234 603 171 q 707 381 692 297 q 713 443 713 410 q 653 601 713 543 q 497 660 594 660 m 532 964 l 318 847 l 335 936 l 547 1051 l 719 936 l 703 847 l 532 964 z "},"ã":{"ha":938,"x_min":65,"x_max":914,"o":"m 489 772 q 671 716 601 772 q 754 568 740 660 l 789 763 l 914 763 l 779 0 l 653 0 l 688 194 q 556 47 643 103 q 357 -10 468 -10 q 144 70 222 -10 q 65 290 65 150 q 75 390 65 342 q 156 594 96 507 q 302 726 215 681 q 489 772 389 772 m 511 660 q 310 585 393 660 q 204 381 226 511 q 197 313 197 342 q 254 157 197 213 q 413 101 311 101 q 551 136 486 101 q 661 234 617 171 q 721 381 706 297 q 726 443 726 410 q 667 601 726 543 q 511 660 608 660 m 474 989 q 517 980 500 989 q 560 953 535 971 q 595 928 581 936 q 629 921 610 921 q 672 938 653 921 q 701 986 692 954 l 772 986 q 708 879 751 917 q 611 842 665 842 q 564 851 583 842 q 521 879 544 861 q 488 901 503 893 q 456 908 474 908 q 383 843 406 908 l 314 843 q 474 989 363 989 z "},"ä":{"ha":938,"x_min":65,"x_max":914,"o":"m 489 772 q 671 716 601 772 q 754 568 740 660 l 789 763 l 914 763 l 779 0 l 653 0 l 688 194 q 556 47 643 103 q 357 -10 468 -10 q 144 70 222 -10 q 65 290 65 150 q 75 390 65 342 q 156 594 96 507 q 302 726 215 681 q 489 772 389 772 m 511 660 q 310 585 393 660 q 204 381 226 511 q 197 313 197 342 q 254 157 197 213 q 413 101 311 101 q 551 136 486 101 q 661 234 617 171 q 721 381 706 297 q 726 443 726 410 q 667 601 726 543 q 511 660 608 660 m 357 924 q 382 981 357 957 q 439 1006 407 1006 q 482 989 465 1006 q 499 949 499 972 q 473 892 499 917 q 415 868 447 868 q 373 884 389 868 q 357 924 357 900 m 588 924 q 613 981 588 957 q 671 1006 638 1006 q 713 990 697 1006 q 729 949 729 974 q 728 936 729 940 q 698 888 721 907 q 646 868 675 868 q 603 884 619 868 q 588 924 588 900 z "},"å":{"ha":938,"x_min":43,"x_max":892,"o":"m 467 772 q 649 716 579 772 q 732 568 718 660 l 767 763 l 892 763 l 757 0 l 631 0 l 665 194 q 533 47 621 103 q 335 -10 446 -10 q 122 70 200 -10 q 43 290 43 150 q 53 390 43 342 q 133 594 74 507 q 280 726 193 681 q 467 772 367 772 m 489 660 q 288 585 371 660 q 182 381 204 511 q 175 313 175 342 q 232 157 175 213 q 390 101 289 101 q 529 136 464 101 q 639 234 594 171 q 699 381 683 297 q 704 443 704 410 q 645 601 704 543 q 489 660 586 660 m 547 1135 q 635 1103 600 1135 q 669 1019 669 1072 q 645 927 669 967 q 581 865 621 888 q 496 843 540 843 q 406 875 440 843 q 372 960 372 907 q 375 989 372 969 q 436 1095 388 1056 q 547 1135 485 1135 m 536 1076 q 465 1047 494 1076 q 435 969 435 1017 q 454 919 435 938 q 506 901 474 901 q 578 931 547 901 q 608 1008 608 961 q 589 1058 608 1040 q 536 1076 569 1076 z "},"æ":{"ha":1538,"x_min":56,"x_max":1488,"o":"m 1203 772 q 1413 695 1339 772 q 1488 496 1488 618 q 1481 424 1488 465 q 1461 354 1472 381 l 835 354 q 831 301 831 328 q 890 144 831 196 q 1043 92 949 92 q 1211 138 1139 92 q 1313 264 1283 183 l 1447 264 q 1301 66 1403 142 q 1064 -10 1199 -10 q 885 43 956 -10 q 803 194 814 96 l 768 0 l 642 0 l 676 194 q 544 47 632 103 q 344 -10 456 -10 q 134 69 213 -10 q 56 288 56 149 q 64 381 56 331 q 145 589 85 500 q 294 725 206 678 q 483 772 382 772 q 662 717 594 772 q 743 568 729 661 l 778 763 l 903 763 l 868 567 q 1001 719 914 667 q 1203 772 1089 772 m 1351 415 q 1360 483 1360 453 q 1299 622 1360 575 q 1149 669 1239 669 q 956 607 1038 669 q 846 415 874 544 l 1351 415 m 710 381 q 715 443 715 410 q 656 601 715 543 q 500 660 597 660 q 299 585 382 660 q 193 381 215 511 q 186 313 186 342 q 243 157 186 213 q 401 101 300 101 q 540 136 475 101 q 650 234 606 171 q 710 381 694 297 z "},"ç":{"ha":864,"x_min":63,"x_max":825,"o":"m 510 772 q 742 694 658 772 q 824 486 825 617 l 690 486 q 637 615 690 568 q 492 661 583 661 q 306 590 388 661 q 199 381 224 518 q 192 308 192 336 q 248 153 192 206 q 393 100 304 100 q 555 147 485 100 q 654 276 625 194 l 788 276 q 633 67 742 144 q 376 -10 524 -10 q 148 72 233 -10 q 63 296 63 153 q 71 390 63 340 q 154 594 92 507 q 309 726 217 681 q 510 772 401 772 m 401 -93 q 515 -118 471 -90 q 558 -204 558 -146 q 503 -322 558 -282 q 364 -361 449 -361 l 221 -361 l 233 -287 l 361 -287 q 441 -268 415 -287 q 467 -215 467 -249 q 447 -174 467 -190 q 385 -158 426 -158 l 310 -158 l 339 10 l 419 10 l 401 -93 z "},"è":{"ha":865,"x_min":53,"x_max":813,"o":"m 504 772 q 672 735 603 772 q 777 635 742 699 q 813 492 813 572 q 807 424 813 456 q 788 354 799 381 l 181 354 q 175 294 175 313 q 233 144 175 194 q 379 93 290 93 q 540 140 469 93 q 639 264 611 186 l 774 264 q 621 66 729 142 q 367 -10 513 -10 q 138 71 222 -10 q 53 294 53 151 q 61 386 53 339 q 146 592 82 504 q 303 726 210 679 q 504 772 396 772 m 679 415 q 688 485 688 453 q 630 622 688 575 q 486 669 572 669 q 300 605 383 669 q 190 415 217 540 l 679 415 m 565 913 l 549 822 l 282 985 l 301 1088 l 565 913 z "},"é":{"ha":865,"x_min":53,"x_max":813,"o":"m 504 772 q 672 735 603 772 q 777 635 742 699 q 813 492 813 572 q 807 424 813 456 q 788 354 799 381 l 181 354 q 175 294 175 313 q 233 144 175 194 q 379 93 290 93 q 540 140 469 93 q 639 264 611 186 l 774 264 q 621 66 729 142 q 367 -10 513 -10 q 138 71 222 -10 q 53 294 53 151 q 61 386 53 339 q 146 592 82 504 q 303 726 210 679 q 504 772 396 772 m 679 415 q 688 485 688 453 q 630 622 688 575 q 486 669 572 669 q 300 605 383 669 q 190 415 217 540 l 679 415 m 749 985 l 424 822 l 440 913 l 767 1088 l 749 985 z "},"ê":{"ha":865,"x_min":56,"x_max":815,"o":"m 507 772 q 675 735 606 772 q 780 635 744 699 q 815 492 815 572 q 810 424 815 456 q 790 354 801 381 l 183 354 q 178 294 178 313 q 235 144 178 194 q 382 93 293 93 q 543 140 472 93 q 642 264 614 186 l 776 264 q 624 66 732 142 q 369 -10 515 -10 q 140 71 225 -10 q 56 294 56 151 q 64 386 56 339 q 149 592 85 504 q 306 726 213 679 q 507 772 399 772 m 682 415 q 690 485 690 453 q 633 622 690 575 q 489 669 575 669 q 303 605 386 669 q 193 415 219 540 l 682 415 m 521 964 l 307 847 l 324 936 l 536 1051 l 708 936 l 692 847 l 521 964 z "},"ë":{"ha":865,"x_min":60,"x_max":819,"o":"m 511 772 q 679 735 610 772 q 784 635 749 699 q 819 492 819 572 q 814 424 819 456 q 794 354 806 381 l 188 354 q 182 294 182 313 q 240 144 182 194 q 386 93 297 93 q 547 140 476 93 q 646 264 618 186 l 781 264 q 628 66 736 142 q 374 -10 519 -10 q 144 71 229 -10 q 60 294 60 151 q 68 386 60 339 q 153 592 89 504 q 310 726 217 679 q 511 772 403 772 m 686 415 q 694 485 694 453 q 637 622 694 575 q 493 669 579 669 q 307 605 390 669 q 197 415 224 540 l 686 415 m 335 924 q 360 981 335 957 q 417 1006 385 1006 q 460 989 443 1006 q 476 949 476 972 q 451 892 476 917 q 393 868 425 868 q 351 884 367 868 q 335 924 335 900 m 565 924 q 590 981 565 957 q 649 1006 615 1006 q 691 990 675 1006 q 707 949 707 974 q 706 936 707 940 q 676 888 699 907 q 624 868 653 868 q 581 884 597 868 q 565 924 565 900 z "},"ì":{"ha":329,"x_min":29,"x_max":313,"o":"m 294 763 l 160 0 l 32 0 l 168 763 l 294 763 m 313 913 l 296 822 l 29 985 l 49 1088 l 313 913 z "},"í":{"ha":329,"x_min":32,"x_max":514,"o":"m 294 763 l 160 0 l 32 0 l 168 763 l 294 763 m 496 985 l 171 822 l 188 913 l 514 1088 l 496 985 z "},"î":{"ha":329,"x_min":35,"x_max":446,"o":"m 297 763 l 163 0 l 35 0 l 171 763 l 297 763 m 258 964 l 44 847 l 61 936 l 274 1051 l 446 936 l 429 847 l 258 964 z "},"ï":{"ha":329,"x_min":39,"x_max":456,"o":"m 301 763 l 167 0 l 39 0 l 175 763 l 301 763 m 83 924 q 108 981 83 957 q 165 1006 133 1006 q 208 989 192 1006 q 225 949 225 972 q 199 892 225 917 q 142 868 174 868 q 99 884 115 868 q 83 924 83 900 m 314 924 q 339 981 314 957 q 397 1006 364 1006 q 440 990 424 1006 q 456 949 456 974 q 454 936 456 940 q 424 888 447 907 q 372 868 401 868 q 330 884 346 868 q 314 924 314 900 z "},"ð":{"ha":890,"x_min":40,"x_max":856,"o":"m 847 975 l 708 931 q 833 560 833 764 q 822 432 833 492 q 731 190 797 289 q 570 40 665 90 q 364 -10 475 -10 q 128 76 215 -10 q 40 307 40 163 q 49 396 40 350 q 131 596 68 510 q 286 728 193 682 q 489 775 379 775 q 639 728 576 775 q 718 590 701 682 q 692 756 715 681 q 618 901 668 831 l 418 838 l 428 890 l 589 942 q 507 1028 553 983 l 622 1028 l 678 969 l 856 1026 l 847 975 m 685 381 q 692 447 692 419 q 632 607 692 550 q 481 664 572 664 q 285 594 369 664 q 178 396 201 524 q 171 324 171 351 q 229 159 171 217 q 383 101 288 101 q 576 175 492 101 q 685 381 661 249 z "},"ñ":{"ha":893,"x_min":36,"x_max":821,"o":"m 576 775 q 755 712 689 775 q 821 528 821 649 q 814 443 821 482 l 735 0 l 608 0 l 685 432 q 690 494 690 461 q 643 624 690 579 q 510 668 596 668 q 332 601 406 668 q 236 404 258 533 l 236 410 l 164 0 l 36 0 l 171 763 l 299 763 l 267 583 q 396 726 313 676 q 576 775 479 775 m 467 989 q 510 980 493 989 q 553 953 528 971 q 588 928 574 936 q 622 921 603 921 q 665 938 646 921 q 694 986 685 954 l 765 986 q 701 879 744 917 q 604 842 658 842 q 557 851 576 842 q 514 879 538 861 q 481 901 496 893 q 449 908 467 908 q 376 843 399 908 l 307 843 q 467 989 356 989 z "},"ò":{"ha":893,"x_min":57,"x_max":840,"o":"m 515 772 q 685 735 611 772 q 799 627 758 697 q 840 460 840 557 q 832 371 840 417 q 747 168 811 254 q 588 36 682 82 q 385 -10 493 -10 q 147 74 236 -10 q 57 303 57 157 q 65 390 57 344 q 151 594 86 507 q 312 726 217 681 q 515 772 407 772 m 499 661 q 367 631 431 661 q 258 537 304 600 q 194 381 211 474 q 188 311 188 339 q 247 155 188 208 q 400 101 307 101 q 531 132 468 101 q 640 226 593 163 q 703 381 686 289 q 710 450 710 422 q 650 608 710 554 q 499 661 590 661 m 583 913 l 567 822 l 300 985 l 319 1088 l 583 913 z "},"ó":{"ha":893,"x_min":57,"x_max":840,"o":"m 515 772 q 685 735 611 772 q 799 627 758 697 q 840 460 840 557 q 832 371 840 417 q 747 168 811 254 q 588 36 682 82 q 385 -10 493 -10 q 147 74 236 -10 q 57 303 57 157 q 65 390 57 344 q 151 594 86 507 q 312 726 217 681 q 515 772 407 772 m 499 661 q 367 631 431 661 q 258 537 304 600 q 194 381 211 474 q 188 311 188 339 q 247 155 188 208 q 400 101 307 101 q 531 132 468 101 q 640 226 593 163 q 703 381 686 289 q 710 450 710 422 q 650 608 710 554 q 499 661 590 661 m 767 985 l 442 822 l 458 913 l 785 1088 l 767 985 z "},"ô":{"ha":893,"x_min":56,"x_max":839,"o":"m 514 772 q 683 735 610 772 q 798 627 757 697 q 839 460 839 557 q 831 371 839 417 q 745 168 810 254 q 586 36 681 82 q 383 -10 492 -10 q 145 74 235 -10 q 56 303 56 157 q 64 390 56 344 q 150 594 85 507 q 310 726 215 681 q 514 772 406 772 m 497 661 q 366 631 429 661 q 256 537 303 600 q 193 381 210 474 q 186 311 186 339 q 246 155 186 208 q 399 101 306 101 q 529 132 467 101 q 638 226 592 163 q 701 381 685 289 q 708 450 708 422 q 649 608 708 554 q 497 661 589 661 m 533 964 l 319 847 l 336 936 l 549 1051 l 721 936 l 704 847 l 533 964 z "},"õ":{"ha":893,"x_min":67,"x_max":850,"o":"m 525 772 q 694 735 621 772 q 809 627 768 697 q 850 460 850 557 q 842 371 850 417 q 756 168 821 254 q 597 36 692 82 q 394 -10 503 -10 q 156 74 246 -10 q 67 303 67 157 q 75 390 67 344 q 161 594 96 507 q 322 726 226 681 q 525 772 417 772 m 508 661 q 377 631 440 661 q 267 537 314 600 q 204 381 221 474 q 197 311 197 339 q 257 155 197 208 q 410 101 317 101 q 540 132 478 101 q 649 226 603 163 q 713 381 696 289 q 719 450 719 422 q 660 608 719 554 q 508 661 600 661 m 471 989 q 515 980 497 989 q 557 953 532 971 q 592 928 578 936 q 626 921 607 921 q 669 938 650 921 q 699 986 689 954 l 769 986 q 706 879 749 917 q 608 842 663 842 q 561 851 581 842 q 518 879 542 861 q 485 901 500 893 q 453 908 471 908 q 381 843 403 908 l 311 843 q 471 989 360 989 z "},"ö":{"ha":893,"x_min":65,"x_max":849,"o":"m 524 772 q 693 735 619 772 q 808 627 767 697 q 849 460 849 557 q 840 371 849 417 q 755 168 819 254 q 596 36 690 82 q 393 -10 501 -10 q 155 74 244 -10 q 65 303 65 157 q 74 390 65 344 q 160 594 94 507 q 320 726 225 681 q 524 772 415 772 m 507 661 q 376 631 439 661 q 266 537 313 600 q 203 381 219 474 q 196 311 196 339 q 256 155 196 208 q 408 101 315 101 q 539 132 476 101 q 648 226 601 163 q 711 381 694 289 q 718 450 718 422 q 658 608 718 554 q 507 661 599 661 m 353 924 q 378 981 353 957 q 435 1006 403 1006 q 478 989 461 1006 q 494 949 494 972 q 469 892 494 917 q 411 868 443 868 q 369 884 385 868 q 353 924 353 900 m 583 924 q 608 981 583 957 q 667 1006 633 1006 q 709 990 693 1006 q 725 949 725 974 q 724 936 725 940 q 694 888 717 907 q 642 868 671 868 q 599 884 615 868 q 583 924 583 900 z "},"÷":{"ha":800,"x_min":35,"x_max":764,"o":"m 543 889 l 517 742 l 364 742 l 390 889 l 543 889 m 764 565 l 743 450 l 35 450 l 56 565 l 764 565 m 435 278 l 408 131 l 256 131 l 282 278 l 435 278 z "},"ø":{"ha":886,"x_min":-11,"x_max":889,"o":"m 772 654 q 831 460 831 576 q 822 371 831 417 q 737 168 801 254 q 578 36 672 82 q 375 -10 483 -10 q 242 11 303 -10 q 139 72 182 32 l 60 0 l -11 0 l 106 108 q 47 303 47 186 q 56 390 47 344 q 142 594 76 507 q 302 726 207 681 q 506 772 397 772 q 740 690 650 772 l 818 763 l 889 763 l 772 654 m 185 381 q 178 313 178 339 q 204 199 178 247 l 644 603 q 489 661 588 661 q 358 631 421 661 q 248 537 294 600 q 185 381 201 474 m 693 381 q 700 449 700 422 q 674 564 700 515 l 233 160 q 390 101 290 101 q 521 132 458 101 q 630 226 583 163 q 693 381 676 289 z "},"ù":{"ha":881,"x_min":61,"x_max":846,"o":"m 846 763 l 711 0 l 583 0 l 614 176 q 486 36 569 85 q 306 -12 403 -12 q 127 51 193 -12 q 61 233 61 114 q 68 318 61 281 l 147 763 l 274 763 l 197 331 q 192 268 192 301 q 239 138 192 183 q 372 93 286 93 q 542 153 471 93 q 642 331 614 214 l 718 763 l 846 763 m 567 913 l 550 822 l 283 985 l 303 1088 l 567 913 z "},"ú":{"ha":881,"x_min":61,"x_max":846,"o":"m 846 763 l 711 0 l 583 0 l 614 176 q 486 36 569 85 q 306 -12 403 -12 q 127 51 193 -12 q 61 233 61 114 q 68 318 61 281 l 147 763 l 274 763 l 197 331 q 192 268 192 301 q 239 138 192 183 q 372 93 286 93 q 542 153 471 93 q 642 331 614 214 l 718 763 l 846 763 m 750 985 l 425 822 l 442 913 l 768 1088 l 750 985 z "},"û":{"ha":881,"x_min":64,"x_max":849,"o":"m 849 763 l 714 0 l 586 0 l 617 176 q 489 36 572 85 q 308 -12 406 -12 q 130 51 196 -12 q 64 233 64 114 q 71 318 64 281 l 150 763 l 276 763 l 200 331 q 194 268 194 301 q 242 138 194 183 q 375 93 289 93 q 545 153 474 93 q 644 331 617 214 l 721 763 l 849 763 m 522 964 l 308 847 l 325 936 l 538 1051 l 710 936 l 693 847 l 522 964 z "},"ü":{"ha":881,"x_min":68,"x_max":853,"o":"m 853 763 l 718 0 l 590 0 l 621 176 q 493 36 576 85 q 313 -12 410 -12 q 134 51 200 -12 q 68 233 68 114 q 75 318 68 281 l 154 763 l 281 763 l 204 331 q 199 268 199 301 q 246 138 199 183 q 379 93 293 93 q 549 153 478 93 q 649 331 621 214 l 725 763 l 853 763 m 338 924 q 363 981 338 957 q 419 1006 388 1006 q 463 989 446 1006 q 479 949 479 972 q 453 892 479 917 q 396 868 428 868 q 353 884 369 868 q 338 924 338 900 m 568 924 q 593 981 568 957 q 651 1006 618 1006 q 694 990 678 1006 q 710 949 710 974 q 708 936 710 940 q 678 888 701 907 q 626 868 656 868 q 584 884 600 868 q 568 924 568 900 z "},"ý":{"ha":785,"x_min":3,"x_max":797,"o":"m 181 763 l 322 163 l 657 763 l 797 763 l 146 -361 l 3 -361 l 228 13 l 39 763 l 181 763 m 707 985 l 382 822 l 399 913 l 725 1088 l 707 985 z "},"þ":{"ha":936,"x_min":-26,"x_max":885,"o":"m 588 769 q 805 688 725 769 q 885 467 885 607 q 876 379 885 425 q 795 170 856 258 q 647 36 735 82 q 458 -10 560 -10 q 282 43 350 -10 q 196 186 214 96 l 100 -361 l -26 -361 l 218 1028 l 344 1028 l 267 582 q 399 719 315 668 q 588 769 482 769 m 440 101 q 640 174 556 101 q 747 379 724 247 q 753 446 753 411 q 695 603 753 547 q 539 660 638 660 q 401 626 467 660 q 291 528 336 592 q 231 381 246 465 q 225 318 225 351 q 285 159 225 217 q 440 101 344 101 z "},"ÿ":{"ha":785,"x_min":28,"x_max":822,"o":"m 206 763 l 347 163 l 682 763 l 822 763 l 171 -361 l 28 -361 l 253 13 l 64 763 l 206 763 m 288 924 q 313 981 288 957 q 369 1006 338 1006 q 413 989 396 1006 q 429 949 429 972 q 403 892 429 917 q 346 868 378 868 q 303 884 319 868 q 288 924 288 900 m 518 924 q 543 981 518 957 q 601 1006 568 1006 q 644 990 628 1006 q 660 949 660 974 q 658 936 660 940 q 628 888 651 907 q 576 868 606 868 q 534 884 550 868 q 518 924 518 900 z "},"Ā":{"ha":919,"x_min":-47,"x_max":844,"o":"m 640 226 l 210 226 l 88 0 l -47 0 l 482 961 l 626 961 l 818 0 l 682 0 l 640 226 m 622 325 l 531 821 l 263 325 l 622 325 m 844 1204 l 828 1115 l 338 1115 l 354 1204 l 844 1204 z "},"ā":{"ha":938,"x_min":57,"x_max":906,"o":"m 481 772 q 663 716 593 772 q 746 568 732 660 l 781 763 l 906 763 l 771 0 l 644 0 l 679 194 q 547 47 635 103 q 349 -10 460 -10 q 135 70 214 -10 q 57 290 57 150 q 67 390 57 342 q 147 594 88 507 q 294 726 207 681 q 481 772 381 772 m 503 660 q 301 585 385 660 q 196 381 218 511 q 189 313 189 342 q 246 157 189 213 q 404 101 303 101 q 543 136 478 101 q 653 234 608 171 q 713 381 697 297 q 718 443 718 410 q 659 601 718 543 q 503 660 600 660 m 789 986 l 772 897 l 282 897 l 299 986 l 789 986 z "},"Ă":{"ha":919,"x_min":-53,"x_max":813,"o":"m 635 226 l 204 226 l 82 0 l -53 0 l 476 961 l 621 961 l 813 0 l 676 0 l 635 226 m 617 325 l 525 821 l 257 325 l 617 325 m 567 1065 q 442 1106 486 1065 q 399 1217 399 1147 q 403 1258 399 1238 l 406 1271 l 474 1271 q 471 1244 471 1251 q 583 1160 471 1160 q 686 1188 649 1160 q 733 1271 724 1217 l 801 1271 l 800 1258 q 722 1119 783 1174 q 567 1065 660 1065 z "},"ă":{"ha":938,"x_min":61,"x_max":910,"o":"m 485 772 q 667 716 597 772 q 750 568 736 660 l 785 763 l 910 763 l 775 0 l 649 0 l 683 194 q 551 47 639 103 q 353 -10 464 -10 q 140 70 218 -10 q 61 290 61 150 q 71 390 61 342 q 151 594 92 507 q 298 726 211 681 q 485 772 385 772 m 507 660 q 306 585 389 660 q 200 381 222 511 q 193 313 193 342 q 250 157 193 213 q 408 101 307 101 q 547 136 482 101 q 657 234 613 171 q 717 381 701 297 q 722 443 722 410 q 663 601 722 543 q 507 660 604 660 m 519 847 q 395 888 439 847 q 351 999 351 929 q 356 1040 351 1019 l 358 1053 l 426 1053 q 424 1026 424 1033 q 536 942 424 942 q 639 970 601 942 q 686 1053 676 999 l 754 1053 l 753 1040 q 674 901 736 956 q 519 847 613 847 z "},"Ą":{"ha":919,"x_min":-39,"x_max":846,"o":"m 846 -204 l 833 -278 l 689 -278 q 578 -248 619 -278 q 536 -162 536 -218 q 539 -133 536 -153 q 584 -46 546 -82 q 690 3 622 -10 l 649 226 l 219 226 l 97 0 l -39 0 l 493 961 l 636 961 l 826 7 l 815 -56 l 740 -56 q 658 -79 689 -56 q 628 -144 628 -103 q 651 -188 628 -172 q 714 -204 674 -204 l 846 -204 m 631 325 l 539 821 l 272 325 l 631 325 z "},"ą":{"ha":938,"x_min":61,"x_max":910,"o":"m 485 772 q 667 716 597 772 q 750 568 736 660 l 785 763 l 910 763 l 775 0 l 649 0 l 683 194 q 551 47 639 103 q 353 -10 464 -10 q 140 70 218 -10 q 61 290 61 150 q 71 390 61 342 q 151 594 92 507 q 298 726 211 681 q 485 772 385 772 m 507 660 q 306 585 389 660 q 200 381 222 511 q 193 313 193 342 q 250 157 193 213 q 408 101 307 101 q 547 136 482 101 q 657 234 613 171 q 717 381 701 297 q 722 443 722 410 q 663 601 722 543 q 507 660 604 660 m 778 18 l 765 -50 l 690 -50 q 608 -72 639 -50 q 578 -133 578 -94 q 601 -182 578 -164 q 664 -200 624 -200 l 797 -200 l 783 -274 l 639 -274 q 528 -242 569 -274 q 486 -151 486 -210 q 541 -27 486 -72 q 682 18 596 18 l 778 18 z "},"Ć":{"ha":1060,"x_min":60,"x_max":1022,"o":"m 624 989 q 904 901 803 989 q 1022 660 1006 813 l 889 660 q 796 815 869 757 q 601 872 722 872 q 422 826 507 872 q 279 692 338 779 q 200 489 221 606 q 192 399 192 442 q 267 186 192 264 q 467 108 343 108 q 683 166 589 108 q 829 321 776 224 l 963 321 q 760 80 892 168 q 449 -8 628 -8 q 242 40 329 -8 q 107 176 154 89 q 60 381 60 264 q 69 489 60 436 q 174 749 94 635 q 369 926 253 863 q 624 989 486 989 m 888 1203 l 563 1040 l 579 1131 l 906 1306 l 888 1203 z "},"ć":{"ha":864,"x_min":53,"x_max":815,"o":"m 500 772 q 732 694 649 772 q 814 486 815 617 l 681 486 q 627 615 681 568 q 482 661 574 661 q 296 590 378 661 q 189 381 214 518 q 182 308 182 336 q 238 153 182 206 q 383 100 294 100 q 545 147 475 100 q 644 276 615 194 l 778 276 q 623 67 732 144 q 367 -10 514 -10 q 138 72 224 -10 q 53 296 53 153 q 61 390 53 340 q 144 594 82 507 q 299 726 207 681 q 500 772 392 772 m 746 985 l 421 822 l 438 913 l 764 1088 l 746 985 z "},"Ċ":{"ha":1060,"x_min":67,"x_max":1029,"o":"m 631 989 q 911 901 810 989 q 1029 660 1013 813 l 896 660 q 803 815 876 757 q 608 872 729 872 q 429 826 514 872 q 286 692 344 779 q 207 489 228 606 q 199 399 199 442 q 274 186 199 264 q 474 108 350 108 q 690 166 596 108 q 836 321 783 224 l 969 321 q 767 80 899 168 q 456 -8 635 -8 q 249 40 336 -8 q 114 176 161 89 q 67 381 67 264 q 76 489 67 436 q 181 749 101 635 q 376 926 260 863 q 631 989 493 989 m 589 1142 q 614 1199 589 1175 q 671 1224 639 1224 q 714 1207 697 1224 q 731 1167 731 1190 q 729 1154 731 1158 q 699 1106 722 1125 q 647 1086 676 1086 q 605 1102 621 1086 q 589 1142 589 1118 z "},"ċ":{"ha":864,"x_min":61,"x_max":824,"o":"m 508 772 q 740 694 657 772 q 822 486 824 617 l 689 486 q 635 615 689 568 q 490 661 582 661 q 304 590 386 661 q 197 381 222 518 q 190 308 190 336 q 247 153 190 206 q 392 100 303 100 q 553 147 483 100 q 653 276 624 194 l 786 276 q 631 67 740 144 q 375 -10 522 -10 q 147 72 232 -10 q 61 296 61 153 q 69 390 61 340 q 153 594 90 507 q 308 726 215 681 q 508 772 400 772 m 447 924 q 472 981 447 957 q 529 1006 497 1006 q 572 989 556 1006 q 589 949 589 972 q 588 936 589 940 q 558 888 581 907 q 506 868 535 868 q 463 884 479 868 q 447 924 447 900 z "},"Č":{"ha":1060,"x_min":64,"x_max":1026,"o":"m 628 989 q 908 901 807 989 q 1026 660 1010 813 l 893 660 q 800 815 874 757 q 606 872 726 872 q 426 826 511 872 q 283 692 342 779 q 204 489 225 606 q 196 399 196 442 q 272 186 196 264 q 471 108 347 108 q 687 166 593 108 q 833 321 781 224 l 967 321 q 764 80 896 168 q 453 -8 632 -8 q 246 40 333 -8 q 111 176 158 89 q 64 381 64 264 q 74 489 64 436 q 178 749 99 635 q 374 926 257 863 q 628 989 490 989 m 851 1178 l 639 1063 l 467 1178 l 482 1267 l 656 1150 l 867 1267 l 851 1178 z "},"č":{"ha":864,"x_min":57,"x_max":819,"o":"m 504 772 q 736 694 653 772 q 818 486 819 617 l 685 486 q 631 615 685 568 q 486 661 578 661 q 300 590 382 661 q 193 381 218 518 q 186 308 186 336 q 242 153 186 206 q 388 100 299 100 q 549 147 479 100 q 649 276 619 194 l 782 276 q 627 67 736 144 q 371 -10 518 -10 q 142 72 228 -10 q 57 296 57 153 q 65 390 57 340 q 149 594 86 507 q 303 726 211 681 q 504 772 396 772 m 710 960 l 497 844 l 325 960 l 340 1049 l 514 932 l 725 1049 l 710 960 z "},"Ď":{"ha":996,"x_min":15,"x_max":936,"o":"m 926 490 q 821 231 900 342 q 615 60 742 121 q 326 0 489 0 l 15 0 l 188 979 l 499 979 q 824 880 711 979 q 936 603 936 781 q 926 490 936 544 m 336 114 q 648 213 529 114 q 797 490 767 313 q 806 582 806 539 q 720 794 806 719 q 469 868 635 868 l 294 868 l 161 114 l 336 114 m 829 1178 l 617 1063 l 444 1178 l 460 1267 l 633 1150 l 844 1267 l 829 1178 z "},"ď":{"ha":1024,"x_min":44,"x_max":1132,"o":"m 940 1028 l 758 0 l 632 0 l 667 194 q 533 46 621 101 q 335 -10 446 -10 q 124 71 203 -10 q 44 293 44 151 q 54 390 44 329 q 135 594 75 507 q 281 726 194 681 q 468 772 368 772 q 649 717 581 772 q 732 568 718 661 l 814 1028 l 940 1028 m 1131 1028 q 1132 992 1132 1015 q 1124 900 1132 940 q 1067 783 1110 822 q 956 743 1025 743 l 964 800 q 1019 819 1000 800 q 1046 876 1039 838 l 1051 908 l 982 908 l 1003 1028 l 1131 1028 m 490 660 q 288 585 372 660 q 182 381 204 511 q 176 313 176 349 q 233 157 176 213 q 390 101 290 101 q 531 136 465 101 q 640 234 596 171 q 700 381 685 297 q 706 442 706 410 q 647 601 706 542 q 490 660 589 660 z "},"Đ":{"ha":1031,"x_min":19,"x_max":992,"o":"m 553 979 q 879 880 767 979 q 992 603 992 781 q 982 490 992 544 q 876 231 956 342 q 671 60 797 121 q 381 0 544 0 l 69 0 l 147 439 l 19 439 l 38 542 l 165 542 l 242 979 l 553 979 m 853 490 q 861 582 861 539 q 775 794 861 719 q 524 868 689 868 l 350 868 l 292 542 l 565 542 l 547 439 l 274 439 l 217 114 l 390 114 q 703 213 583 114 q 853 490 822 313 z "},"đ":{"ha":929,"x_min":44,"x_max":1001,"o":"m 990 874 l 913 874 l 758 0 l 632 0 l 667 194 q 533 46 621 101 q 335 -10 446 -10 q 124 71 203 -10 q 44 293 44 151 q 54 390 44 329 q 135 594 75 507 q 281 726 194 681 q 468 772 368 772 q 649 717 581 772 q 732 568 718 661 l 786 874 l 558 874 l 569 938 l 797 938 l 814 1028 l 940 1028 l 924 938 l 1001 938 l 990 874 m 700 381 q 706 442 706 410 q 647 601 706 542 q 490 660 589 660 q 288 585 372 660 q 182 381 204 511 q 176 313 176 349 q 233 157 176 213 q 390 101 290 101 q 531 136 465 101 q 640 234 596 171 q 700 381 685 297 z "},"Ē":{"ha":703,"x_min":21,"x_max":753,"o":"m 301 876 l 243 542 l 615 542 l 597 444 l 225 444 l 165 103 l 579 103 l 561 0 l 21 0 l 193 979 l 733 979 l 715 876 l 301 876 m 753 1204 l 736 1115 l 246 1115 l 263 1204 l 753 1204 z "},"ē":{"ha":865,"x_min":61,"x_max":821,"o":"m 513 772 q 681 735 611 772 q 785 635 750 699 q 821 492 821 572 q 815 424 821 456 q 796 354 807 381 l 189 354 q 183 294 183 313 q 241 144 183 194 q 388 93 299 93 q 549 140 478 93 q 647 264 619 186 l 782 264 q 629 66 738 142 q 375 -10 521 -10 q 146 71 231 -10 q 61 294 61 151 q 69 386 61 339 q 154 592 90 504 q 311 726 218 679 q 513 772 404 772 m 688 415 q 696 485 696 453 q 638 622 696 575 q 494 669 581 669 q 308 605 392 669 q 199 415 225 540 l 688 415 m 776 986 l 760 897 l 269 897 l 286 986 l 776 986 z "},"Ĕ":{"ha":703,"x_min":14,"x_max":726,"o":"m 294 876 l 236 542 l 608 542 l 590 444 l 218 444 l 158 103 l 572 103 l 554 0 l 14 0 l 186 979 l 726 979 l 708 876 l 294 876 m 474 1065 q 349 1106 393 1065 q 306 1217 306 1147 q 310 1258 306 1238 l 313 1271 l 381 1271 q 378 1244 378 1251 q 490 1160 378 1160 q 593 1188 556 1160 q 640 1271 631 1217 l 708 1271 l 707 1258 q 628 1119 690 1174 q 474 1065 567 1065 z "},"ĕ":{"ha":865,"x_min":56,"x_max":815,"o":"m 507 772 q 675 735 606 772 q 780 635 744 699 q 815 492 815 572 q 810 424 815 456 q 790 354 801 381 l 183 354 q 178 294 178 313 q 235 144 178 194 q 382 93 293 93 q 543 140 472 93 q 642 264 614 186 l 776 264 q 624 66 732 142 q 369 -10 515 -10 q 140 71 225 -10 q 56 294 56 151 q 64 386 56 339 q 149 592 85 504 q 306 726 213 679 q 507 772 399 772 m 682 415 q 690 485 690 453 q 633 622 690 575 q 489 669 575 669 q 303 605 386 669 q 193 415 219 540 l 682 415 m 499 847 q 374 888 418 847 q 331 999 331 929 q 335 1040 331 1019 l 338 1053 l 406 1053 q 403 1026 403 1033 q 515 942 403 942 q 618 970 581 942 q 665 1053 656 999 l 733 1053 l 732 1040 q 653 901 715 956 q 499 847 592 847 z "},"Ė":{"ha":703,"x_min":18,"x_max":731,"o":"m 299 876 l 240 542 l 613 542 l 594 444 l 222 444 l 163 103 l 576 103 l 558 0 l 18 0 l 190 979 l 731 979 l 713 876 l 299 876 m 426 1142 q 451 1199 426 1175 q 508 1224 476 1224 q 551 1207 535 1224 q 568 1167 568 1190 q 567 1154 568 1158 q 537 1106 560 1125 q 485 1086 514 1086 q 442 1102 458 1086 q 426 1142 426 1118 z "},"ė":{"ha":865,"x_min":60,"x_max":819,"o":"m 511 772 q 679 735 610 772 q 784 635 749 699 q 819 492 819 572 q 814 424 819 456 q 794 354 806 381 l 188 354 q 182 294 182 313 q 240 144 182 194 q 386 93 297 93 q 547 140 476 93 q 646 264 618 186 l 781 264 q 628 66 736 142 q 374 -10 519 -10 q 144 71 229 -10 q 60 294 60 151 q 68 386 60 339 q 153 592 89 504 q 310 726 217 679 q 511 772 403 772 m 686 415 q 694 485 694 453 q 637 622 694 575 q 493 669 579 669 q 307 605 390 669 q 197 415 224 540 l 686 415 m 450 924 q 475 981 450 957 q 532 1006 500 1006 q 575 989 558 1006 q 592 949 592 972 q 590 936 592 940 q 560 888 583 907 q 508 868 538 868 q 466 884 482 868 q 450 924 450 900 z "},"Ę":{"ha":703,"x_min":11,"x_max":724,"o":"m 292 876 l 233 542 l 606 542 l 588 444 l 215 444 l 156 103 l 569 103 l 551 0 l 11 0 l 183 979 l 724 979 l 706 876 l 292 876 m 561 56 l 549 -12 l 474 -12 q 392 -35 422 -12 q 361 -96 361 -57 q 384 -144 361 -126 q 447 -162 407 -162 l 581 -162 l 567 -236 l 422 -236 q 311 -204 353 -236 q 269 -114 269 -172 q 324 10 269 -35 q 465 56 379 56 l 561 56 z "},"ę":{"ha":867,"x_min":71,"x_max":831,"o":"m 522 772 q 690 735 621 772 q 795 635 760 699 q 831 492 831 572 q 825 424 831 456 q 807 354 818 382 l 199 354 q 194 297 194 324 q 252 144 194 196 q 397 93 310 93 q 559 140 489 93 q 657 264 629 186 l 790 264 q 665 88 754 160 q 457 -3 576 15 q 419 -37 424 -10 q 438 -85 414 -67 q 510 -104 461 -104 l 633 -104 l 619 -178 l 481 -178 q 368 -147 410 -178 q 326 -60 326 -117 q 329 -33 326 -53 l 335 -4 q 142 86 213 8 q 71 292 71 164 q 79 381 71 333 q 163 589 100 500 q 319 725 226 678 q 522 772 413 772 m 696 415 q 704 488 704 456 q 647 624 704 578 q 504 669 590 669 q 318 605 401 669 q 210 415 235 540 l 696 415 z "},"Ě":{"ha":703,"x_min":15,"x_max":728,"o":"m 296 876 l 238 542 l 610 542 l 592 444 l 219 444 l 160 103 l 574 103 l 556 0 l 15 0 l 188 979 l 728 979 l 710 876 l 296 876 m 688 1178 l 475 1063 l 303 1178 l 318 1267 l 492 1150 l 703 1267 l 688 1178 z "},"ě":{"ha":865,"x_min":56,"x_max":815,"o":"m 507 772 q 675 735 606 772 q 780 635 744 699 q 815 492 815 572 q 810 424 815 456 q 790 354 801 381 l 183 354 q 178 294 178 313 q 235 144 178 194 q 382 93 293 93 q 543 140 472 93 q 642 264 614 186 l 776 264 q 624 66 732 142 q 369 -10 515 -10 q 140 71 225 -10 q 56 294 56 151 q 64 386 56 339 q 149 592 85 504 q 306 726 213 679 q 507 772 399 772 m 682 415 q 690 485 690 453 q 633 622 690 575 q 489 669 575 669 q 303 605 386 669 q 193 415 219 540 l 682 415 m 713 960 l 500 844 l 328 960 l 343 1049 l 517 932 l 728 1049 l 713 960 z "},"Ğ":{"ha":1081,"x_min":58,"x_max":1021,"o":"m 633 989 q 903 903 803 989 q 1021 674 1003 817 l 888 674 q 798 817 869 763 q 614 871 726 871 q 427 824 514 871 q 280 692 340 778 q 199 489 219 606 q 190 397 190 442 q 272 181 190 258 q 490 103 353 103 q 663 142 581 103 q 805 255 744 181 q 893 429 865 329 l 508 429 l 525 524 l 1018 524 l 997 407 q 888 191 964 285 q 702 44 813 97 q 460 -10 592 -10 q 246 40 336 -10 q 107 178 156 89 q 58 386 58 268 q 68 494 58 442 q 174 751 93 639 q 374 926 254 863 q 633 989 493 989 m 643 1065 q 519 1106 563 1065 q 475 1217 475 1147 q 479 1258 475 1238 l 482 1271 l 550 1271 q 547 1244 547 1251 q 660 1160 547 1160 q 763 1188 725 1160 q 810 1271 800 1217 l 878 1271 l 876 1258 q 798 1119 860 1174 q 643 1065 736 1065 z "},"ğ":{"ha":936,"x_min":4,"x_max":889,"o":"m 332 -11 q 119 70 199 -11 q 40 293 40 151 q 50 390 40 329 q 131 594 71 507 q 277 726 190 681 q 465 772 364 772 q 647 717 578 772 q 729 568 715 661 l 764 763 l 889 763 l 751 -12 q 675 -200 733 -118 q 529 -328 617 -282 q 338 -374 442 -374 q 99 -299 185 -374 q 4 -99 14 -225 l 129 -99 q 194 -219 140 -175 q 344 -262 249 -262 q 528 -197 449 -262 q 626 -12 607 -132 l 664 194 q 530 45 618 101 q 332 -11 442 -11 m 486 661 q 285 586 368 661 q 179 381 201 511 q 172 313 172 342 q 230 158 172 214 q 388 103 288 103 q 526 137 461 103 q 637 234 592 171 q 697 381 682 297 q 703 442 703 408 q 644 601 703 542 q 486 661 585 661 m 521 847 q 397 888 440 847 q 353 999 353 929 q 357 1040 353 1019 l 360 1053 l 428 1053 q 425 1026 425 1033 q 538 942 425 942 q 640 970 603 942 q 688 1053 678 999 l 756 1053 l 754 1040 q 676 901 738 956 q 521 847 614 847 z "},"Ġ":{"ha":1081,"x_min":63,"x_max":1025,"o":"m 638 989 q 907 903 807 989 q 1025 674 1007 817 l 892 674 q 802 817 874 763 q 618 871 731 871 q 431 824 518 871 q 284 692 344 778 q 203 489 224 606 q 194 397 194 442 q 276 181 194 258 q 494 103 357 103 q 667 142 585 103 q 809 255 749 181 q 897 429 869 329 l 513 429 l 529 524 l 1022 524 l 1001 407 q 892 191 968 285 q 706 44 817 97 q 464 -10 596 -10 q 250 40 340 -10 q 111 178 160 89 q 63 386 63 268 q 72 494 63 442 q 178 751 97 639 q 378 926 258 863 q 638 989 497 989 m 596 1142 q 621 1199 596 1175 q 678 1224 646 1224 q 721 1207 704 1224 q 738 1167 738 1190 q 736 1154 738 1158 q 706 1106 729 1125 q 654 1086 683 1086 q 612 1102 628 1086 q 596 1142 596 1118 z "},"ġ":{"ha":936,"x_min":8,"x_max":893,"o":"m 336 -11 q 124 70 203 -11 q 44 293 44 151 q 54 390 44 329 q 135 594 75 507 q 281 726 194 681 q 469 772 368 772 q 651 717 582 772 q 733 568 719 661 l 768 763 l 893 763 l 756 -12 q 679 -200 738 -118 q 533 -328 621 -282 q 342 -374 446 -374 q 103 -299 189 -374 q 8 -99 18 -225 l 133 -99 q 199 -219 144 -175 q 349 -262 253 -262 q 532 -197 453 -262 q 631 -12 611 -132 l 668 194 q 534 45 622 101 q 336 -11 446 -11 m 490 661 q 289 586 372 661 q 183 381 206 511 q 176 313 176 342 q 234 158 176 214 q 392 103 292 103 q 531 137 465 103 q 641 234 596 171 q 701 381 686 297 q 707 442 707 408 q 648 601 707 542 q 490 661 589 661 m 474 924 q 499 981 474 957 q 556 1006 524 1006 q 599 989 582 1006 q 615 949 615 972 q 614 936 615 940 q 584 888 607 907 q 532 868 561 868 q 490 884 506 868 q 474 924 474 900 z "},"Ģ":{"ha":1083,"x_min":60,"x_max":1022,"o":"m 635 989 q 904 903 804 989 q 1022 674 1004 817 l 889 674 q 799 817 871 763 q 615 871 728 871 q 428 824 515 871 q 281 692 342 778 q 200 489 221 606 q 192 397 192 442 q 273 181 192 258 q 492 103 354 103 q 664 142 582 103 q 806 255 746 181 q 894 429 867 329 l 510 429 l 526 524 l 1019 524 l 999 407 q 890 191 965 285 q 703 44 814 97 q 461 -10 593 -10 q 247 40 338 -10 q 108 178 157 89 q 60 386 60 268 q 69 494 60 442 q 175 751 94 639 q 375 926 256 863 q 635 989 494 989 m 538 -69 q 540 -108 540 -94 q 535 -164 540 -131 q 478 -287 521 -246 q 367 -328 435 -328 l 375 -274 q 457 -189 442 -274 l 460 -176 l 396 -176 l 415 -69 l 538 -69 z "},"ģ":{"ha":936,"x_min":3,"x_max":888,"o":"m 488 826 q 486 864 486 839 q 494 956 486 914 q 551 1072 508 1032 q 664 1111 594 1111 l 653 1056 q 598 1036 617 1056 q 572 978 579 1017 l 567 947 l 636 947 l 615 826 l 488 826 m 331 -11 q 118 70 197 -11 q 39 293 39 151 q 49 390 39 329 q 129 594 69 507 q 276 726 189 681 q 464 772 363 772 q 645 717 576 772 q 728 568 714 661 l 763 763 l 888 763 l 750 -12 q 674 -200 732 -118 q 528 -328 615 -282 q 336 -374 440 -374 q 98 -299 183 -374 q 3 -99 13 -225 l 128 -99 q 193 -219 139 -175 q 343 -262 247 -262 q 526 -197 447 -262 q 625 -12 606 -132 l 663 194 q 528 45 617 101 q 331 -11 440 -11 m 485 661 q 283 586 367 661 q 178 381 200 511 q 171 313 171 342 q 228 158 171 214 q 386 103 286 103 q 525 137 460 103 q 635 234 590 171 q 696 381 681 297 q 701 442 701 408 q 642 601 701 542 q 485 661 583 661 z "},"Ĩ":{"ha":329,"x_min":25,"x_max":525,"o":"m 324 979 l 151 0 l 25 0 l 197 979 l 324 979 m 226 1207 q 270 1198 253 1207 q 313 1171 288 1189 q 348 1147 333 1154 q 382 1139 363 1139 q 425 1156 406 1139 q 454 1204 444 1172 l 525 1204 q 461 1097 504 1135 q 364 1060 418 1060 q 317 1069 336 1060 q 274 1097 297 1079 q 241 1119 256 1111 q 208 1126 226 1126 q 136 1061 158 1126 l 67 1061 q 226 1207 115 1207 z "},"ĩ":{"ha":329,"x_min":40,"x_max":499,"o":"m 303 763 l 168 0 l 40 0 l 176 763 l 303 763 m 200 989 q 244 980 226 989 q 286 953 261 971 q 322 928 307 936 q 356 921 336 921 q 399 938 379 921 q 428 986 418 954 l 499 986 q 435 879 478 917 q 338 842 392 842 q 290 851 310 842 q 247 879 271 861 q 215 901 229 893 q 182 908 200 908 q 110 843 132 908 l 40 843 q 200 989 89 989 z "},"Ī":{"ha":329,"x_min":25,"x_max":550,"o":"m 324 979 l 151 0 l 25 0 l 197 979 l 324 979 m 550 1204 l 533 1115 l 43 1115 l 60 1204 l 550 1204 z "},"ī":{"ha":333,"x_min":7,"x_max":514,"o":"m 303 763 l 168 0 l 40 0 l 176 763 l 303 763 m 514 986 l 497 897 l 7 897 l 24 986 l 514 986 z "},"Ĭ":{"ha":329,"x_min":19,"x_max":507,"o":"m 318 979 l 146 0 l 19 0 l 192 979 l 318 979 m 272 1065 q 148 1106 192 1065 q 104 1217 104 1147 q 108 1258 104 1238 l 111 1271 l 179 1271 q 176 1244 176 1251 q 289 1160 176 1160 q 392 1188 354 1160 q 439 1271 429 1217 l 507 1271 l 506 1258 q 427 1119 489 1174 q 272 1065 365 1065 z "},"ĭ":{"ha":329,"x_min":35,"x_max":481,"o":"m 297 763 l 163 0 l 35 0 l 171 763 l 297 763 m 246 847 q 122 888 165 847 q 78 999 78 929 q 82 1040 78 1019 l 85 1053 l 153 1053 q 150 1026 150 1033 q 263 942 150 942 q 365 970 328 942 q 413 1053 403 999 l 481 1053 l 479 1040 q 401 901 463 956 q 246 847 339 847 z "},"Į":{"ha":329,"x_min":-147,"x_max":313,"o":"m 313 979 l 140 0 l 14 0 l 186 979 l 313 979 m 144 18 l 132 -50 l 57 -50 q -25 -72 6 -50 q -56 -133 -56 -94 q -33 -182 -56 -164 q 31 -200 -10 -200 l 164 -200 l 150 -274 l 6 -274 q -106 -242 -64 -274 q -147 -151 -147 -210 q -92 -27 -147 -72 q 49 18 -37 18 l 144 18 z "},"į":{"ha":324,"x_min":-132,"x_max":351,"o":"m 176 971 q 206 1038 176 1011 q 278 1064 235 1064 q 332 1047 313 1064 q 351 1001 351 1029 q 322 935 351 961 q 250 908 293 908 q 196 926 215 908 q 176 971 176 943 m 288 763 l 153 0 l 26 0 l 161 763 l 288 763 m 160 18 l 147 -50 l 72 -50 q -10 -72 21 -50 q -40 -133 -40 -94 q -17 -182 -40 -164 q 46 -200 6 -200 l 179 -200 l 165 -274 l 21 -274 q -90 -242 -49 -274 q -132 -151 -132 -210 q -77 -27 -132 -72 q 64 18 -22 18 l 160 18 z "},"İ":{"ha":329,"x_min":24,"x_max":365,"o":"m 322 979 l 150 0 l 24 0 l 196 979 l 322 979 m 224 1142 q 249 1199 224 1175 q 306 1224 274 1224 q 349 1207 332 1224 q 365 1167 365 1190 q 364 1154 365 1158 q 334 1106 357 1125 q 282 1086 311 1086 q 240 1102 256 1086 q 224 1142 224 1118 z "},"ı":{"ha":324,"x_min":31,"x_max":293,"o":"m 293 763 l 158 0 l 31 0 l 167 763 l 293 763 z "},"Ķ":{"ha":811,"x_min":8,"x_max":871,"o":"m 339 494 l 699 0 l 543 0 l 215 458 l 135 0 l 8 0 l 181 979 l 307 979 l 226 525 l 717 979 l 871 979 l 339 494 m 404 -69 q 407 -110 407 -97 q 403 -164 407 -139 q 344 -287 388 -246 q 233 -328 301 -328 l 244 -274 q 324 -189 308 -274 l 326 -176 l 263 -176 l 282 -69 l 404 -69 z "},"ķ":{"ha":688,"x_min":28,"x_max":731,"o":"m 322 389 l 600 0 l 447 0 l 217 347 l 156 0 l 28 0 l 208 1028 l 336 1028 l 232 436 l 576 763 l 731 763 l 322 389 m 326 -69 q 329 -108 329 -94 q 324 -164 329 -131 q 266 -287 310 -246 q 156 -328 222 -328 l 165 -274 q 246 -189 231 -274 l 249 -176 l 185 -176 l 204 -69 l 326 -69 z "},"Ĺ":{"ha":603,"x_min":11,"x_max":582,"o":"m 156 99 l 503 99 l 485 0 l 11 0 l 183 979 l 310 979 l 156 99 m 564 1203 l 239 1040 l 256 1131 l 582 1306 l 564 1203 z "},"ĺ":{"ha":336,"x_min":32,"x_max":553,"o":"m 340 1028 l 160 0 l 32 0 l 213 1028 l 340 1028 m 535 1238 l 210 1075 l 226 1165 l 553 1340 l 535 1238 z "},"Ļ":{"ha":606,"x_min":8,"x_max":500,"o":"m 153 99 l 500 99 l 482 0 l 8 0 l 181 979 l 307 979 l 153 99 m 342 -69 q 344 -110 344 -97 q 340 -164 344 -139 q 282 -287 325 -246 q 171 -328 239 -328 l 181 -274 q 261 -189 246 -274 l 264 -176 l 200 -176 l 218 -69 l 342 -69 z "},"ļ":{"ha":329,"x_min":-19,"x_max":342,"o":"m 342 1028 l 161 0 l 33 0 l 214 1028 l 342 1028 m 151 -69 q 154 -108 154 -94 q 149 -164 154 -131 q 91 -287 135 -246 q -19 -328 47 -328 l -10 -274 q 71 -189 56 -274 l 74 -176 l 10 -176 l 29 -69 l 151 -69 z "},"Ľ":{"ha":639,"x_min":13,"x_max":604,"o":"m 157 99 l 504 99 l 486 0 l 13 0 l 185 979 l 311 979 l 157 99 m 603 979 q 604 943 604 967 q 596 851 604 893 q 540 734 582 774 q 428 694 497 694 l 438 751 q 493 770 474 751 q 519 828 513 789 l 525 860 l 456 860 l 476 979 l 603 979 z "},"ľ":{"ha":415,"x_min":33,"x_max":542,"o":"m 342 1028 l 161 0 l 33 0 l 214 1028 l 342 1028 m 540 1028 q 542 989 542 1014 q 533 900 542 940 q 477 783 519 822 q 365 743 435 743 l 376 800 q 431 819 411 800 q 457 876 450 838 l 463 908 l 393 908 l 414 1028 l 540 1028 z "},"Ŀ":{"ha":603,"x_min":13,"x_max":525,"o":"m 157 99 l 504 99 l 486 0 l 13 0 l 185 979 l 311 979 l 157 99 m 383 476 q 408 534 383 510 q 465 558 433 558 q 508 542 492 558 q 525 501 525 525 q 524 489 525 493 q 494 440 517 460 q 442 421 471 421 q 399 437 415 421 q 383 476 383 453 z "},"ŀ":{"ha":407,"x_min":22,"x_max":457,"o":"m 331 1028 l 150 0 l 22 0 l 203 1028 l 331 1028 m 315 501 q 340 559 315 535 q 397 583 365 583 q 440 567 424 583 q 457 526 457 550 q 456 514 457 518 q 426 465 449 485 q 374 446 403 446 q 331 462 347 446 q 315 501 315 478 z "},"Ł":{"ha":629,"x_min":-4,"x_max":532,"o":"m 532 99 l 515 0 l 40 0 l 117 433 l -4 389 l 18 515 l 139 560 l 213 979 l 340 979 l 275 608 l 468 679 l 446 553 l 253 482 l 185 99 l 532 99 z "},"ł":{"ha":347,"x_min":4,"x_max":396,"o":"m 374 632 l 257 586 l 154 0 l 26 0 l 119 533 l 4 488 l 26 611 l 142 656 l 207 1028 l 335 1028 l 279 710 l 396 756 l 374 632 z "},"Ń":{"ha":964,"x_min":11,"x_max":944,"o":"m 772 0 l 646 0 l 274 774 l 138 0 l 11 0 l 183 979 l 310 979 l 682 204 l 818 979 l 944 979 l 772 0 m 833 1203 l 508 1040 l 525 1131 l 851 1306 l 833 1203 z "},"ń":{"ha":893,"x_min":33,"x_max":818,"o":"m 574 775 q 752 712 686 775 q 818 528 818 649 q 811 443 818 482 l 732 0 l 606 0 l 682 432 q 688 494 688 461 q 640 624 688 579 q 507 668 593 668 q 329 601 403 668 q 233 404 256 533 l 233 410 l 161 0 l 33 0 l 168 763 l 296 763 l 264 583 q 393 726 310 676 q 574 775 476 775 m 768 985 l 443 822 l 460 913 l 786 1088 l 768 985 z "},"Ņ":{"ha":965,"x_min":10,"x_max":943,"o":"m 771 0 l 644 0 l 272 774 l 136 0 l 10 0 l 182 979 l 308 979 l 681 204 l 817 979 l 943 979 l 771 0 m 479 -69 q 483 -112 483 -90 q 478 -164 483 -133 q 421 -287 464 -246 q 310 -328 378 -328 l 319 -274 q 399 -189 383 -274 l 401 -176 l 338 -176 l 357 -69 l 479 -69 z "},"ņ":{"ha":893,"x_min":29,"x_max":814,"o":"m 569 775 q 748 712 682 775 q 814 528 814 649 q 807 443 814 482 l 728 0 l 601 0 l 678 432 q 683 494 683 461 q 636 624 683 579 q 503 668 589 668 q 325 601 399 668 q 229 404 251 533 l 229 410 l 157 0 l 29 0 l 164 763 l 292 763 l 260 583 q 389 726 306 676 q 569 775 472 775 m 467 -69 q 471 -112 471 -90 q 465 -164 471 -133 q 407 -287 450 -246 q 297 -328 364 -328 l 307 -274 q 388 -189 372 -274 l 389 -176 l 326 -176 l 344 -69 l 467 -69 z "},"Ň":{"ha":964,"x_min":15,"x_max":949,"o":"m 776 0 l 650 0 l 278 774 l 142 0 l 15 0 l 188 979 l 314 979 l 686 204 l 822 979 l 949 979 l 776 0 m 797 1178 l 585 1063 l 413 1178 l 428 1267 l 601 1150 l 813 1267 l 797 1178 z "},"ň":{"ha":894,"x_min":36,"x_max":821,"o":"m 576 775 q 755 712 689 775 q 821 528 821 649 q 814 443 821 482 l 735 0 l 608 0 l 685 432 q 690 494 690 461 q 643 624 690 579 q 510 668 596 668 q 332 601 406 668 q 236 404 258 533 l 236 410 l 164 0 l 36 0 l 171 763 l 299 763 l 267 583 q 396 726 313 676 q 576 775 479 775 m 733 960 l 521 844 l 349 960 l 364 1049 l 538 932 l 749 1049 l 733 960 z "},"Ō":{"ha":1090,"x_min":65,"x_max":1036,"o":"m 625 992 q 843 941 750 992 q 986 798 936 890 q 1036 583 1036 706 q 1026 471 1036 525 q 924 221 1001 331 q 731 50 847 111 q 478 -11 615 -11 q 257 40 350 -11 q 115 183 164 90 q 65 396 65 275 q 75 510 65 456 q 177 760 100 650 q 371 931 254 869 q 625 992 488 992 m 614 874 q 427 828 514 874 q 281 696 340 782 q 200 496 221 610 q 192 407 192 450 q 272 188 192 268 q 489 107 353 107 q 674 153 588 107 q 822 286 761 200 q 901 486 882 372 q 910 575 910 532 q 829 794 910 714 q 614 874 749 874 m 931 1204 l 914 1115 l 424 1115 l 440 1204 l 931 1204 z "},"ō":{"ha":893,"x_min":67,"x_max":850,"o":"m 525 772 q 694 735 621 772 q 809 627 768 697 q 850 460 850 557 q 842 371 850 417 q 756 168 821 254 q 597 36 692 82 q 394 -10 503 -10 q 156 74 246 -10 q 67 303 67 157 q 75 390 67 344 q 161 594 96 507 q 322 726 226 681 q 525 772 417 772 m 508 661 q 377 631 440 661 q 267 537 314 600 q 204 381 221 474 q 197 311 197 339 q 257 155 197 208 q 410 101 317 101 q 540 132 478 101 q 649 226 603 163 q 713 381 696 289 q 719 450 719 422 q 660 608 719 554 q 508 661 600 661 m 794 986 l 778 897 l 288 897 l 304 986 l 794 986 z "},"Ŏ":{"ha":1090,"x_min":56,"x_max":1026,"o":"m 615 992 q 833 941 740 992 q 976 798 926 890 q 1026 583 1026 706 q 1017 471 1026 525 q 915 221 992 331 q 722 50 838 111 q 468 -11 606 -11 q 247 40 340 -11 q 105 183 154 90 q 56 396 56 275 q 65 510 56 456 q 167 760 90 650 q 361 931 244 869 q 615 992 478 992 m 604 874 q 417 828 504 874 q 271 696 331 782 q 190 496 211 610 q 182 407 182 450 q 263 188 182 268 q 479 107 343 107 q 665 153 578 107 q 812 286 751 200 q 892 486 872 372 q 900 575 900 532 q 819 794 900 714 q 604 874 739 874 m 649 1065 q 524 1106 568 1065 q 481 1217 481 1147 q 485 1258 481 1238 l 488 1271 l 556 1271 q 553 1244 553 1251 q 665 1160 553 1160 q 768 1188 731 1160 q 815 1271 806 1217 l 883 1271 l 882 1258 q 803 1119 865 1174 q 649 1065 742 1065 z "},"ŏ":{"ha":893,"x_min":56,"x_max":839,"o":"m 514 772 q 683 735 610 772 q 798 627 757 697 q 839 460 839 557 q 831 371 839 417 q 745 168 810 254 q 586 36 681 82 q 383 -10 492 -10 q 145 74 235 -10 q 56 303 56 157 q 64 390 56 344 q 150 594 85 507 q 310 726 215 681 q 514 772 406 772 m 497 661 q 366 631 429 661 q 256 537 303 600 q 193 381 210 474 q 186 311 186 339 q 246 155 186 208 q 399 101 306 101 q 529 132 467 101 q 638 226 592 163 q 701 381 685 289 q 708 450 708 422 q 649 608 708 554 q 497 661 589 661 m 511 847 q 387 888 431 847 q 343 999 343 929 q 347 1040 343 1019 l 350 1053 l 418 1053 q 415 1026 415 1033 q 528 942 415 942 q 631 970 593 942 q 678 1053 668 999 l 746 1053 l 744 1040 q 666 901 728 956 q 511 847 604 847 z "},"Ő":{"ha":1090,"x_min":57,"x_max":1028,"o":"m 617 992 q 835 941 742 992 q 978 798 928 890 q 1028 583 1028 706 q 1018 471 1028 525 q 916 221 993 331 q 723 50 839 111 q 469 -11 607 -11 q 249 40 342 -11 q 106 183 156 90 q 57 396 57 275 q 67 510 57 456 q 169 760 92 650 q 363 931 246 869 q 617 992 479 992 m 606 874 q 419 828 506 874 q 272 696 332 782 q 192 496 213 610 q 183 407 183 450 q 264 188 183 268 q 481 107 344 107 q 666 153 579 107 q 813 286 753 200 q 893 486 874 372 q 901 575 901 532 q 821 794 901 714 q 606 874 740 874 m 578 1053 l 494 1053 l 625 1267 l 729 1267 l 578 1053 m 786 1053 l 703 1053 l 851 1267 l 954 1267 l 786 1053 z "},"ő":{"ha":893,"x_min":61,"x_max":844,"o":"m 519 772 q 689 735 615 772 q 803 627 763 697 q 844 460 844 557 q 836 371 844 417 q 751 168 815 254 q 592 36 686 82 q 389 -10 497 -10 q 151 74 240 -10 q 61 303 61 157 q 69 390 61 344 q 156 594 90 507 q 316 726 221 681 q 519 772 411 772 m 503 661 q 372 631 435 661 q 262 537 308 600 q 199 381 215 474 q 192 311 192 339 q 251 155 192 208 q 404 101 311 101 q 535 132 472 101 q 644 226 597 163 q 707 381 690 289 q 714 450 714 422 q 654 608 714 554 q 503 661 594 661 m 450 835 l 367 835 l 497 1049 l 601 1049 l 450 835 m 658 835 l 575 835 l 724 1049 l 826 1049 l 658 835 z "},"Œ":{"ha":1508,"x_min":60,"x_max":1533,"o":"m 1043 542 l 1414 542 l 1397 444 l 1025 444 l 965 103 l 1378 103 l 1360 0 l 819 0 l 861 233 q 692 55 803 121 q 453 -12 581 -11 q 245 38 335 -12 q 108 178 156 88 q 60 389 60 269 q 69 499 60 446 q 173 754 94 642 q 369 929 251 867 q 625 992 486 992 q 843 924 753 992 q 951 744 933 857 l 992 979 l 1533 979 l 1515 876 l 1101 876 l 1043 542 m 482 104 q 671 151 583 104 q 819 285 758 199 q 900 489 879 372 q 908 578 908 535 q 829 794 908 715 q 618 874 750 874 q 431 827 518 874 q 283 695 343 781 q 201 494 222 610 q 193 404 193 447 q 272 185 193 265 q 482 104 351 104 z "},"œ":{"ha":1504,"x_min":50,"x_max":1453,"o":"m 1144 772 q 1313 735 1243 772 q 1417 635 1382 699 q 1453 490 1453 571 q 1447 424 1453 453 q 1428 354 1439 381 l 821 354 q 815 294 815 313 q 872 144 815 194 q 1018 93 929 93 q 1181 140 1110 93 q 1279 264 1251 186 l 1413 264 q 1260 67 1369 143 q 1006 -10 1150 -10 q 823 42 896 -10 q 728 190 750 94 q 578 43 672 96 q 374 -10 483 -10 q 139 72 228 -10 q 50 296 50 153 q 58 381 50 338 q 146 589 81 500 q 306 725 211 678 q 511 772 401 772 q 697 719 622 772 q 794 572 772 667 q 942 719 850 667 q 1144 772 1033 772 m 1318 415 q 1326 486 1326 456 q 1269 623 1326 576 q 1126 669 1213 669 q 940 605 1024 669 q 831 415 857 540 l 1318 415 m 696 381 q 703 450 703 422 q 643 608 703 554 q 492 661 583 661 q 360 631 424 661 q 251 537 297 600 q 188 381 204 474 q 181 311 181 339 q 240 155 181 208 q 393 101 300 101 q 524 132 461 101 q 633 226 586 163 q 696 381 679 289 z "},"Ŕ":{"ha":810,"x_min":11,"x_max":803,"o":"m 506 979 q 722 918 650 979 q 793 751 793 857 q 788 688 793 717 q 688 496 768 569 q 478 404 607 422 l 674 0 l 531 0 l 344 400 l 208 400 l 138 0 l 11 0 l 183 979 l 506 979 m 658 681 q 663 726 663 706 q 476 869 663 869 l 292 869 l 225 492 l 410 492 q 658 681 624 492 m 785 1203 l 460 1040 l 476 1131 l 803 1306 l 785 1203 z "},"ŕ":{"ha":533,"x_min":33,"x_max":642,"o":"m 268 608 q 400 731 319 686 q 581 775 481 775 l 556 638 l 517 638 q 335 585 413 638 q 233 410 257 532 l 161 0 l 33 0 l 168 763 l 296 763 l 268 608 m 624 985 l 299 822 l 315 913 l 642 1088 l 624 985 z "},"Ŗ":{"ha":825,"x_min":-7,"x_max":775,"o":"m 488 979 q 703 918 632 979 q 775 751 775 857 q 769 688 775 717 q 669 496 750 569 q 460 404 589 422 l 656 0 l 513 0 l 326 400 l 190 400 l 119 0 l -7 0 l 165 979 l 488 979 m 640 681 q 644 726 644 706 q 458 869 644 869 l 274 869 l 207 492 l 392 492 q 640 681 606 492 m 399 -69 q 401 -110 401 -97 q 397 -164 401 -139 q 338 -287 382 -246 q 228 -328 294 -328 l 238 -274 q 318 -189 303 -274 l 319 -176 l 257 -176 l 275 -69 l 399 -69 z "},"ŗ":{"ha":532,"x_min":0,"x_max":585,"o":"m 272 608 q 404 731 324 686 q 585 775 485 775 l 560 638 l 521 638 q 339 585 417 638 q 238 410 261 532 l 165 0 l 38 0 l 172 763 l 300 763 l 272 608 m 169 -69 q 174 -112 174 -90 q 168 -164 174 -133 q 110 -287 153 -246 q 0 -328 67 -328 l 10 -274 q 90 -189 75 -274 l 92 -176 l 29 -176 l 47 -69 l 169 -69 z "},"Ř":{"ha":810,"x_min":15,"x_max":797,"o":"m 510 979 q 726 918 654 979 q 797 751 797 857 q 792 688 797 717 q 692 496 772 569 q 482 404 611 422 l 678 0 l 535 0 l 349 400 l 213 400 l 142 0 l 15 0 l 188 979 l 510 979 m 663 681 q 667 726 667 706 q 481 869 667 869 l 296 869 l 229 492 l 414 492 q 663 681 628 492 m 749 1178 l 536 1063 l 364 1178 l 379 1267 l 553 1150 l 764 1267 l 749 1178 z "},"ř":{"ha":533,"x_min":36,"x_max":603,"o":"m 271 608 q 403 731 322 686 q 583 775 483 775 l 558 638 l 519 638 q 338 585 415 638 q 236 410 260 532 l 164 0 l 36 0 l 171 763 l 299 763 l 271 608 m 588 960 l 375 844 l 203 960 l 218 1049 l 392 932 l 603 1049 l 588 960 z "},"Ś":{"ha":786,"x_min":25,"x_max":765,"o":"m 674 231 q 622 113 664 168 q 510 24 581 58 q 344 -10 439 -10 q 171 27 243 -10 q 62 126 99 64 q 26 264 25 188 l 161 264 q 177 183 158 222 q 238 117 196 143 q 347 92 281 92 q 490 146 438 92 q 542 279 542 200 q 515 366 542 332 q 448 420 488 400 q 339 467 408 440 q 213 521 260 496 q 134 591 167 546 q 101 708 101 636 q 107 772 101 740 q 212 931 124 871 q 432 992 300 992 q 658 920 581 992 q 739 743 735 849 l 604 743 q 560 846 603 801 q 428 890 517 890 q 292 847 344 890 q 240 722 240 804 q 266 642 240 674 q 330 591 292 610 q 436 547 368 572 q 564 492 515 518 q 647 419 613 467 q 681 297 681 372 q 674 231 681 269 m 747 1203 l 422 1040 l 439 1131 l 765 1306 l 747 1203 z "},"ś":{"ha":722,"x_min":29,"x_max":697,"o":"m 371 772 q 589 705 514 772 q 665 524 664 638 l 540 524 q 497 636 543 593 q 360 679 450 679 q 248 645 290 679 q 206 556 206 611 q 229 497 206 519 q 288 459 253 474 q 382 428 322 444 q 506 386 458 407 q 588 325 554 365 q 621 219 621 285 q 615 168 621 204 q 528 40 600 89 q 342 -10 457 -10 q 113 56 197 -10 q 31 238 29 122 l 156 238 q 202 125 150 168 q 354 82 254 82 q 463 117 424 82 q 501 206 501 151 q 476 274 501 247 q 415 315 451 300 q 315 347 379 329 q 198 387 243 368 q 122 443 153 406 q 90 542 90 481 q 94 589 90 564 q 181 722 108 671 q 371 772 254 772 m 679 985 l 354 822 l 371 913 l 697 1088 l 679 985 z "},"Ş":{"ha":788,"x_min":29,"x_max":743,"o":"m 678 231 q 626 113 668 168 q 514 24 585 58 q 349 -10 443 -10 q 175 27 247 -10 q 66 126 103 64 q 31 264 29 188 l 165 264 q 181 183 163 222 q 242 117 200 143 q 351 92 285 92 q 494 146 442 92 q 546 279 546 200 q 519 366 546 332 q 452 420 492 400 q 343 467 413 440 q 217 521 264 496 q 138 591 171 546 q 106 708 106 636 q 111 772 106 740 q 216 931 128 871 q 436 992 304 992 q 662 920 585 992 q 743 743 739 849 l 608 743 q 564 846 607 801 q 432 890 521 890 q 297 847 349 890 q 244 722 244 804 q 270 642 244 674 q 334 591 296 610 q 440 547 372 572 q 568 492 519 518 q 651 419 617 467 q 685 297 685 372 q 678 231 685 269 m 358 -93 q 472 -118 428 -90 q 515 -204 515 -146 q 460 -322 515 -282 q 321 -361 406 -361 l 178 -361 l 190 -287 l 318 -287 q 398 -268 372 -287 q 424 -215 424 -249 q 403 -174 424 -190 q 342 -158 383 -158 l 267 -158 l 296 10 l 376 10 l 358 -93 z "},"ş":{"ha":722,"x_min":33,"x_max":669,"o":"m 375 772 q 593 705 518 772 q 669 524 668 638 l 544 524 q 501 636 547 593 q 364 679 454 679 q 252 645 294 679 q 210 556 210 611 q 233 497 210 519 q 292 459 257 474 q 386 428 326 444 q 510 386 463 407 q 592 325 558 365 q 625 219 625 285 q 619 168 625 204 q 533 40 604 89 q 346 -10 461 -10 q 117 56 201 -10 q 35 238 33 122 l 160 238 q 206 125 154 168 q 358 82 258 82 q 467 117 428 82 q 506 206 506 151 q 481 274 506 247 q 419 315 456 300 q 319 347 383 329 q 202 387 247 368 q 126 443 157 406 q 94 542 94 481 q 99 589 94 564 q 185 722 113 671 q 375 772 258 772 m 363 -93 q 476 -118 432 -90 q 519 -204 519 -146 q 465 -322 519 -282 q 325 -361 410 -361 l 182 -361 l 194 -287 l 322 -287 q 402 -268 376 -287 q 428 -215 428 -249 q 408 -174 428 -190 q 346 -158 388 -158 l 271 -158 l 300 10 l 381 10 l 363 -93 z "},"Š":{"ha":788,"x_min":29,"x_max":743,"o":"m 678 231 q 626 113 668 168 q 514 24 585 58 q 349 -10 443 -10 q 175 27 247 -10 q 66 126 103 64 q 31 264 29 188 l 165 264 q 181 183 163 222 q 242 117 200 143 q 351 92 285 92 q 494 146 442 92 q 546 279 546 200 q 519 366 546 332 q 452 420 492 400 q 343 467 413 440 q 217 521 264 496 q 138 591 171 546 q 106 708 106 636 q 111 772 106 740 q 216 931 128 871 q 436 992 304 992 q 662 920 585 992 q 743 743 739 849 l 608 743 q 564 846 607 801 q 432 890 521 890 q 297 847 349 890 q 244 722 244 804 q 270 642 244 674 q 334 591 296 610 q 440 547 372 572 q 568 492 519 518 q 651 419 617 467 q 685 297 685 372 q 678 231 685 269 m 711 1178 l 499 1063 l 326 1178 l 342 1267 l 515 1150 l 726 1267 l 711 1178 z "},"š":{"ha":722,"x_min":33,"x_max":669,"o":"m 375 772 q 593 705 518 772 q 669 524 668 638 l 544 524 q 501 636 547 593 q 364 679 454 679 q 252 645 294 679 q 210 556 210 611 q 233 497 210 519 q 292 459 257 474 q 386 428 326 444 q 510 386 463 407 q 592 325 558 365 q 625 219 625 285 q 619 168 625 204 q 533 40 604 89 q 346 -10 461 -10 q 117 56 201 -10 q 35 238 33 122 l 160 238 q 206 125 154 168 q 358 82 258 82 q 467 117 428 82 q 506 206 506 151 q 481 274 506 247 q 419 315 456 300 q 319 347 383 329 q 202 387 247 368 q 126 443 157 406 q 94 542 94 481 q 99 589 94 564 q 185 722 113 671 q 375 772 258 772 m 643 960 l 431 844 l 258 960 l 274 1049 l 447 932 l 658 1049 l 643 960 z "},"Ţ":{"ha":725,"x_min":90,"x_max":788,"o":"m 788 979 l 769 876 l 493 876 l 340 6 q 458 -94 458 -12 q 456 -118 458 -101 q 391 -220 444 -185 q 263 -256 338 -256 l 122 -256 l 136 -182 l 264 -182 q 336 -165 313 -182 q 367 -115 360 -147 l 368 -104 q 286 -53 368 -53 l 201 -53 l 365 876 l 90 876 l 108 979 l 788 979 z "},"ţ":{"ha":518,"x_min":60,"x_max":518,"o":"m 229 239 q 224 189 224 200 q 248 128 224 146 q 328 111 272 111 l 404 111 l 385 0 l 290 0 l 283 0 l 267 -93 q 380 -116 336 -90 q 424 -196 424 -142 q 421 -224 424 -204 q 356 -326 408 -290 q 228 -361 303 -361 l 86 -361 l 99 -287 l 226 -287 q 331 -221 318 -287 q 332 -208 332 -217 q 250 -158 332 -158 l 175 -158 l 204 10 q 122 63 150 25 q 94 165 94 100 q 101 242 94 207 l 174 653 l 60 653 l 81 763 l 193 763 l 226 953 l 354 953 l 321 763 l 518 763 l 499 653 l 301 653 l 229 239 z "},"Ť":{"ha":725,"x_min":92,"x_max":788,"o":"m 788 979 l 769 876 l 493 876 l 339 0 l 213 0 l 367 876 l 92 876 l 108 979 l 788 979 m 679 1178 l 467 1063 l 294 1178 l 310 1267 l 483 1150 l 694 1267 l 679 1178 z "},"ť":{"ha":513,"x_min":53,"x_max":578,"o":"m 576 1101 q 578 1064 578 1089 q 571 979 578 1024 q 403 832 544 832 l 414 889 q 468 903 450 889 q 492 947 486 918 l 497 982 l 428 982 l 449 1101 l 576 1101 m 313 763 l 510 763 l 490 653 l 293 653 l 219 239 q 215 192 215 213 q 240 129 215 147 q 319 111 264 111 l 397 111 l 376 0 l 282 0 q 135 39 185 0 q 86 167 86 78 q 93 242 86 207 l 167 653 l 53 653 l 71 763 l 186 763 l 219 953 l 346 953 l 313 763 z "},"Ũ":{"ha":918,"x_min":74,"x_max":917,"o":"m 314 979 l 211 392 q 203 304 203 344 q 254 158 203 206 q 400 110 306 110 q 585 178 511 110 q 686 392 660 247 l 790 979 l 917 979 l 814 392 q 660 91 778 192 q 376 -10 543 -10 q 154 64 235 -10 q 74 283 74 138 q 83 392 74 338 l 188 979 l 314 979 m 515 1207 q 559 1198 542 1207 q 601 1171 576 1189 q 637 1147 622 1154 q 671 1139 651 1139 q 714 1156 694 1139 q 743 1204 733 1172 l 814 1204 q 750 1097 793 1135 q 653 1060 707 1060 q 606 1069 625 1060 q 563 1097 586 1079 q 530 1119 544 1111 q 497 1126 515 1126 q 425 1061 447 1126 l 356 1061 q 515 1207 404 1207 z "},"ũ":{"ha":881,"x_min":69,"x_max":854,"o":"m 854 763 l 719 0 l 592 0 l 622 176 q 494 36 578 85 q 314 -12 411 -12 q 135 51 201 -12 q 69 233 69 114 q 76 318 69 281 l 156 763 l 282 763 l 206 331 q 200 268 200 301 q 247 138 200 183 q 381 93 294 93 q 551 153 479 93 q 650 331 622 214 l 726 763 l 854 763 m 454 989 q 498 980 481 989 q 540 953 515 971 q 576 928 561 936 q 610 921 590 921 q 653 938 633 921 q 682 986 672 954 l 753 986 q 689 879 732 917 q 592 842 646 842 q 544 851 564 842 q 501 879 525 861 q 469 901 483 893 q 436 908 454 908 q 364 843 386 908 l 294 843 q 454 989 343 989 z "},"Ū":{"ha":918,"x_min":74,"x_max":917,"o":"m 314 979 l 211 392 q 203 304 203 344 q 254 158 203 206 q 400 110 306 110 q 585 178 511 110 q 686 392 660 247 l 790 979 l 917 979 l 814 392 q 660 91 778 192 q 376 -10 543 -10 q 154 64 235 -10 q 74 283 74 138 q 83 392 74 338 l 188 979 l 314 979 m 840 1204 l 824 1115 l 333 1115 l 350 1204 l 840 1204 z "},"ū":{"ha":881,"x_min":69,"x_max":854,"o":"m 854 763 l 719 0 l 592 0 l 622 176 q 494 36 578 85 q 314 -12 411 -12 q 135 51 201 -12 q 69 233 69 114 q 76 318 69 281 l 156 763 l 282 763 l 206 331 q 200 268 200 301 q 247 138 200 183 q 381 93 294 93 q 551 153 479 93 q 650 331 622 214 l 726 763 l 854 763 m 778 986 l 761 897 l 271 897 l 288 986 l 778 986 z "},"Ŭ":{"ha":918,"x_min":68,"x_max":911,"o":"m 308 979 l 206 392 q 197 304 197 344 q 249 158 197 206 q 394 110 300 110 q 580 178 506 110 q 681 392 654 247 l 785 979 l 911 979 l 808 392 q 655 91 772 192 q 371 -10 538 -10 q 149 64 229 -10 q 68 283 68 138 q 78 392 68 338 l 182 979 l 308 979 m 561 1065 q 437 1106 481 1065 q 393 1217 393 1147 q 397 1258 393 1238 l 400 1271 l 468 1271 q 465 1244 465 1251 q 578 1160 465 1160 q 681 1188 643 1160 q 728 1271 718 1217 l 796 1271 l 794 1258 q 716 1119 778 1174 q 561 1065 654 1065 z "},"ŭ":{"ha":881,"x_min":64,"x_max":849,"o":"m 849 763 l 714 0 l 586 0 l 617 176 q 489 36 572 85 q 308 -12 406 -12 q 130 51 196 -12 q 64 233 64 114 q 71 318 64 281 l 150 763 l 276 763 l 200 331 q 194 268 194 301 q 242 138 194 183 q 375 93 289 93 q 545 153 474 93 q 644 331 617 214 l 721 763 l 849 763 m 500 847 q 376 888 419 847 q 332 999 332 929 q 336 1040 332 1019 l 339 1053 l 407 1053 q 404 1026 404 1033 q 517 942 404 942 q 619 970 582 942 q 667 1053 657 999 l 735 1053 l 733 1040 q 655 901 717 956 q 500 847 593 847 z "},"Ů":{"ha":918,"x_min":61,"x_max":904,"o":"m 301 979 l 199 392 q 190 304 190 344 q 242 158 190 206 q 388 110 293 110 q 573 178 499 110 q 674 392 647 247 l 778 979 l 904 979 l 801 392 q 648 91 765 192 q 364 -10 531 -10 q 142 64 222 -10 q 61 283 61 138 q 71 392 61 338 l 175 979 l 301 979 m 599 1353 q 686 1322 651 1353 q 721 1238 721 1290 q 697 1145 721 1185 q 632 1083 672 1106 q 547 1061 592 1061 q 458 1093 492 1061 q 424 1178 424 1125 q 426 1207 424 1188 q 488 1313 439 1274 q 599 1353 536 1353 m 588 1294 q 516 1265 546 1294 q 486 1188 486 1235 q 506 1138 486 1156 q 557 1119 525 1119 q 629 1149 599 1119 q 660 1226 660 1179 q 640 1276 660 1258 q 588 1294 621 1294 z "},"ů":{"ha":881,"x_min":57,"x_max":842,"o":"m 842 763 l 707 0 l 579 0 l 610 176 q 482 36 565 85 q 301 -12 399 -12 q 123 51 189 -12 q 57 233 57 114 q 64 318 57 281 l 143 763 l 269 763 l 193 331 q 188 268 188 301 q 235 138 188 183 q 368 93 282 93 q 538 153 467 93 q 638 331 610 214 l 714 763 l 842 763 m 538 1135 q 625 1103 590 1135 q 660 1019 660 1072 q 635 927 660 967 q 571 865 611 888 q 486 843 531 843 q 397 875 431 843 q 363 960 363 907 q 365 989 363 969 q 426 1095 378 1056 q 538 1135 475 1135 m 526 1076 q 455 1047 485 1076 q 425 969 425 1017 q 444 919 425 938 q 496 901 464 901 q 568 931 538 901 q 599 1008 599 961 q 579 1058 599 1040 q 526 1076 560 1076 z "},"Ű":{"ha":918,"x_min":68,"x_max":911,"o":"m 308 979 l 206 392 q 197 304 197 344 q 249 158 197 206 q 394 110 300 110 q 580 178 506 110 q 681 392 654 247 l 785 979 l 911 979 l 808 392 q 655 91 772 192 q 371 -10 538 -10 q 149 64 229 -10 q 68 283 68 138 q 78 392 68 338 l 182 979 l 308 979 m 461 1053 l 378 1053 l 508 1267 l 613 1267 l 461 1053 m 669 1053 l 586 1053 l 735 1267 l 838 1267 l 669 1053 z "},"ű":{"ha":881,"x_min":64,"x_max":849,"o":"m 849 763 l 714 0 l 586 0 l 617 176 q 489 36 572 85 q 308 -12 406 -12 q 130 51 196 -12 q 64 233 64 114 q 71 318 64 281 l 150 763 l 276 763 l 200 331 q 194 268 194 301 q 242 138 194 183 q 375 93 289 93 q 545 153 474 93 q 644 331 617 214 l 721 763 l 849 763 m 399 835 l 315 835 l 446 1049 l 550 1049 l 399 835 m 607 835 l 524 835 l 672 1049 l 775 1049 l 607 835 z "},"Ų":{"ha":918,"x_min":74,"x_max":915,"o":"m 314 979 l 210 392 q 201 304 201 344 q 253 158 201 206 q 399 110 304 110 q 583 175 507 110 q 685 392 658 240 l 789 979 l 915 979 l 811 392 q 681 115 781 213 q 443 -1 582 17 q 367 -32 393 -7 q 340 -94 340 -57 q 363 -140 340 -124 q 426 -156 385 -156 l 553 -156 l 540 -228 l 392 -228 q 286 -196 325 -228 q 247 -108 247 -164 q 250 -81 247 -100 q 272 -33 254 -56 q 311 -4 289 -11 q 138 90 203 14 q 74 294 74 165 q 82 392 74 340 l 186 979 l 314 979 z "},"ų":{"ha":881,"x_min":53,"x_max":838,"o":"m 838 763 l 703 0 l 575 0 l 606 176 q 478 36 561 85 q 297 -12 394 -12 q 119 51 185 -12 q 53 233 53 114 q 60 318 53 281 l 139 763 l 265 763 l 189 331 q 183 268 183 301 q 231 138 183 183 q 364 93 278 93 q 534 153 463 93 q 633 331 606 214 l 710 763 l 838 763 m 706 18 l 693 -50 l 618 -50 q 536 -72 567 -50 q 506 -133 506 -94 q 528 -182 506 -164 q 592 -200 551 -200 l 725 -200 l 711 -274 l 567 -274 q 456 -242 497 -274 q 414 -151 414 -210 q 469 -27 414 -72 q 610 18 524 18 l 706 18 z "},"Ŵ":{"ha":1353,"x_min":131,"x_max":1390,"o":"m 1390 979 l 969 0 l 815 0 l 731 800 l 363 0 l 208 0 l 131 979 l 271 979 l 313 150 l 690 979 l 831 979 l 918 150 l 1251 979 l 1390 979 m 801 1182 l 588 1065 l 604 1154 l 817 1269 l 989 1154 l 972 1065 l 801 1182 z "},"ŵ":{"ha":1165,"x_min":79,"x_max":1210,"o":"m 1210 763 l 857 0 l 719 0 l 619 622 l 299 0 l 163 0 l 79 763 l 207 763 l 258 124 l 581 763 l 714 763 l 814 124 l 1089 763 l 1210 763 m 674 964 l 460 847 l 476 936 l 689 1051 l 861 936 l 844 847 l 674 964 z "},"Ŷ":{"ha":824,"x_min":111,"x_max":882,"o":"m 882 979 l 454 371 l 389 0 l 261 0 l 326 371 l 111 979 l 258 979 l 414 506 l 738 979 l 882 979 m 536 1182 l 322 1065 l 339 1154 l 551 1269 l 724 1154 l 707 1065 l 536 1182 z "},"ŷ":{"ha":785,"x_min":22,"x_max":817,"o":"m 200 763 l 342 163 l 676 763 l 817 763 l 165 -361 l 22 -361 l 247 13 l 58 763 l 200 763 m 471 964 l 257 847 l 274 936 l 486 1051 l 658 936 l 642 847 l 471 964 z "},"Ÿ":{"ha":824,"x_min":115,"x_max":886,"o":"m 886 979 l 458 371 l 393 0 l 265 0 l 331 371 l 115 979 l 263 979 l 418 506 l 742 979 l 886 979 m 351 1142 q 376 1199 351 1175 q 433 1224 401 1224 q 476 1207 460 1224 q 493 1167 493 1190 q 467 1110 493 1135 q 410 1086 442 1086 q 367 1102 383 1086 q 351 1142 351 1118 m 582 1142 q 607 1199 582 1175 q 665 1224 632 1224 q 708 1208 692 1224 q 724 1167 724 1192 q 722 1154 724 1158 q 692 1106 715 1125 q 640 1086 669 1086 q 598 1102 614 1086 q 582 1142 582 1118 z "},"Ź":{"ha":747,"x_min":-35,"x_max":764,"o":"m 125 104 l 618 104 l 600 0 l -35 0 l -17 100 l 604 875 l 132 875 l 150 979 l 764 979 l 747 879 l 125 104 m 725 1203 l 400 1040 l 417 1131 l 743 1306 l 725 1203 z "},"ź":{"ha":619,"x_min":-29,"x_max":639,"o":"m 129 107 l 538 107 l 517 0 l -29 0 l -11 101 l 474 656 l 96 656 l 117 763 l 639 763 l 619 660 l 129 107 m 618 985 l 293 822 l 310 913 l 636 1088 l 618 985 z "},"Ż":{"ha":746,"x_min":-28,"x_max":771,"o":"m 132 104 l 625 104 l 607 0 l -28 0 l -10 100 l 611 875 l 139 875 l 157 979 l 771 979 l 754 879 l 132 104 m 426 1142 q 451 1199 426 1175 q 508 1224 476 1224 q 551 1207 535 1224 q 568 1167 568 1190 q 567 1154 568 1158 q 537 1106 560 1125 q 485 1086 514 1086 q 442 1102 458 1086 q 426 1142 426 1118 z "},"ż":{"ha":619,"x_min":-28,"x_max":640,"o":"m 131 107 l 539 107 l 518 0 l -28 0 l -10 101 l 475 656 l 97 656 l 118 763 l 640 763 l 621 660 l 131 107 m 321 924 q 346 981 321 957 q 403 1006 371 1006 q 446 989 429 1006 q 463 949 463 972 q 461 936 463 940 q 431 888 454 907 q 379 868 408 868 q 337 884 353 868 q 321 924 321 900 z "},"Ž":{"ha":747,"x_min":-31,"x_max":768,"o":"m 129 104 l 622 104 l 604 0 l -31 0 l -12 100 l 608 875 l 136 875 l 154 979 l 768 979 l 751 879 l 129 104 m 689 1178 l 476 1063 l 304 1178 l 319 1267 l 493 1150 l 704 1267 l 689 1178 z "},"ž":{"ha":621,"x_min":-26,"x_max":642,"o":"m 132 107 l 540 107 l 519 0 l -26 0 l -8 101 l 476 656 l 99 656 l 119 763 l 642 763 l 622 660 l 132 107 m 593 960 l 381 844 l 208 960 l 224 1049 l 397 932 l 608 1049 l 593 960 z "},"ƒ":{"ha":464,"x_min":-175,"x_max":610,"o":"m 581 956 q 451 925 500 956 q 385 826 403 894 l 367 763 l 536 763 l 507 654 l 336 654 l 129 -79 q 36 -228 100 -182 q -132 -275 -28 -275 l -175 -275 l -146 -165 l -103 -165 q -36 -147 -60 -165 q 3 -79 -12 -128 l 210 654 l 113 654 l 140 763 l 240 763 l 258 826 q 380 1008 293 950 q 610 1065 467 1065 l 581 956 z "},"Ǽ":{"ha":1236,"x_min":-82,"x_max":1257,"o":"m 829 876 l 771 544 l 1139 544 l 1121 446 l 753 446 l 693 103 l 1103 103 l 1085 0 l 549 0 l 588 222 l 224 222 l 58 0 l -82 0 l 646 979 l 1257 979 l 1239 876 l 829 876 m 700 863 l 296 319 l 604 319 l 700 863 m 1097 1203 l 772 1040 l 789 1131 l 1115 1306 l 1097 1203 z "},"ǽ":{"ha":1536,"x_min":57,"x_max":1489,"o":"m 1204 772 q 1415 695 1340 772 q 1489 496 1489 618 q 1482 424 1489 465 q 1463 354 1474 381 l 836 354 q 832 301 832 328 q 891 144 832 196 q 1044 92 950 92 q 1213 138 1140 92 q 1314 264 1285 183 l 1449 264 q 1302 66 1404 142 q 1065 -10 1200 -10 q 886 43 957 -10 q 804 194 815 96 l 769 0 l 643 0 l 678 194 q 545 47 633 103 q 346 -10 457 -10 q 135 69 214 -10 q 57 288 57 149 q 65 381 57 331 q 147 589 86 500 q 295 725 207 678 q 485 772 383 772 q 663 717 596 772 q 744 568 731 661 l 779 763 l 904 763 l 869 567 q 1003 719 915 667 q 1204 772 1090 772 m 1353 415 q 1361 483 1361 453 q 1301 622 1361 575 q 1150 669 1240 669 q 957 607 1039 669 q 847 415 875 544 l 1353 415 m 711 381 q 717 443 717 410 q 658 601 717 543 q 501 660 599 660 q 300 585 383 660 q 194 381 217 511 q 188 313 188 342 q 244 157 188 213 q 403 101 301 101 q 542 136 476 101 q 651 234 607 171 q 711 381 696 297 m 1088 985 l 763 822 l 779 913 l 1106 1088 l 1088 985 z "},"Ș":{"ha":789,"x_min":25,"x_max":739,"o":"m 674 231 q 622 113 664 168 q 510 24 581 58 q 344 -10 439 -10 q 171 27 243 -10 q 62 126 99 64 q 26 264 25 188 l 161 264 q 177 183 158 222 q 238 117 196 143 q 347 92 281 92 q 490 146 438 92 q 542 279 542 200 q 515 366 542 332 q 448 420 488 400 q 339 467 408 440 q 213 521 260 496 q 134 591 167 546 q 101 708 101 636 q 107 772 101 740 q 212 931 124 871 q 432 992 300 992 q 658 920 581 992 q 739 743 735 849 l 604 743 q 560 846 603 801 q 428 890 517 890 q 292 847 344 890 q 240 722 240 804 q 266 642 240 674 q 330 591 292 610 q 436 547 368 572 q 564 492 515 518 q 647 419 613 467 q 681 297 681 372 q 674 231 681 269 m 419 -69 q 422 -115 422 -100 q 418 -164 422 -142 q 360 -287 403 -246 q 249 -328 317 -328 l 258 -274 q 339 -189 326 -274 l 342 -176 l 279 -176 l 297 -69 l 419 -69 z "},"ș":{"ha":722,"x_min":32,"x_max":668,"o":"m 374 772 q 592 705 517 772 q 668 524 667 638 l 543 524 q 499 636 546 593 q 363 679 453 679 q 251 645 293 679 q 208 556 208 611 q 232 497 208 519 q 290 459 256 474 q 385 428 325 444 q 509 386 461 407 q 590 325 557 365 q 624 219 624 285 q 618 168 624 204 q 531 40 603 89 q 344 -10 460 -10 q 116 56 200 -10 q 33 238 32 122 l 158 238 q 205 125 153 168 q 357 82 257 82 q 465 117 426 82 q 504 206 504 151 q 479 274 504 247 q 418 315 454 300 q 318 347 382 329 q 201 387 246 368 q 124 443 156 406 q 93 542 93 481 q 97 589 93 564 q 184 722 111 671 q 374 772 257 772 m 369 -69 q 372 -108 372 -94 q 367 -164 372 -131 q 310 -287 353 -246 q 199 -328 267 -328 l 208 -274 q 290 -189 275 -274 l 292 -176 l 228 -176 l 247 -69 l 369 -69 z "},"Ț":{"ha":725,"x_min":85,"x_max":781,"o":"m 781 979 l 763 876 l 486 876 l 332 0 l 206 0 l 360 876 l 85 876 l 101 979 l 781 979 m 318 -69 q 321 -110 321 -97 q 317 -164 321 -139 q 258 -287 301 -246 q 147 -328 215 -328 l 158 -274 q 238 -189 222 -274 l 240 -176 l 176 -176 l 196 -69 l 318 -69 z "},"ț":{"ha":518,"x_min":71,"x_max":528,"o":"m 238 239 q 233 192 233 213 q 258 129 233 147 q 338 111 282 111 l 415 111 l 394 0 l 300 0 q 153 39 203 0 q 104 167 104 78 q 111 242 104 207 l 185 653 l 71 653 l 89 763 l 204 763 l 238 953 l 364 953 l 331 763 l 528 763 l 508 653 l 311 653 l 238 239 m 306 -69 q 308 -110 308 -97 q 304 -164 308 -139 q 247 -287 290 -246 q 136 -328 204 -328 l 146 -274 q 225 -189 213 -274 l 228 -176 l 165 -176 l 183 -69 l 306 -69 z "},"ʼ":{"ha":247,"x_min":31,"x_max":207,"o":"m 206 1094 q 207 1058 207 1082 q 199 967 207 1008 q 142 849 185 889 q 31 810 100 810 l 40 867 q 96 885 76 867 q 122 943 115 904 l 128 975 l 58 975 l 78 1094 l 206 1094 z "},"ˆ":{"ha":467,"x_min":106,"x_max":507,"o":"m 319 964 l 106 847 l 122 936 l 335 1051 l 507 936 l 490 847 l 319 964 z "},"ˇ":{"ha":467,"x_min":126,"x_max":526,"o":"m 511 960 l 299 844 l 126 960 l 142 1049 l 315 932 l 526 1049 l 511 960 z "},"ˉ":{"ha":571,"x_min":115,"x_max":622,"o":"m 622 986 l 606 897 l 115 897 l 132 986 l 622 986 z "},"˘":{"ha":478,"x_min":136,"x_max":539,"o":"m 304 847 q 180 888 224 847 q 136 999 136 929 q 140 1040 136 1019 l 143 1053 l 211 1053 q 208 1026 208 1033 q 321 942 208 942 q 424 970 386 942 q 471 1053 461 999 l 539 1053 l 538 1040 q 459 901 521 956 q 304 847 397 847 z "},"˙":{"ha":232,"x_min":129,"x_max":271,"o":"m 129 924 q 154 981 129 957 q 211 1006 179 1006 q 254 989 238 1006 q 271 949 271 972 q 269 936 271 940 q 240 888 263 907 q 188 868 217 868 q 145 884 161 868 q 129 924 129 900 z "},"˚":{"ha":372,"x_min":121,"x_max":418,"o":"m 296 1135 q 383 1103 349 1135 q 418 1019 418 1072 q 394 927 418 967 q 329 865 369 888 q 244 843 289 843 q 155 875 189 843 q 121 960 121 907 q 124 989 121 969 q 185 1095 136 1056 q 296 1135 233 1135 m 285 1076 q 213 1047 243 1076 q 183 969 183 1017 q 203 919 183 938 q 254 901 222 901 q 326 931 296 901 q 357 1008 357 961 q 338 1058 357 1040 q 285 1076 318 1076 z "},"˛":{"ha":393,"x_min":33,"x_max":344,"o":"m 325 -19 l 313 -87 l 238 -87 q 156 -110 186 -87 q 125 -171 125 -132 q 148 -219 125 -201 q 211 -237 171 -237 l 344 -237 l 331 -311 l 186 -311 q 75 -279 117 -311 q 33 -189 33 -247 q 88 -65 33 -110 q 229 -19 143 -19 l 325 -19 z "},"˜":{"ha":504,"x_min":106,"x_max":564,"o":"m 265 989 q 309 980 292 989 q 351 953 326 971 q 387 928 372 936 q 421 921 401 921 q 464 938 444 921 q 493 986 483 954 l 564 986 q 500 879 543 917 q 403 842 457 842 q 356 851 375 842 q 313 879 336 861 q 280 901 294 893 q 247 908 265 908 q 175 843 197 908 l 106 843 q 265 989 154 989 z "},"˝":{"ha":504,"x_min":106,"x_max":565,"o":"m 189 835 l 106 835 l 236 1049 l 340 1049 l 189 835 m 397 835 l 314 835 l 463 1049 l 565 1049 l 397 835 z "},"π":{"ha":994,"x_min":106,"x_max":1001,"o":"m 1001 763 l 983 664 l 874 664 l 757 0 l 629 0 l 746 664 l 350 664 l 233 0 l 106 0 l 222 664 l 113 664 l 131 763 l 1001 763 z "},"Ẁ":{"ha":1353,"x_min":128,"x_max":1388,"o":"m 1388 979 l 967 0 l 813 0 l 728 800 l 360 0 l 206 0 l 128 979 l 268 979 l 310 150 l 688 979 l 828 979 l 915 150 l 1249 979 l 1388 979 m 846 1131 l 829 1040 l 563 1203 l 582 1306 l 846 1131 z "},"ẁ":{"ha":1165,"x_min":76,"x_max":1207,"o":"m 1207 763 l 854 0 l 717 0 l 617 622 l 296 0 l 160 0 l 76 763 l 204 763 l 256 124 l 578 763 l 711 763 l 811 124 l 1086 763 l 1207 763 m 718 913 l 701 822 l 435 985 l 454 1088 l 718 913 z "},"Ẃ":{"ha":1353,"x_min":128,"x_max":1388,"o":"m 1388 979 l 967 0 l 813 0 l 728 800 l 360 0 l 206 0 l 128 979 l 268 979 l 310 150 l 688 979 l 828 979 l 915 150 l 1249 979 l 1388 979 m 1029 1203 l 704 1040 l 721 1131 l 1047 1306 l 1029 1203 z "},"ẃ":{"ha":1165,"x_min":76,"x_max":1207,"o":"m 1207 763 l 854 0 l 717 0 l 617 622 l 296 0 l 160 0 l 76 763 l 204 763 l 256 124 l 578 763 l 711 763 l 811 124 l 1086 763 l 1207 763 m 901 985 l 576 822 l 593 913 l 919 1088 l 901 985 z "},"Ẅ":{"ha":1353,"x_min":135,"x_max":1394,"o":"m 1394 979 l 974 0 l 819 0 l 735 800 l 367 0 l 213 0 l 135 979 l 275 979 l 317 150 l 694 979 l 835 979 l 922 150 l 1256 979 l 1394 979 m 615 1142 q 640 1199 615 1175 q 697 1224 665 1224 q 740 1207 724 1224 q 757 1167 757 1190 q 731 1110 757 1135 q 674 1086 706 1086 q 631 1102 647 1086 q 615 1142 615 1118 m 846 1142 q 871 1199 846 1175 q 929 1224 896 1224 q 972 1208 956 1224 q 988 1167 988 1192 q 986 1154 988 1158 q 956 1106 979 1125 q 904 1086 933 1086 q 862 1102 878 1086 q 846 1142 846 1118 z "},"ẅ":{"ha":1165,"x_min":83,"x_max":1214,"o":"m 1214 763 l 861 0 l 724 0 l 624 622 l 303 0 l 167 0 l 83 763 l 211 763 l 263 124 l 585 763 l 718 763 l 818 124 l 1093 763 l 1214 763 m 488 924 q 513 981 488 957 q 569 1006 538 1006 q 613 989 596 1006 q 629 949 629 972 q 603 892 629 917 q 546 868 578 868 q 503 884 519 868 q 488 924 488 900 m 718 924 q 743 981 718 957 q 801 1006 768 1006 q 844 990 828 1006 q 860 949 860 974 q 858 936 860 940 q 828 888 851 907 q 776 868 806 868 q 734 884 750 868 q 718 924 718 900 z "},"Ẽ":{"ha":703,"x_min":19,"x_max":732,"o":"m 300 876 l 242 542 l 614 542 l 596 444 l 224 444 l 164 103 l 578 103 l 560 0 l 19 0 l 192 979 l 732 979 l 714 876 l 300 876 m 428 1207 q 472 1198 454 1207 q 514 1171 489 1189 q 549 1147 535 1154 q 583 1139 564 1139 q 626 1156 607 1139 q 656 1204 646 1172 l 726 1204 q 663 1097 706 1135 q 565 1060 619 1060 q 518 1069 538 1060 q 475 1097 499 1079 q 442 1119 457 1111 q 410 1126 428 1126 q 338 1061 360 1126 l 268 1061 q 428 1207 317 1207 z "},"ẽ":{"ha":865,"x_min":61,"x_max":821,"o":"m 513 772 q 681 735 611 772 q 785 635 750 699 q 821 492 821 572 q 815 424 821 456 q 796 354 807 381 l 189 354 q 183 294 183 313 q 241 144 183 194 q 388 93 299 93 q 549 140 478 93 q 647 264 619 186 l 782 264 q 629 66 738 142 q 375 -10 521 -10 q 146 71 231 -10 q 61 294 61 151 q 69 386 61 339 q 154 592 90 504 q 311 726 218 679 q 513 772 404 772 m 688 415 q 696 485 696 453 q 638 622 696 575 q 494 669 581 669 q 308 605 392 669 q 199 415 225 540 l 688 415 m 453 989 q 497 980 479 989 q 539 953 514 971 q 574 928 560 936 q 608 921 589 921 q 651 938 632 921 q 681 986 671 954 l 751 986 q 688 879 731 917 q 590 842 644 842 q 543 851 563 842 q 500 879 524 861 q 467 901 482 893 q 435 908 453 908 q 363 843 385 908 l 293 843 q 453 989 342 989 z "},"Ỳ":{"ha":824,"x_min":108,"x_max":879,"o":"m 879 979 l 451 371 l 386 0 l 258 0 l 324 371 l 108 979 l 256 979 l 411 506 l 735 979 l 879 979 m 582 1131 l 565 1040 l 299 1203 l 318 1306 l 582 1131 z "},"ỳ":{"ha":785,"x_min":18,"x_max":813,"o":"m 196 763 l 338 163 l 672 763 l 813 763 l 161 -361 l 18 -361 l 243 13 l 54 763 l 196 763 m 517 913 l 500 822 l 233 985 l 253 1088 l 517 913 z "},"Ỹ":{"ha":824,"x_min":117,"x_max":888,"o":"m 888 979 l 460 371 l 394 0 l 267 0 l 332 371 l 117 979 l 264 979 l 419 506 l 743 979 l 888 979 m 468 1207 q 512 1198 494 1207 q 554 1171 529 1189 q 590 1147 575 1154 q 624 1139 604 1139 q 667 1156 647 1139 q 696 1204 686 1172 l 767 1204 q 703 1097 746 1135 q 606 1060 660 1060 q 558 1069 578 1060 q 515 1097 539 1079 q 483 1119 497 1111 q 450 1126 468 1126 q 378 1061 400 1126 l 308 1061 q 468 1207 357 1207 z "},"ỹ":{"ha":785,"x_min":18,"x_max":813,"o":"m 196 763 l 338 163 l 672 763 l 813 763 l 161 -361 l 18 -361 l 243 13 l 54 763 l 196 763 m 393 989 q 437 980 419 989 q 479 953 454 971 q 515 928 500 936 q 549 921 529 921 q 592 938 572 921 q 621 986 611 954 l 692 986 q 628 879 671 917 q 531 842 585 842 q 483 851 503 842 q 440 879 464 861 q 408 901 422 893 q 375 908 393 908 q 303 843 325 908 l 233 843 q 393 989 282 989 z "},"–":{"ha":857,"x_min":53,"x_max":804,"o":"m 804 563 l 785 456 l 53 456 l 72 563 l 804 563 z "},"—":{"ha":1146,"x_min":53,"x_max":1093,"o":"m 1093 563 l 1074 456 l 53 456 l 72 563 l 1093 563 z "},"‘":{"ha":247,"x_min":42,"x_max":218,"o":"m 43 810 q 42 847 42 822 q 49 938 42 893 q 106 1055 63 1015 q 218 1094 149 1094 l 208 1039 q 153 1019 172 1039 q 126 961 133 1000 l 121 929 l 190 929 l 169 810 l 43 810 z "},"’":{"ha":247,"x_min":31,"x_max":207,"o":"m 206 1094 q 207 1058 207 1082 q 199 967 207 1008 q 142 849 185 889 q 31 810 100 810 l 40 867 q 96 885 76 867 q 122 943 115 904 l 128 975 l 58 975 l 78 1094 l 206 1094 z "},"‚":{"ha":260,"x_min":-7,"x_max":169,"o":"m 165 93 q 169 38 169 67 q 124 -118 169 -56 q -7 -181 79 -181 l 3 -126 q 56 -108 38 -126 q 81 -49 75 -89 l 83 -36 l 14 -36 l 35 93 l 165 93 z "},"“":{"ha":436,"x_min":42,"x_max":406,"o":"m 43 810 q 42 847 42 822 q 49 938 42 893 q 106 1055 63 1015 q 218 1094 149 1094 l 208 1039 q 153 1019 172 1039 q 126 961 133 1000 l 121 929 l 190 929 l 169 810 l 43 810 m 231 810 q 229 847 229 822 q 236 938 229 893 q 293 1055 250 1015 q 406 1094 336 1094 l 396 1039 q 340 1019 360 1039 q 314 961 321 1000 l 308 929 l 378 929 l 357 810 l 231 810 z "},"”":{"ha":436,"x_min":31,"x_max":394,"o":"m 206 1094 q 207 1058 207 1082 q 199 967 207 1008 q 142 849 185 889 q 31 810 100 810 l 40 867 q 96 885 76 867 q 122 943 115 904 l 128 975 l 58 975 l 78 1094 l 206 1094 m 393 1094 q 394 1057 394 1082 q 388 967 394 1013 q 331 849 374 889 q 218 810 288 810 l 228 867 q 283 885 264 867 q 310 943 303 904 l 315 975 l 246 975 l 265 1094 l 393 1094 z "},"„":{"ha":436,"x_min":-8,"x_max":356,"o":"m 167 119 q 168 83 168 107 q 160 -8 168 33 q 103 -126 146 -86 q -8 -165 61 -165 l 1 -108 q 57 -90 38 -108 q 83 -32 76 -71 l 89 0 l 19 0 l 39 119 l 167 119 m 354 119 q 356 82 356 107 q 349 -8 356 38 q 292 -126 335 -86 q 179 -165 249 -165 l 189 -108 q 244 -90 225 -108 q 271 -32 264 -71 l 276 0 l 207 0 l 226 119 l 354 119 z "},"†":{"ha":738,"x_min":106,"x_max":756,"o":"m 739 663 l 474 672 l 304 -361 l 178 -361 l 372 672 l 106 663 l 122 763 l 386 751 l 435 1085 l 560 1085 l 489 751 l 756 763 l 739 663 z "},"‡":{"ha":739,"x_min":-18,"x_max":757,"o":"m 475 672 l 365 51 l 633 64 l 617 -37 l 351 -28 l 304 -361 l 178 -361 l 250 -28 l -18 -37 l -1 64 l 264 51 l 374 672 l 104 663 l 122 763 l 388 751 l 433 1085 l 560 1085 l 489 751 l 757 763 l 740 663 l 475 672 z "},"•":{"ha":493,"x_min":74,"x_max":421,"o":"m 74 431 q 102 532 74 485 q 178 607 131 579 q 276 635 225 635 q 381 594 340 635 q 421 493 421 554 q 392 394 421 440 q 316 321 363 349 q 217 293 269 293 q 114 332 154 293 q 74 431 74 371 z "},"…":{"ha":758,"x_min":14,"x_max":715,"o":"m 454 149 l 428 0 l 275 0 l 300 149 l 454 149 m 715 149 l 689 0 l 536 0 l 561 149 l 715 149 m 193 149 l 167 0 l 14 0 l 39 149 l 193 149 z "},"‰":{"ha":1376,"x_min":26,"x_max":1281,"o":"m 336 993 q 461 949 414 993 q 508 831 508 906 q 504 788 508 811 q 419 639 486 694 q 265 583 353 583 q 141 626 188 583 q 94 743 94 669 q 99 788 94 765 q 182 937 115 881 q 336 993 249 993 m 889 981 l 153 0 l 26 0 l 763 981 l 889 981 m 188 788 q 185 760 185 768 q 210 689 185 715 q 278 663 235 663 q 367 697 329 663 q 415 788 404 732 q 418 815 418 807 q 392 886 418 860 q 322 913 367 913 q 235 878 272 913 q 188 788 197 843 m 651 397 q 775 355 729 397 q 821 238 821 313 q 817 193 821 217 q 734 44 800 100 q 581 -12 668 -12 q 456 31 503 -12 q 408 150 408 75 q 413 193 408 171 q 496 342 429 286 q 651 397 563 397 m 1111 397 q 1234 355 1188 397 q 1281 239 1281 313 q 1276 193 1281 217 q 1194 44 1261 100 q 1040 -12 1128 -12 q 915 31 963 -12 q 868 150 868 75 q 872 193 868 171 q 956 342 889 286 q 1111 397 1022 397 m 501 193 q 499 165 499 174 q 524 94 499 121 q 593 68 549 68 q 690 112 650 68 q 731 222 731 156 q 706 292 731 267 q 638 318 681 318 q 549 283 586 318 q 501 193 513 249 m 961 193 q 958 165 958 174 q 983 94 958 121 q 1053 68 1008 68 q 1151 112 1111 68 q 1190 224 1190 156 q 1165 292 1190 267 q 1097 318 1140 318 q 1009 283 1046 318 q 961 193 972 249 z "},"‹":{"ha":389,"x_min":63,"x_max":363,"o":"m 153 167 l 63 410 l 239 653 l 363 653 l 183 410 l 276 167 l 153 167 z "},"›":{"ha":389,"x_min":26,"x_max":326,"o":"m 207 410 l 113 653 l 238 653 l 326 410 l 151 167 l 26 167 l 207 410 z "},"⁄":{"ha":460,"x_min":-203,"x_max":660,"o":"m 660 981 l -76 0 l -203 0 l 533 981 l 660 981 z "},"€":{"ha":1139,"x_min":0,"x_max":1100,"o":"m 544 108 q 760 166 667 108 q 907 321 854 224 l 1040 321 q 838 80 969 168 q 526 -8 706 -8 q 327 35 413 -8 q 193 160 242 79 q 139 347 144 240 l 0 347 l 11 413 l 139 413 q 147 489 140 449 q 161 553 154 529 l 36 553 l 47 618 l 183 618 q 388 888 249 788 q 701 989 526 989 q 982 901 881 989 q 1100 660 1083 813 l 967 660 q 874 815 947 757 q 679 872 800 872 q 467 805 565 872 q 317 618 369 738 l 656 618 l 644 553 l 293 553 q 278 489 286 531 q 269 413 272 450 l 619 413 l 607 347 l 272 347 q 360 172 286 236 q 544 108 433 108 z "},"₺":{"ha":1093,"x_min":31,"x_max":1047,"o":"m 1047 579 q 847 125 993 274 q 436 -24 700 -24 q 204 3 332 -24 l 265 347 l 31 294 l 46 376 l 279 429 l 306 578 l 71 524 l 85 603 l 319 658 l 376 982 l 506 982 l 454 690 l 715 753 l 701 671 l 440 610 l 414 460 l 676 519 l 663 438 l 399 378 l 351 106 q 456 94 397 94 q 766 219 656 94 q 918 579 876 343 l 1047 579 z "},"₽":{"ha":876,"x_min":7,"x_max":872,"o":"m 582 979 q 801 921 729 979 q 872 758 872 863 q 867 696 872 725 q 744 488 843 561 q 483 414 646 414 l 299 414 l 272 271 l 574 271 l 557 172 l 256 172 l 225 0 l 99 0 l 129 172 l 7 172 l 24 271 l 146 271 l 171 414 l 50 414 l 68 515 l 189 515 l 271 979 l 582 979 m 739 697 q 743 742 743 721 q 558 881 743 881 l 381 881 l 317 515 l 494 515 q 739 697 707 515 z "},"ℓ":{"ha":311,"x_min":7,"x_max":315,"o":"m 315 1028 l 135 0 l 7 0 l 188 1028 l 315 1028 z "},"™":{"ha":1085,"x_min":71,"x_max":1076,"o":"m 438 899 l 301 899 l 229 492 l 136 492 l 208 899 l 71 899 l 85 979 l 451 979 l 438 899 m 1076 979 l 990 492 l 903 492 l 963 847 l 743 492 l 675 492 l 582 860 l 517 492 l 433 492 l 519 979 l 642 979 l 731 601 l 964 979 l 1076 979 z "},"Ω":{"ha":1101,"x_min":-10,"x_max":1050,"o":"m 1042 506 q 943 261 1018 368 q 747 99 868 154 l 953 99 l 935 0 l 554 0 l 572 104 q 793 239 701 138 q 910 490 885 340 q 918 575 918 536 q 836 794 918 714 q 618 875 754 875 q 423 826 514 875 q 269 690 332 778 q 188 490 207 603 q 181 404 181 453 q 237 210 181 289 q 390 104 293 132 l 372 0 l -10 0 l 7 99 l 214 99 q 93 222 133 143 q 53 403 53 300 q 63 506 53 443 q 173 761 89 650 q 379 932 257 872 q 639 992 501 992 q 852 944 758 992 q 998 810 946 897 q 1050 604 1050 722 q 1042 506 1050 558 z "},"℮":{"ha":1057,"x_min":51,"x_max":1007,"o":"m 454 -10 q 244 33 335 -10 q 102 159 153 76 q 51 357 51 242 q 61 460 51 410 q 163 721 88 604 q 353 905 238 838 q 614 972 469 972 q 829 923 740 972 q 963 791 918 874 q 1007 607 1007 708 q 999 522 1007 567 l 985 438 l 246 438 l 204 206 q 310 107 247 139 q 469 75 374 75 q 659 119 569 75 q 856 251 749 163 l 901 190 q 454 -10 679 -10 m 843 771 q 746 858 808 828 q 600 889 683 889 q 436 856 513 889 q 301 757 360 824 l 261 526 l 800 526 l 843 771 z "},"∂":{"ha":792,"x_min":11,"x_max":765,"o":"m 463 771 q 633 571 643 771 q 646 717 646 650 q 601 890 646 829 q 451 951 557 951 q 349 938 408 951 l 360 1008 q 506 1028 436 1028 q 699 955 632 1028 q 765 733 765 882 q 750 574 765 656 q 646 262 718 394 q 470 58 574 129 q 243 -14 367 -14 q 75 48 139 -14 q 11 228 11 110 q 18 310 11 274 q 103 540 40 435 q 260 708 167 646 q 463 771 353 771 m 456 664 q 318 617 382 664 q 210 490 254 571 q 147 310 165 410 q 142 247 142 278 q 178 135 142 172 q 272 99 214 99 q 414 147 349 99 q 524 275 479 194 q 585 453 568 356 q 590 519 590 486 q 456 664 590 664 z "},"∆":{"ha":946,"x_min":-57,"x_max":851,"o":"m 610 963 l 851 99 l 833 0 l -57 0 l -39 99 l 506 963 l 610 963 m 90 99 l 721 99 l 531 818 l 90 99 z "},"∏":{"ha":1026,"x_min":86,"x_max":1050,"o":"m 1050 981 l 1032 883 l 922 883 l 767 0 l 639 0 l 794 883 l 369 883 l 214 0 l 86 0 l 242 883 l 132 883 l 150 981 l 1050 981 z "},"∑":{"ha":635,"x_min":-39,"x_max":718,"o":"m 700 864 l 238 864 l 542 492 l 525 392 l 85 1 l 549 1 l 531 -97 l -39 -97 l -12 49 l 414 438 l 124 817 l 150 963 l 718 963 l 700 864 z "},"−":{"ha":647,"x_min":40,"x_max":617,"o":"m 617 563 l 597 456 l 40 456 l 60 563 l 617 563 z "},"∕":{"ha":518,"x_min":-128,"x_max":649,"o":"m 649 1308 l -4 -237 l -128 -237 l 525 1308 l 649 1308 z "},"∙":{"ha":253,"x_min":71,"x_max":250,"o":"m 250 544 l 224 396 l 71 396 l 96 544 l 250 544 z "},"√":{"ha":1094,"x_min":-33,"x_max":1174,"o":"m 1174 1207 l 271 -61 l 214 -61 l 94 244 l -6 193 l -33 258 l 190 374 l 301 89 l 1094 1207 l 1174 1207 z "},"∞":{"ha":932,"x_min":25,"x_max":936,"o":"m 751 689 q 888 648 840 689 q 936 529 936 607 q 932 483 936 508 q 844 332 915 388 q 681 276 774 276 q 549 313 600 276 q 458 415 499 350 q 347 315 410 354 q 210 276 283 276 q 74 318 122 276 q 25 436 25 360 q 29 482 25 460 q 117 633 46 578 q 281 689 188 689 q 409 650 361 689 q 496 542 457 611 q 610 648 544 607 q 751 689 675 689 m 229 364 q 329 394 281 364 q 421 479 378 425 q 355 572 386 540 q 275 603 324 603 q 170 561 211 603 q 129 454 129 519 q 155 388 129 413 q 229 364 181 364 m 832 511 q 806 578 832 554 q 731 601 779 601 q 627 569 678 601 q 532 476 576 536 q 599 392 564 421 q 686 363 633 363 q 791 404 750 363 q 832 511 832 446 z "},"∫":{"ha":364,"x_min":-190,"x_max":565,"o":"m 292 1088 q 382 1231 319 1186 q 538 1275 444 1275 l 565 1275 l 535 1165 l 507 1165 q 452 1148 474 1165 q 418 1088 431 1131 l 85 -79 q -3 -228 56 -182 q -158 -275 -62 -275 l -190 -275 l -161 -165 l -128 -165 q -74 -148 -90 -165 q -42 -79 -57 -131 l 292 1088 z "}}}
